{
.appVersion = "1147";
DisplayStrings = (
"THE QUICK BROWN FOX JUMPS \012OVER THE LAZY DOG\012\012AMAZINGLY FEW DISCOTHEQUES \012PROVIDE JUKEBOXES\012\012the quick brown fox jumps over the lazy dog!\012 \012League Spartan\012Amazingly few discotheques\012provide jukeboxes\012\012Allison Usavage\012Instagram\012Facebook\012SNAPCHAT\0120123456789",

glyphs = (
{
glyphname = A;
lastChange = "2018-06-10 11:52:29 +0000";
layers = (
{
anchors = (
{
name = bottom;
position = "{397, 0}";
},
{
name = ogonek;
position = "{711, 10}";
},
{
name = top;
position = "{397, 825}";
}
);
layerId = "A4E552E4-62BE-43BB-A58F-34F0EE3B77B8";
paths = (
{
closed = 1;
nodes = (
"-23 0 LINE",
"179 0 LINE",
"240 165 LINE",
"554 165 LINE",
"615 0 LINE",
"817 0 LINE",
"484 825 LINE",
"310 825 LINE"
);
},
{
closed = 1;
nodes = (
"396 570 LINE",
"398 570 LINE",
"490 330 LINE",
"304 330 LINE"
);
}
);
width = 809;
},
{
anchors = (
{
name = bottom;
position = "{327, 0}";
},
{
name = ogonek;
position = "{585, 10}";
},
{
name = top;
position = "{327, 825}";
}
);
layerId = "7B60DD57-6012-4D0F-BD38-A72A4BAC0E9D";
paths = (
{
closed = 1;
nodes = (
"-7 0 LINE",
"69 0 LINE",
"148 214 LINE",
"506 214 LINE",
"585 0 LINE",
"661 0 LINE",
"362 825 LINE",
"292 825 LINE"
);
},
{
closed = 1;
nodes = (
"326 723 LINE",
"328 723 LINE",
"487 279 LINE",
"167 279 LINE"
);
}
);
width = 669;
}
);
leftKerningGroup = A;
rightKerningGroup = A;
unicode = 0041;
},
{
glyphname = AE;
lastChange = "2018-06-10 11:52:29 +0000";
layers = (
{
components = (
{
alignment = -1;
name = E;
transform = "{1, 0, 0, 1, 452, 0}";
}
);
layerId = "A4E552E4-62BE-43BB-A58F-34F0EE3B77B8";
paths = (
{
closed = 1;
nodes = (
"0 0 LINE",
"212 0 LINE",
"292 165 LINE",
"604 165 LINE",
"641 825 LINE",
"447 825 LINE"
);
},
{
closed = 1;
nodes = (
"509 570 LINE",
"511 570 LINE",
"511 330 LINE",
"385 330 LINE"
);
}
);
width = 1064;
},
{
components = (
{
alignment = -1;
name = E;
transform = "{1, 0, 0, 1, 417, 0}";
}
);
layerId = "7B60DD57-6012-4D0F-BD38-A72A4BAC0E9D";
paths = (
{
closed = 1;
nodes = (
"0 0 LINE",
"76 0 LINE",
"199 214 LINE",
"541 214 LINE",
"541 825 LINE",
"471 825 LINE"
);
},
{
closed = 1;
nodes = (
"484 723 LINE",
"486 723 LINE",
"487 279 LINE",
"232 279 LINE"
);
}
);
width = 969;
}
);
rightKerningGroup = d;
unicode = 00C6;
},
{
glyphname = B;
lastChange = "2018-06-10 11:52:29 +0000";
layers = (
{
anchors = (
{
name = bottom;
position = "{338, 0}";
},
{
name = top;
position = "{338, 825}";
}
);
layerId = "A4E552E4-62BE-43BB-A58F-34F0EE3B77B8";
paths = (
{
closed = 1;
nodes = (
"65 0 LINE",
"382 0 LINE SMOOTH",
"553 0 OFFCURVE",
"648 94 OFFCURVE",
"648 230 CURVE SMOOTH",
"648 363 OFFCURVE",
"585 420 OFFCURVE",
"482 438 CURVE",
"553 455 OFFCURVE",
"613 518 OFFCURVE",
"613 615 CURVE SMOOTH",
"613 772 OFFCURVE",
"491 825 OFFCURVE",
"349 825 CURVE SMOOTH",
"65 825 LINE"
);
},
{
closed = 1;
nodes = (
"253 340 LINE",
"312 340 LINE SMOOTH",
"401 340 OFFCURVE",
"450 313 OFFCURVE",
"450 237 CURVE SMOOTH",
"450 172 OFFCURVE",
"401 145 OFFCURVE",
"312 145 CURVE SMOOTH",
"253 145 LINE"
);
},
{
closed = 1;
nodes = (
"253 680 LINE",
"306 680 LINE SMOOTH",
"388 680 OFFCURVE",
"427 655 OFFCURVE",
"427 596 CURVE SMOOTH",
"427 527 OFFCURVE",
"387 502 OFFCURVE",
"306 502 CURVE SMOOTH",
"253 502 LINE"
);
}
);
width = 691;
},
{
anchors = (
{
name = bottom;
position = "{302, 0}";
},
{
name = top;
position = "{302, 825}";
}
);
layerId = "7B60DD57-6012-4D0F-BD38-A72A4BAC0E9D";
paths = (
{
closed = 1;
nodes = (
"65 0 LINE",
"322 0 LINE SMOOTH",
"493 0 OFFCURVE",
"565 104 OFFCURVE",
"565 230 CURVE SMOOTH",
"565 357 OFFCURVE",
"456 419 OFFCURVE",
"397 424 CURVE",
"450 434 OFFCURVE",
"523 518 OFFCURVE",
"523 625 CURVE SMOOTH",
"523 782 OFFCURVE",
"401 825 OFFCURVE",
"269 825 CURVE SMOOTH",
"65 825 LINE"
);
},
{
closed = 1;
nodes = (
"133 390 LINE",
"312 390 LINE SMOOTH",
"441 390 OFFCURVE",
"497 313 OFFCURVE",
"497 227 CURVE SMOOTH",
"497 152 OFFCURVE",
"461 65 OFFCURVE",
"322 65 CURVE SMOOTH",
"133 65 LINE"
);
},
{
closed = 1;
nodes = (
"133 760 LINE",
"276 760 LINE SMOOTH",
"398 760 OFFCURVE",
"457 715 OFFCURVE",
"457 616 CURVE SMOOTH",
"457 537 OFFCURVE",
"407 452 OFFCURVE",
"296 452 CURVE SMOOTH",
"133 452 LINE"
);
}
);
width = 618;
}
);
rightKerningGroup = d;
unicode = 0042;
},
{
glyphname = C;
lastChange = "2018-06-10 11:52:29 +0000";
layers = (
{
anchors = (
{
name = bottom;
position = "{434, 0}";
},
{
name = top;
position = "{434, 825}";
}
);
layerId = "A4E552E4-62BE-43BB-A58F-34F0EE3B77B8";
paths = (
{
closed = 1;
nodes = (
"663 808 LINE",
"604 835 OFFCURVE",
"559 840 OFFCURVE",
"480 840 CURVE SMOOTH",
"239 840 OFFCURVE",
"28 654 OFFCURVE",
"28 413 CURVE SMOOTH",
"28 172 OFFCURVE",
"221 -15 OFFCURVE",
"480 -15 CURVE SMOOTH",
"550 -15 OFFCURVE",
"605 -11 OFFCURVE",
"663 15 CURVE",
"663 220 LINE",
"638 198 OFFCURVE",
"596 167 OFFCURVE",
"480 167 CURVE SMOOTH",
"317 167 OFFCURVE",
"239 290 OFFCURVE",
"239 413 CURVE SMOOTH",
"239 536 OFFCURVE",
"326 659 OFFCURVE",
"480 659 CURVE SMOOTH",
"595 659 OFFCURVE",
"638 626 OFFCURVE",
"663 603 CURVE"
);
}
);
width = 722;
},
{
anchors = (
{
name = bottom;
position = "{399, 0}";
},
{
name = top;
position = "{399, 825}";
}
);
layerId = "7B60DD57-6012-4D0F-BD38-A72A4BAC0E9D";
paths = (
{
closed = 1;
nodes = (
"593 803 LINE",
"557 825 OFFCURVE",
"507 840 OFFCURVE",
"420 840 CURVE SMOOTH",
"189 840 OFFCURVE",
"28 654 OFFCURVE",
"28 413 CURVE SMOOTH",
"28 172 OFFCURVE",
"171 -15 OFFCURVE",
"420 -15 CURVE SMOOTH",
"500 -15 OFFCURVE",
"563 5 OFFCURVE",
"593 25 CURVE",
"593 101 LINE",
"572 86 OFFCURVE",
"522 53 OFFCURVE",
"420 53 CURVE SMOOTH",
"267 53 OFFCURVE",
"103 170 OFFCURVE",
"103 413 CURVE SMOOTH",
"103 656 OFFCURVE",
"276 773 OFFCURVE",
"420 773 CURVE SMOOTH",
"525 773 OFFCURVE",
"574 740 OFFCURVE",
"593 727 CURVE"
);
}
);
width = 652;
}
);
leftKerningGroup = C;
rightKerningGroup = C;
unicode = 0043;
},
{
glyphname = C.ss01;
lastChange = "2018-06-10 11:52:29 +0000";
layers = (
{
layerId = "7B60DD57-6012-4D0F-BD38-A72A4BAC0E9D";
paths = (
{
closed = 1;
nodes = (
"259 48 OFFCURVE",
"102 202 OFFCURVE",
"102 413 CURVE SMOOTH",
"102 623 OFFCURVE",
"259 777 OFFCURVE",
"448 777 CURVE SMOOTH",
"604 777 OFFCURVE",
"686 704 OFFCURVE",
"686 704 CURVE",
"716 764 LINE",
"716 764 OFFCURVE",
"624 840 OFFCURVE",
"445 840 CURVE SMOOTH",
"211 840 OFFCURVE",
"28 648 OFFCURVE",
"28 411 CURVE SMOOTH",
"28 175 OFFCURVE",
"212 -15 OFFCURVE",
"445 -15 CURVE SMOOTH",
"624 -15 OFFCURVE",
"716 61 OFFCURVE",
"716 61 CURVE",
"686 121 LINE",
"686 121 OFFCURVE",
"604 48 OFFCURVE",
"448 48 CURVE SMOOTH"
);
}
);
width = 756;
},
{
layerId = "A4E552E4-62BE-43BB-A58F-34F0EE3B77B8";
paths = (
{
closed = 1;
nodes = (
"315 170 OFFCURVE",
"232 302 OFFCURVE",
"232 413 CURVE SMOOTH",
"232 523 OFFCURVE",
"315 655 OFFCURVE",
"504 655 CURVE SMOOTH",
"600 655 OFFCURVE",
"666 604 OFFCURVE",
"666 604 CURVE",
"746 764 LINE",
"746 764 OFFCURVE",
"654 840 OFFCURVE",
"475 840 CURVE SMOOTH",
"241 840 OFFCURVE",
"28 648 OFFCURVE",
"28 411 CURVE SMOOTH",
"28 175 OFFCURVE",
"242 -15 OFFCURVE",
"475 -15 CURVE SMOOTH",
"654 -15 OFFCURVE",
"746 61 OFFCURVE",
"746 61 CURVE",
"666 221 LINE",
"666 221 OFFCURVE",
"600 170 OFFCURVE",
"504 170 CURVE SMOOTH"
);
}
);
width = 786;
}
);
},
{
glyphname = D;
lastChange = "2018-06-10 11:52:29 +0000";
layers = (
{
anchors = (
{
name = bottom;
position = "{366, 0}";
},
{
name = center;
position = "{209, 413}";
},
{
name = top;
position = "{366, 825}";
}
);
layerId = "A4E552E4-62BE-43BB-A58F-34F0EE3B77B8";
paths = (
{
closed = 1;
nodes = (
"65 0 LINE",
"314 0 LINE SMOOTH",
"541 0 OFFCURVE",
"705 172 OFFCURVE",
"705 413 CURVE SMOOTH",
"705 653 OFFCURVE",
"540 825 OFFCURVE",
"314 825 CURVE SMOOTH",
"65 825 LINE"
);
},
{
closed = 1;
nodes = (
"292 657 LINE SMOOTH",
"432 657 OFFCURVE",
"507 550 OFFCURVE",
"507 412 CURVE SMOOTH",
"506 274 OFFCURVE",
"431 168 OFFCURVE",
"292 168 CURVE SMOOTH",
"253 168 LINE",
"253 657 LINE"
);
}
);
width = 747;
},
{
anchors = (
{
name = bottom;
position = "{323, 0}";
},
{
name = center;
position = "{115, 413}";
},
{
name = top;
position = "{323, 825}";
}
);
layerId = "7B60DD57-6012-4D0F-BD38-A72A4BAC0E9D";
paths = (
{
closed = 1;
nodes = (
"65 0 LINE",
"234 0 LINE SMOOTH",
"491 0 OFFCURVE",
"615 172 OFFCURVE",
"615 413 CURVE SMOOTH",
"615 653 OFFCURVE",
"490 825 OFFCURVE",
"234 825 CURVE SMOOTH",
"65 825 LINE"
);
},
{
closed = 1;
nodes = (
"212 757 LINE SMOOTH",
"432 757 OFFCURVE",
"548 630 OFFCURVE",
"547 412 CURVE SMOOTH",
"546 194 OFFCURVE",
"431 68 OFFCURVE",
"212 68 CURVE SMOOTH",
"133 68 LINE",
"133 757 LINE"
);
}
);
width = 660;
}
);
rightKerningGroup = d;
unicode = 0044;
},
{
glyphname = Eth;
lastChange = "2018-06-10 11:52:29 +0000";
layers = (
{
layerId = "A4E552E4-62BE-43BB-A58F-34F0EE3B77B8";
paths = (
{
closed = 1;
nodes = (
"103 825 LINE",
"103 489 LINE",
"21 489 LINE",
"21 336 LINE",
"103 336 LINE",
"103 0 LINE",
"342 0 LINE SMOOTH",
"568 0 OFFCURVE",
"757 171 OFFCURVE",
"758 412 CURVE SMOOTH",
"758 653 OFFCURVE",
"569 825 OFFCURVE",
"342 825 CURVE SMOOTH"
);
},
{
closed = 1;
nodes = (
"291 168 LINE",
"291 336 LINE",
"400 336 LINE",
"400 489 LINE",
"291 489 LINE",
"291 657 LINE",
"320 657 LINE SMOOTH",
"459 657 OFFCURVE",
"554 550 OFFCURVE",
"555 413 CURVE SMOOTH",
"555 275 OFFCURVE",
"460 168 OFFCURVE",
"320 168 CURVE SMOOTH"
);
}
);
width = 801;
},
{
layerId = "7B60DD57-6012-4D0F-BD38-A72A4BAC0E9D";
paths = (
{
closed = 1;
nodes = (
"155 825 LINE",
"155 439 LINE",
"21 439 LINE",
"21 386 LINE",
"155 386 LINE",
"155 0 LINE",
"324 0 LINE SMOOTH",
"581 0 OFFCURVE",
"705 172 OFFCURVE",
"705 413 CURVE SMOOTH",
"705 653 OFFCURVE",
"580 825 OFFCURVE",
"324 825 CURVE SMOOTH"
);
},
{
closed = 1;
nodes = (
"223 68 LINE",
"223 386 LINE",
"370 386 LINE",
"370 439 LINE",
"223 439 LINE",
"223 757 LINE",
"302 757 LINE SMOOTH",
"522 757 OFFCURVE",
"638 630 OFFCURVE",
"637 412 CURVE SMOOTH",
"636 194 OFFCURVE",
"521 68 OFFCURVE",
"302 68 CURVE SMOOTH"
);
}
);
width = 748;
}
);
rightKerningGroup = d;
unicode = 00D0;
},
{
glyphname = Dcroat;
lastChange = "2018-06-10 11:52:29 +0000";
layers = (
{
layerId = "A4E552E4-62BE-43BB-A58F-34F0EE3B77B8";
paths = (
{
closed = 1;
nodes = (
"342 0 LINE SMOOTH",
"569 0 OFFCURVE",
"758 172 OFFCURVE",
"758 413 CURVE SMOOTH",
"758 653 OFFCURVE",
"568 825 OFFCURVE",
"342 825 CURVE SMOOTH",
"103 825 LINE",
"103 489 LINE",
"21 489 LINE",
"21 336 LINE",
"103 336 LINE",
"103 0 LINE"
);
},
{
closed = 1;
nodes = (
"291 336 LINE",
"400 336 LINE",
"400 489 LINE",
"291 489 LINE",
"291 657 LINE",
"320 657 LINE SMOOTH",
"460 657 OFFCURVE",
"555 550 OFFCURVE",
"555 412 CURVE SMOOTH",
"554 274 OFFCURVE",
"459 168 OFFCURVE",
"320 168 CURVE SMOOTH",
"291 168 LINE"
);
}
);
width = 801;
},
{
layerId = "7B60DD57-6012-4D0F-BD38-A72A4BAC0E9D";
paths = (
{
closed = 1;
nodes = (
"324 0 LINE SMOOTH",
"581 0 OFFCURVE",
"705 172 OFFCURVE",
"705 413 CURVE SMOOTH",
"705 653 OFFCURVE",
"580 825 OFFCURVE",
"324 825 CURVE SMOOTH",
"155 825 LINE",
"155 439 LINE",
"21 439 LINE",
"21 386 LINE",
"155 386 LINE",
"155 0 LINE"
);
},
{
closed = 1;
nodes = (
"223 386 LINE",
"370 386 LINE",
"370 439 LINE",
"223 439 LINE",
"223 757 LINE",
"302 757 LINE SMOOTH",
"522 757 OFFCURVE",
"638 630 OFFCURVE",
"637 412 CURVE SMOOTH",
"636 194 OFFCURVE",
"521 68 OFFCURVE",
"302 68 CURVE SMOOTH",
"223 68 LINE"
);
}
);
width = 748;
}
);
rightKerningGroup = d;
unicode = 0110;
},
{
glyphname = E;
lastChange = "2018-06-10 11:52:29 +0000";
layers = (
{
anchors = (
{
name = bottom;
position = "{305, 0}";
},
{
name = ogonek;
position = "{545, 10}";
},
{
name = top;
position = "{305, 825}";
},
{
name = topleft;
position = "{25, 825}";
}
);
layerId = "A4E552E4-62BE-43BB-A58F-34F0EE3B77B8";
paths = (
{
closed = 1;
nodes = (
"65 0 LINE",
"557 0 LINE",
"557 165 LINE",
"253 165 LINE",
"253 331 LINE",
"545 331 LINE",
"545 496 LINE",
"253 496 LINE",
"253 660 LINE",
"557 660 LINE",
"557 825 LINE",
"65 825 LINE"
);
}
);
width = 625;
},
{
anchors = (
{
name = bottom;
position = "{281, 0}";
},
{
name = ogonek;
position = "{502, 10}";
},
{
name = top;
position = "{281, 825}";
},
{
name = topleft;
position = "{25, 825}";
}
);
layerId = "7B60DD57-6012-4D0F-BD38-A72A4BAC0E9D";
paths = (
{
closed = 1;
nodes = (
"75 0 LINE",
"497 0 LINE",
"497 65 LINE",
"143 65 LINE",
"143 381 LINE",
"485 381 LINE",
"485 446 LINE",
"143 446 LINE",
"143 760 LINE",
"497 760 LINE",
"497 825 LINE",
"75 825 LINE"
);
}
);
width = 577;
}
);
rightKerningGroup = E;
unicode = 0045;
},
{
glyphname = F;
lastChange = "2018-06-10 11:52:29 +0000";
layers = (
{
anchors = (
{
name = bottom;
position = "{289, 0}";
},
{
name = top;
position = "{289, 825}";
}
);
layerId = "A4E552E4-62BE-43BB-A58F-34F0EE3B77B8";
paths = (
{
closed = 1;
nodes = (
"65 0 LINE",
"253 0 LINE",
"253 331 LINE",
"520 331 LINE",
"520 496 LINE",
"253 496 LINE",
"253 660 LINE",
"542 660 LINE",
"542 825 LINE",
"65 825 LINE"
);
}
);
width = 592;
},
{
anchors = (
{
name = bottom;
position = "{254, 0}";
},
{
name = top;
position = "{254, 825}";
}
);
layerId = "7B60DD57-6012-4D0F-BD38-A72A4BAC0E9D";
paths = (
{
closed = 1;
nodes = (
"65 0 LINE",
"133 0 LINE",
"133 381 LINE",
"450 381 LINE",
"450 446 LINE",
"133 446 LINE",
"133 760 LINE",
"472 760 LINE",
"472 825 LINE",
"65 825 LINE"
);
}
);
width = 522;
}
);
rightKerningGroup = d;
unicode = 0046;
},
{
glyphname = G;
lastChange = "2018-06-10 11:52:29 +0000";
layers = (
{
anchors = (
{
name = bottom;
position = "{420, 0}";
},
{
name = top;
position = "{420, 825}";
}
);
layerId = "A4E552E4-62BE-43BB-A58F-34F0EE3B77B8";
paths = (
{
closed = 1;
nodes = (
"430 317 LINE",
"620 317 LINE",
"620 216 OFFCURVE",
"544 161 OFFCURVE",
"441 161 CURVE SMOOTH",
"325 161 OFFCURVE",
"231 272 OFFCURVE",
"231 412 CURVE SMOOTH",
"231 555 OFFCURVE",
"325 667 OFFCURVE",
"441 667 CURVE SMOOTH",
"514 667 OFFCURVE",
"577 641 OFFCURVE",
"625 564 CURVE",
"748 699 LINE",
"676 786 OFFCURVE",
"575 840 OFFCURVE",
"430 840 CURVE SMOOTH",
"198 840 OFFCURVE",
"28 649 OFFCURVE",
"28 412 CURVE SMOOTH",
"28 176 OFFCURVE",
"208 -15 OFFCURVE",
"430 -15 CURVE SMOOTH",
"779 -15 OFFCURVE",
"807 290 OFFCURVE",
"815 324 CURVE",
"815 462 LINE",
"430 462 LINE"
);
}
);
width = 854;
},
{
anchors = (
{
name = bottom;
position = "{390, 0}";
},
{
name = top;
position = "{390, 825}";
}
);
layerId = "7B60DD57-6012-4D0F-BD38-A72A4BAC0E9D";
paths = (
{
closed = 1;
nodes = (
"400 377 LINE",
"680 377 LINE",
"680 174 OFFCURVE",
"573 53 OFFCURVE",
"400 53 CURVE SMOOTH",
"221 53 OFFCURVE",
"101 202 OFFCURVE",
"101 412 CURVE SMOOTH",
"101 625 OFFCURVE",
"236 774 OFFCURVE",
"402 774 CURVE SMOOTH",
"541 774 OFFCURVE",
"603 710 OFFCURVE",
"631 683 CURVE",
"684 732 LINE",
"646 768 OFFCURVE",
"567 840 OFFCURVE",
"402 840 CURVE SMOOTH",
"180 840 OFFCURVE",
"28 649 OFFCURVE",
"28 412 CURVE SMOOTH",
"28 176 OFFCURVE",
"168 -15 OFFCURVE",
"400 -15 CURVE SMOOTH",
"749 -15 OFFCURVE",
"755 350 OFFCURVE",
"755 384 CURVE",
"755 442 LINE",
"400 442 LINE"
);
}
);
width = 794;
}
);
leftKerningGroup = G;
rightKerningGroup = d;
unicode = 0047;
},
{
glyphname = H;
lastChange = "2018-06-10 11:52:29 +0000";
layers = (
{
anchors = (
{
name = bottom;
position = "{386, 0}";
},
{
name = center;
position = "{386, 413}";
},
{
name = top;
position = "{386, 825}";
},
{
name = topleft;
position = "{25, 825}";
}
);
layerId = "A4E552E4-62BE-43BB-A58F-34F0EE3B77B8";
paths = (
{
closed = 1;
nodes = (
"519 0 LINE",
"707 0 LINE",
"707 825 LINE",
"519 825 LINE",
"519 496 LINE",
"253 496 LINE",
"253 825 LINE",
"65 825 LINE",
"65 0 LINE",
"253 0 LINE",
"253 331 LINE",
"519 331 LINE"
);
}
);
width = 787;
},
{
anchors = (
{
name = bottom;
position = "{331, 0}";
},
{
name = center;
position = "{331, 413}";
},
{
name = top;
position = "{331, 825}";
},
{
name = topleft;
position = "{25, 825}";
}
);
layerId = "7B60DD57-6012-4D0F-BD38-A72A4BAC0E9D";
paths = (
{
closed = 1;
nodes = (
"529 0 LINE",
"597 0 LINE",
"597 825 LINE",
"529 825 LINE",
"529 446 LINE",
"133 446 LINE",
"133 825 LINE",
"65 825 LINE",
"65 0 LINE",
"133 0 LINE",
"133 381 LINE",
"529 381 LINE"
);
}
);
width = 677;
}
);
rightKerningGroup = d;
unicode = 0048;
},
{
glyphname = Hbar;
lastChange = "2018-06-10 11:52:29 +0000";
layers = (
{
components = (
{
name = H;
transform = "{1, 0, 0, 1, 10, 0}";
}
);
layerId = "7B60DD57-6012-4D0F-BD38-A72A4BAC0E9D";
paths = (
{
closed = 1;
nodes = (
"4 628 LINE",
"666 628 LINE",
"666 678 LINE",
"4 678 LINE"
);
}
);
width = 677;
},
{
components = (
{
name = H;
transform = "{1, 0, 0, 1, 10, 0}";
}
);
layerId = "A4E552E4-62BE-43BB-A58F-34F0EE3B77B8";
paths = (
{
closed = 1;
nodes = (
"4 578 LINE",
"766 578 LINE",
"766 718 LINE",
"4 718 LINE"
);
}
);
width = 787;
}
);
unicode = 0126;
},
{
glyphname = I;
lastChange = "2018-06-10 11:52:29 +0000";
layers = (
{
anchors = (
{
name = bottom;
position = "{159, 0}";
},
{
name = ogonek;
position = "{282, 10}";
},
{
name = top;
position = "{159, 825}";
},
{
name = topleft;
position = "{25, 825}";
}
);
layerId = "A4E552E4-62BE-43BB-A58F-34F0EE3B77B8";
paths = (
{
closed = 1;
nodes = (
"65 0 LINE",
"253 0 LINE",
"253 825 LINE",
"65 825 LINE"
);
}
);
width = 333;
},
{
anchors = (
{
name = bottom;
position = "{109, 0}";
},
{
name = ogonek;
position = "{192, 10}";
},
{
name = top;
position = "{109, 825}";
},
{
name = topleft;
position = "{25, 825}";
}
);
layerId = "7B60DD57-6012-4D0F-BD38-A72A4BAC0E9D";
paths = (
{
closed = 1;
nodes = (
"75 0 LINE",
"143 0 LINE",
"143 825 LINE",
"75 825 LINE"
);
}
);
width = 233;
}
);
leftKerningGroup = i;
rightKerningGroup = d;
unicode = 0049;
},
{
glyphname = J;
lastChange = "2018-06-10 11:52:29 +0000";
layers = (
{
anchors = (
{
name = bottom;
position = "{240, 0}";
},
{
name = top;
position = "{240, 825}";
}
);
layerId = "A4E552E4-62BE-43BB-A58F-34F0EE3B77B8";
paths = (
{
closed = 1;
nodes = (
"424 825 LINE",
"236 825 LINE",
"236 281 LINE SMOOTH",
"236 198 OFFCURVE",
"195 165 OFFCURVE",
"141 165 CURVE SMOOTH",
"93 165 OFFCURVE",
"34 221 OFFCURVE",
"34 221 CURVE",
"-26 64 LINE",
"-26 64 OFFCURVE",
"49 -15 OFFCURVE",
"167 -15 CURVE SMOOTH",
"332 -15 OFFCURVE",
"424 71 OFFCURVE",
"424 233 CURVE SMOOTH"
);
}
);
width = 494;
},
{
anchors = (
{
name = bottom;
position = "{215, 0}";
},
{
name = top;
position = "{215, 825}";
}
);
layerId = "7B60DD57-6012-4D0F-BD38-A72A4BAC0E9D";
paths = (
{
closed = 1;
nodes = (
"374 825 LINE",
"306 825 LINE",
"306 241 LINE SMOOTH",
"306 158 OFFCURVE",
"301 45 OFFCURVE",
"171 45 CURVE SMOOTH",
"59 45 OFFCURVE",
"1 129 OFFCURVE",
"1 129 CURVE",
"-28 61 LINE",
"-28 61 OFFCURVE",
"39 -15 OFFCURVE",
"169 -15 CURVE SMOOTH",
"334 -15 OFFCURVE",
"374 91 OFFCURVE",
"374 253 CURVE SMOOTH"
);
}
);
width = 444;
}
);
rightKerningGroup = d;
unicode = 004A;
},
{
glyphname = K;
lastChange = "2018-06-10 11:52:29 +0000";
layers = (
{
anchors = (
{
name = bottom;
position = "{386, 0}";
},
{
name = top;
position = "{386, 825}";
}
);
layerId = "A4E552E4-62BE-43BB-A58F-34F0EE3B77B8";
paths = (
{
closed = 1;
nodes = (
"734 825 LINE",
"506 825 LINE",
"253 488 LINE",
"253 825 LINE",
"65 825 LINE",
"65 0 LINE",
"253 0 LINE",
"253 360 LINE",
"527 0 LINE",
"766 0 LINE",
"422 434 LINE"
);
}
);
width = 786;
},
{
anchors = (
{
name = bottom;
position = "{281, 0}";
},
{
name = top;
position = "{281, 825}";
}
);
layerId = "7B60DD57-6012-4D0F-BD38-A72A4BAC0E9D";
paths = (
{
closed = 1;
nodes = (
"534 825 LINE",
"446 825 LINE",
"133 428 LINE",
"133 825 LINE",
"65 825 LINE",
"65 0 LINE",
"133 0 LINE",
"133 390 LINE",
"467 0 LINE",
"556 0 LINE",
"202 414 LINE"
);
}
);
width = 576;
}
);
rightKerningGroup = d;
unicode = 004B;
},
{
glyphname = L;
lastChange = "2018-06-10 11:52:29 +0000";
layers = (
{
anchors = (
{
name = bottom;
position = "{288, 0}";
},
{
name = center;
position = "{191, 413}";
},
{
name = top;
position = "{288, 825}";
},
{
name = topright;
position = "{550, 825}";
}
);
layerId = "A4E552E4-62BE-43BB-A58F-34F0EE3B77B8";
paths = (
{
closed = 1;
nodes = (
"65 0 LINE",
"537 0 LINE",
"537 165 LINE",
"253 165 LINE",
"253 825 LINE",
"65 825 LINE"
);
}
);
width = 590;
},
{
anchors = (
{
name = bottom;
position = "{253, 0}";
},
{
name = center;
position = "{112, 413}";
},
{
name = top;
position = "{253, 825}";
},
{
name = topright;
position = "{480, 825}";
}
);
layerId = "7B60DD57-6012-4D0F-BD38-A72A4BAC0E9D";
paths = (
{
closed = 1;
nodes = (
"65 0 LINE",
"467 0 LINE",
"467 65 LINE",
"133 65 LINE",
"133 825 LINE",
"65 825 LINE"
);
}
);
width = 520;
}
);
rightKerningGroup = L;
unicode = 004C;
},
{
glyphname = Lslash;
lastChange = "2018-06-10 11:52:29 +0000";
layers = (
{
layerId = "A4E552E4-62BE-43BB-A58F-34F0EE3B77B8";
paths = (
{
closed = 1;
nodes = (
"573 0 LINE",
"573 165 LINE",
"289 165 LINE",
"289 457 LINE",
"394 540 LINE",
"394 693 LINE",
"289 610 LINE",
"289 825 LINE",
"101 825 LINE",
"101 462 LINE",
"25 403 LINE",
"25 250 LINE",
"101 309 LINE",
"101 0 LINE"
);
}
);
width = 626;
},
{
layerId = "7B60DD57-6012-4D0F-BD38-A72A4BAC0E9D";
paths = (
{
closed = 1;
nodes = (
"517 0 LINE",
"517 65 LINE",
"183 65 LINE",
"183 444 LINE",
"262 506 LINE",
"262 589 LINE",
"183 527 LINE",
"183 825 LINE",
"115 825 LINE",
"115 474 LINE",
"25 403 LINE",
"25 320 LINE",
"115 391 LINE",
"115 0 LINE"
);
}
);
width = 570;
}
);
rightKerningGroup = L;
unicode = 0141;
},
{
glyphname = M;
lastChange = "2018-06-10 11:52:29 +0000";
layers = (
{
anchors = (
{
name = bottom;
position = "{459, 0}";
},
{
name = top;
position = "{459, 825}";
}
);
layerId = "A4E552E4-62BE-43BB-A58F-34F0EE3B77B8";
paths = (
{
closed = 1;
nodes = (
"675 825 LINE",
"460 301 LINE",
"454 279 LINE",
"448 301 LINE",
"233 825 LINE",
"35 825 LINE",
"35 0 LINE",
"223 0 LINE",
"223 461 LINE",
"231 423 LINE",
"388 0 LINE",
"520 0 LINE",
"677 423 LINE",
"685 461 LINE",
"685 0 LINE",
"873 0 LINE",
"873 825 LINE"
);
}
);
width = 933;
},
{
anchors = (
{
name = bottom;
position = "{399, 0}";
},
{
name = top;
position = "{399, 825}";
}
);
layerId = "7B60DD57-6012-4D0F-BD38-A72A4BAC0E9D";
paths = (
{
closed = 1;
nodes = (
"665 825 LINE",
"400 121 LINE",
"394 99 LINE",
"388 121 LINE",
"123 825 LINE",
"55 825 LINE",
"55 0 LINE",
"123 0 LINE",
"123 641 LINE",
"131 603 LINE",
"368 0 LINE",
"420 0 LINE",
"657 603 LINE",
"665 641 LINE",
"665 0 LINE",
"733 0 LINE",
"733 825 LINE"
);
}
);
width = 813;
}
);
rightKerningGroup = d;
unicode = 004D;
},
{
glyphname = N;
lastChange = "2018-06-10 11:52:29 +0000";
layers = (
{
anchors = (
{
name = bottom;
position = "{418, 0}";
},
{
name = top;
position = "{418, 825}";
}
);
layerId = "A4E552E4-62BE-43BB-A58F-34F0EE3B77B8";
paths = (
{
closed = 1;
nodes = (
"583 0 LINE",
"771 0 LINE",
"771 825 LINE",
"583 825 LINE",
"583 313 LINE",
"581 313 LINE",
"253 825 LINE",
"65 825 LINE",
"65 0 LINE",
"253 0 LINE",
"253 512 LINE",
"255 512 LINE"
);
}
);
width = 851;
},
{
anchors = (
{
name = bottom;
position = "{358, 0}";
},
{
name = top;
position = "{358, 825}";
}
);
layerId = "7B60DD57-6012-4D0F-BD38-A72A4BAC0E9D";
paths = (
{
closed = 1;
nodes = (
"583 0 LINE",
"651 0 LINE",
"651 825 LINE",
"583 825 LINE",
"583 125 LINE",
"581 125 LINE",
"133 825 LINE",
"65 825 LINE",
"65 0 LINE",
"133 0 LINE",
"133 695 LINE",
"135 695 LINE"
);
}
);
width = 731;
}
);
rightKerningGroup = d;
unicode = 004E;
},
{
glyphname = Eng;
lastChange = "2018-06-10 11:52:29 +0000";
layers = (
{
components = (
{
name = N;
transform = "{1, 0, 0, 1, 10, 0}";
}
);
layerId = "7B60DD57-6012-4D0F-BD38-A72A4BAC0E9D";
paths = (
{
closed = 1;
nodes = (
"651 -79 LINE SMOOTH",
"651 -180 OFFCURVE",
"623 -275 OFFCURVE",
"516 -275 CURVE SMOOTH",
"462 -275 OFFCURVE",
"428 -255 OFFCURVE",
"425 -253 CURVE",
"455 -190 LINE",
"455 -190 OFFCURVE",
"472 -213 OFFCURVE",
"514 -213 CURVE SMOOTH",
"574 -213 OFFCURVE",
"583 -143 OFFCURVE",
"583 -45 CURVE SMOOTH",
"583 0 LINE",
"651 0 LINE"
);
}
);
width = 731;
},
{
components = (
{
name = N;
transform = "{1, 0, 0, 1, 10, 0}";
}
);
layerId = "A4E552E4-62BE-43BB-A58F-34F0EE3B77B8";
paths = (
{
closed = 1;
nodes = (
"771 -79 LINE SMOOTH",
"771 -170 OFFCURVE",
"727 -275 OFFCURVE",
"575 -275 CURVE SMOOTH",
"491 -275 OFFCURVE",
"459 -254 OFFCURVE",
"434 -243 CURVE",
"489 -100 LINE",
"489 -100 OFFCURVE",
"512 -115 OFFCURVE",
"534 -115 CURVE SMOOTH",
"564 -115 OFFCURVE",
"583 -93 OFFCURVE",
"583 -45 CURVE SMOOTH",
"583 0 LINE",
"771 0 LINE"
);
}
);
width = 851;
}
);
unicode = 014A;
},
{
glyphname = O;
lastChange = "2018-06-10 11:52:29 +0000";
layers = (
{
anchors = (
{
name = bottom;
position = "{444, 0}";
},
{
name = center;
position = "{444, 413}";
},
{
name = ogonek;
position = "{794, 10}";
},
{
name = top;
position = "{444, 825}";
},
{
name = topleft;
position = "{25, 825}";
},
{
name = topright;
position = "{862, 825}";
}
);
layerId = "A4E552E4-62BE-43BB-A58F-34F0EE3B77B8";
paths = (
{
closed = 1;
nodes = (
"231 536 OFFCURVE",
"299 659 OFFCURVE",
"444 659 CURVE SMOOTH",
"590 659 OFFCURVE",
"656 536 OFFCURVE",
"656 413 CURVE SMOOTH",
"656 290 OFFCURVE",
"594 167 OFFCURVE",
"444 167 CURVE SMOOTH",
"290 167 OFFCURVE",
"231 290 OFFCURVE",
"231 413 CURVE SMOOTH"
);
},
{
closed = 1;
nodes = (
"28 172 OFFCURVE",
"200 -15 OFFCURVE",
"444 -15 CURVE SMOOTH",
"681 -15 OFFCURVE",
"859 172 OFFCURVE",
"859 413 CURVE SMOOTH",
"859 654 OFFCURVE",
"673 840 OFFCURVE",
"444 840 CURVE SMOOTH",
"217 840 OFFCURVE",
"28 654 OFFCURVE",
"28 413 CURVE SMOOTH"
);
}
);
width = 902;
},
{
anchors = (
{
name = bottom;
position = "{414, 0}";
},
{
name = center;
position = "{414, 413}";
},
{
name = ogonek;
position = "{740, 10}";
},
{
name = top;
position = "{414, 825}";
},
{
name = topleft;
position = "{25, 825}";
},
{
name = topright;
position = "{802, 825}";
}
);
layerId = "7B60DD57-6012-4D0F-BD38-A72A4BAC0E9D";
paths = (
{
closed = 1;
nodes = (
"101 606 OFFCURVE",
"219 779 OFFCURVE",
"414 779 CURVE SMOOTH",
"610 779 OFFCURVE",
"726 606 OFFCURVE",
"726 413 CURVE SMOOTH",
"726 220 OFFCURVE",
"614 47 OFFCURVE",
"414 47 CURVE SMOOTH",
"210 47 OFFCURVE",
"101 220 OFFCURVE",
"101 413 CURVE SMOOTH"
);
},
{
closed = 1;
nodes = (
"28 172 OFFCURVE",
"170 -15 OFFCURVE",
"414 -15 CURVE SMOOTH",
"651 -15 OFFCURVE",
"799 172 OFFCURVE",
"799 413 CURVE SMOOTH",
"799 654 OFFCURVE",
"643 840 OFFCURVE",
"414 840 CURVE SMOOTH",
"187 840 OFFCURVE",
"28 654 OFFCURVE",
"28 413 CURVE SMOOTH"
);
}
);
width = 842;
}
);
leftKerningGroup = O;
rightKerningGroup = O;
unicode = 004F;
},
{
glyphname = Oslash;
lastChange = "2018-06-10 11:52:29 +0000";
layers = (
{
layerId = "A4E552E4-62BE-43BB-A58F-34F0EE3B77B8";
paths = (
{
closed = 1;
nodes = (
"235 38 LINE",
"295 4 OFFCURVE",
"366 -15 OFFCURVE",
"444 -15 CURVE SMOOTH",
"681 -15 OFFCURVE",
"859 172 OFFCURVE",
"859 413 CURVE SMOOTH",
"859 522 OFFCURVE",
"820 620 OFFCURVE",
"757 694 CURVE",
"815 767 LINE",
"703 853 LINE",
"649 785 LINE",
"588 820 OFFCURVE",
"518 840 OFFCURVE",
"444 840 CURVE SMOOTH",
"217 840 OFFCURVE",
"28 654 OFFCURVE",
"28 413 CURVE SMOOTH",
"28 302 OFFCURVE",
"64 203 OFFCURVE",
"127 128 CURVE",
"72 59 LINE",
"184 -27 LINE"
);
},
{
closed = 1;
nodes = (
"408 167 OFFCURVE",
"378 173 OFFCURVE",
"352 185 CURVE",
"631 536 LINE",
"648 498 OFFCURVE",
"656 455 OFFCURVE",
"656 413 CURVE SMOOTH",
"656 290 OFFCURVE",
"594 167 OFFCURVE",
"444 167 CURVE SMOOTH"
);
},
{
closed = 1;
nodes = (
"238 326 OFFCURVE",
"231 370 OFFCURVE",
"231 413 CURVE SMOOTH",
"231 536 OFFCURVE",
"299 659 OFFCURVE",
"444 659 CURVE SMOOTH",
"478 659 OFFCURVE",
"508 652 OFFCURVE",
"533 640 CURVE",
"254 288 LINE"
);
}
);
width = 902;
},
{
layerId = "7B60DD57-6012-4D0F-BD38-A72A4BAC0E9D";
paths = (
{
closed = 1;
nodes = (
"177 63 LINE",
"238 14 OFFCURVE",
"318 -15 OFFCURVE",
"414 -15 CURVE SMOOTH",
"651 -15 OFFCURVE",
"799 172 OFFCURVE",
"799 413 CURVE SMOOTH",
"799 532 OFFCURVE",
"761 637 OFFCURVE",
"695 714 CURVE",
"760 795 LINE",
"716 829 LINE",
"656 753 LINE",
"592 808 OFFCURVE",
"509 840 OFFCURVE",
"414 840 CURVE SMOOTH",
"187 840 OFFCURVE",
"28 654 OFFCURVE",
"28 413 CURVE SMOOTH",
"28 289 OFFCURVE",
"66 179 OFFCURVE",
"136 101 CURVE",
"75 25 LINE",
"119 -9 LINE"
);
},
{
closed = 1;
nodes = (
"334 47 OFFCURVE",
"269 73 OFFCURVE",
"219 117 CURVE",
"651 658 LINE",
"700 592 OFFCURVE",
"726 505 OFFCURVE",
"726 413 CURVE SMOOTH",
"726 220 OFFCURVE",
"614 47 OFFCURVE",
"414 47 CURVE SMOOTH"
);
},
{
closed = 1;
nodes = (
"128 225 OFFCURVE",
"101 317 OFFCURVE",
"101 413 CURVE SMOOTH",
"101 606 OFFCURVE",
"219 779 OFFCURVE",
"414 779 CURVE SMOOTH",
"495 779 OFFCURVE",
"563 749 OFFCURVE",
"614 701 CURVE",
"181 158 LINE"
);
}
);
width = 842;
}
);
leftKerningGroup = O;
rightKerningGroup = O;
unicode = 00D8;
},
{
glyphname = OE;
lastChange = "2018-06-10 11:52:29 +0000";
layers = (
{
anchors = (
{
name = bottom;
position = "{510, 0}";
},
{
name = top;
position = "{510, 825}";
}
);
layerId = "A4E552E4-62BE-43BB-A58F-34F0EE3B77B8";
paths = (
{
closed = 1;
nodes = (
"967 0 LINE",
"967 165 LINE",
"683 165 LINE",
"683 331 LINE",
"955 331 LINE",
"955 496 LINE",
"683 496 LINE",
"683 660 LINE",
"967 660 LINE",
"967 825 LINE",
"444 825 LINE SMOOTH",
"217 825 OFFCURVE",
"28 653 OFFCURVE",
"28 412 CURVE SMOOTH",
"28 171 OFFCURVE",
"217 0 OFFCURVE",
"444 0 CURVE SMOOTH"
);
},
{
closed = 1;
nodes = (
"326 168 OFFCURVE",
"231 275 OFFCURVE",
"231 413 CURVE SMOOTH",
"231 550 OFFCURVE",
"326 657 OFFCURVE",
"466 657 CURVE SMOOTH",
"495 657 LINE",
"495 168 LINE",
"466 168 LINE SMOOTH"
);
}
);
width = 1035;
},
{
anchors = (
{
name = bottom;
position = "{465, 0}";
},
{
name = top;
position = "{465, 825}";
}
);
layerId = "7B60DD57-6012-4D0F-BD38-A72A4BAC0E9D";
paths = (
{
closed = 1;
nodes = (
"876 0 LINE",
"876 65 LINE",
"522 65 LINE",
"522 381 LINE",
"864 381 LINE",
"864 446 LINE",
"522 446 LINE",
"522 760 LINE",
"876 760 LINE",
"876 825 LINE",
"414 825 LINE SMOOTH",
"187 825 OFFCURVE",
"28 654 OFFCURVE",
"28 413 CURVE SMOOTH",
"28 172 OFFCURVE",
"170 0 OFFCURVE",
"414 0 CURVE SMOOTH"
);
},
{
closed = 1;
nodes = (
"210 62 OFFCURVE",
"101 220 OFFCURVE",
"101 413 CURVE SMOOTH",
"101 606 OFFCURVE",
"219 764 OFFCURVE",
"414 764 CURVE SMOOTH",
"454 764 LINE",
"454 62 LINE",
"414 62 LINE SMOOTH"
);
}
);
width = 944;
}
);
rightKerningGroup = d;
unicode = 0152;
},
{
glyphname = P;
lastChange = "2018-06-10 11:52:29 +0000";
layers = (
{
anchors = (
{
name = bottom;
position = "{338, 0}";
},
{
name = top;
position = "{338, 825}";
}
);
layerId = "A4E552E4-62BE-43BB-A58F-34F0EE3B77B8";
paths = (
{
closed = 1;
nodes = (
"65 0 LINE",
"253 0 LINE",
"253 306 LINE",
"366 306 LINE SMOOTH",
"527 306 OFFCURVE",
"648 401 OFFCURVE",
"648 571 CURVE SMOOTH",
"648 742 OFFCURVE",
"527 825 OFFCURVE",
"366 825 CURVE SMOOTH",
"65 825 LINE"
);
},
{
closed = 1;
nodes = (
"253 675 LINE",
"306 675 LINE SMOOTH",
"380 675 OFFCURVE",
"450 650 OFFCURVE",
"450 565 CURVE SMOOTH",
"450 481 OFFCURVE",
"380 456 OFFCURVE",
"306 456 CURVE SMOOTH",
"253 456 LINE"
);
}
);
width = 691;
},
{
anchors = (
{
name = bottom;
position = "{288, 0}";
},
{
name = top;
position = "{288, 825}";
}
);
layerId = "7B60DD57-6012-4D0F-BD38-A72A4BAC0E9D";
paths = (
{
closed = 1;
nodes = (
"75 0 LINE",
"143 0 LINE",
"143 336 LINE",
"276 336 LINE SMOOTH",
"437 336 OFFCURVE",
"548 414 OFFCURVE",
"548 584 CURVE SMOOTH",
"548 755 OFFCURVE",
"437 825 OFFCURVE",
"276 825 CURVE SMOOTH",
"75 825 LINE"
);
},
{
closed = 1;
nodes = (
"143 760 LINE",
"256 760 LINE SMOOTH",
"360 760 OFFCURVE",
"484 734 OFFCURVE",
"484 584 CURVE SMOOTH",
"484 432 OFFCURVE",
"360 401 OFFCURVE",
"256 401 CURVE SMOOTH",
"143 401 LINE"
);
}
);
width = 591;
}
);
rightKerningGroup = d;
unicode = 0050;
},
{
glyphname = Thorn;
lastChange = "2018-06-10 11:52:29 +0000";
layers = (
{
layerId = "A4E552E4-62BE-43BB-A58F-34F0EE3B77B8";
paths = (
{
closed = 1;
nodes = (
"65 0 LINE",
"253 0 LINE",
"253 153 LINE",
"366 153 LINE SMOOTH",
"527 153 OFFCURVE",
"648 248 OFFCURVE",
"648 418 CURVE SMOOTH",
"648 589 OFFCURVE",
"527 672 OFFCURVE",
"366 672 CURVE SMOOTH",
"253 672 LINE",
"253 825 LINE",
"65 825 LINE"
);
},
{
closed = 1;
nodes = (
"253 522 LINE",
"306 522 LINE SMOOTH",
"380 522 OFFCURVE",
"445 496 OFFCURVE",
"445 412 CURVE SMOOTH",
"445 329 OFFCURVE",
"380 303 OFFCURVE",
"306 303 CURVE SMOOTH",
"253 303 LINE"
);
}
);
width = 691;
},
{
layerId = "7B60DD57-6012-4D0F-BD38-A72A4BAC0E9D";
paths = (
{
closed = 1;
nodes = (
"65 0 LINE",
"133 0 LINE",
"133 153 LINE",
"276 153 LINE SMOOTH",
"437 153 OFFCURVE",
"538 248 OFFCURVE",
"538 418 CURVE SMOOTH",
"538 589 OFFCURVE",
"437 672 OFFCURVE",
"276 672 CURVE SMOOTH",
"133 672 LINE",
"133 825 LINE",
"65 825 LINE"
);
},
{
closed = 1;
nodes = (
"133 607 LINE",
"286 607 LINE SMOOTH",
"400 607 OFFCURVE",
"475 552 OFFCURVE",
"475 418 CURVE SMOOTH",
"475 285 OFFCURVE",
"400 218 OFFCURVE",
"286 218 CURVE SMOOTH",
"133 218 LINE"
);
}
);
width = 581;
}
);
rightKerningGroup = d;
unicode = 00DE;
},
{
glyphname = Q;
lastChange = "2018-06-10 11:52:29 +0000";
layers = (
{
anchors = (
{
name = bottom;
position = "{439, 0}";
},
{
name = top;
position = "{439, 825}";
}
);
layerId = "A4E552E4-62BE-43BB-A58F-34F0EE3B77B8";
paths = (
{
closed = 1;
nodes = (
"820 -205 OFFCURVE",
"873 -93 OFFCURVE",
"873 -93 CURVE",
"814 34 LINE",
"814 34 OFFCURVE",
"775 -20 OFFCURVE",
"690 -20 CURVE SMOOTH",
"641 -20 OFFCURVE",
"581 -1 OFFCURVE",
"562 -1 CURVE",
"733 51 OFFCURVE",
"849 216 OFFCURVE",
"849 413 CURVE SMOOTH",
"849 654 OFFCURVE",
"668 840 OFFCURVE",
"439 840 CURVE SMOOTH",
"212 840 OFFCURVE",
"28 654 OFFCURVE",
"28 413 CURVE SMOOTH",
"28 201 OFFCURVE",
"157 31 OFFCURVE",
"353 -7 CURVE",
"293 -7 OFFCURVE",
"221 -105 OFFCURVE",
"221 -105 CURVE",
"266 -173 LINE",
"266 -173 OFFCURVE",
"310 -127 OFFCURVE",
"388 -127 CURVE SMOOTH",
"515 -127 OFFCURVE",
"566 -205 OFFCURVE",
"689 -205 CURVE SMOOTH"
);
},
{
closed = 1;
nodes = (
"285 175 OFFCURVE",
"231 290 OFFCURVE",
"231 413 CURVE SMOOTH",
"231 536 OFFCURVE",
"294 651 OFFCURVE",
"439 651 CURVE SMOOTH",
"585 651 OFFCURVE",
"646 536 OFFCURVE",
"646 413 CURVE SMOOTH",
"646 290 OFFCURVE",
"589 175 OFFCURVE",
"439 175 CURVE SMOOTH"
);
}
);
width = 892;
},
{
anchors = (
{
name = bottom;
position = "{401, 0}";
},
{
name = top;
position = "{401, 825}";
}
);
layerId = "7B60DD57-6012-4D0F-BD38-A72A4BAC0E9D";
paths = (
{
closed = 1;
nodes = (
"772 -119 OFFCURVE",
"813 -79 OFFCURVE",
"813 -79 CURVE",
"776 -14 LINE",
"776 -14 OFFCURVE",
"734 -49 OFFCURVE",
"659 -49 CURVE SMOOTH",
"597 -49 OFFCURVE",
"566 -19 OFFCURVE",
"498 -7 CURVE",
"685 32 OFFCURVE",
"799 202 OFFCURVE",
"799 413 CURVE SMOOTH",
"799 654 OFFCURVE",
"643 840 OFFCURVE",
"414 840 CURVE SMOOTH",
"187 840 OFFCURVE",
"28 654 OFFCURVE",
"28 413 CURVE SMOOTH",
"28 197 OFFCURVE",
"142 25 OFFCURVE",
"341 -9 CURVE",
"277 -28 OFFCURVE",
"231 -75 OFFCURVE",
"231 -75 CURVE",
"265 -116 LINE",
"265 -116 OFFCURVE",
"324 -57 OFFCURVE",
"402 -57 CURVE SMOOTH",
"509 -57 OFFCURVE",
"548 -119 OFFCURVE",
"661 -119 CURVE SMOOTH"
);
},
{
closed = 1;
nodes = (
"210 47 OFFCURVE",
"101 220 OFFCURVE",
"101 413 CURVE SMOOTH",
"101 606 OFFCURVE",
"219 779 OFFCURVE",
"414 779 CURVE SMOOTH",
"610 779 OFFCURVE",
"726 606 OFFCURVE",
"726 413 CURVE SMOOTH",
"726 220 OFFCURVE",
"614 47 OFFCURVE",
"414 47 CURVE SMOOTH"
);
}
);
width = 816;
}
);
rightKerningGroup = d;
unicode = 0051;
},
{
glyphname = Q.ss01;
lastChange = "2018-06-10 11:52:29 +0000";
layers = (
{
anchors = (
{
name = bottom;
position = "{443, 0}";
},
{
name = top;
position = "{443, 825}";
}
);
layerId = "A4E552E4-62BE-43BB-A58F-34F0EE3B77B8";
paths = (
{
closed = 1;
nodes = (
"231 536 OFFCURVE",
"299 659 OFFCURVE",
"444 659 CURVE SMOOTH",
"590 659 OFFCURVE",
"656 536 OFFCURVE",
"656 413 CURVE SMOOTH",
"656 290 OFFCURVE",
"594 167 OFFCURVE",
"444 167 CURVE SMOOTH",
"290 167 OFFCURVE",
"231 290 OFFCURVE",
"231 413 CURVE SMOOTH"
);
},
{
closed = 1;
nodes = (
"28 172 OFFCURVE",
"200 -15 OFFCURVE",
"444 -15 CURVE SMOOTH",
"681 -15 OFFCURVE",
"859 172 OFFCURVE",
"859 413 CURVE SMOOTH",
"859 654 OFFCURVE",
"673 840 OFFCURVE",
"444 840 CURVE SMOOTH",
"217 840 OFFCURVE",
"28 654 OFFCURVE",
"28 413 CURVE SMOOTH"
);
},
{
closed = 1;
nodes = (
"660 -104 LINE",
"865 -104 LINE",
"636 288 LINE",
"431 288 LINE"
);
}
);
width = 900;
},
{
anchors = (
{
name = bottom;
position = "{413, 0}";
},
{
name = top;
position = "{413, 825}";
}
);
layerId = "7B60DD57-6012-4D0F-BD38-A72A4BAC0E9D";
paths = (
{
closed = 1;
nodes = (
"102 649 OFFCURVE",
"249 775 OFFCURVE",
"404 775 CURVE SMOOTH",
"560 775 OFFCURVE",
"705 649 OFFCURVE",
"705 413 CURVE SMOOTH",
"705 177 OFFCURVE",
"564 51 OFFCURVE",
"404 51 CURVE SMOOTH",
"240 51 OFFCURVE",
"102 177 OFFCURVE",
"102 413 CURVE SMOOTH"
);
},
{
closed = 1;
nodes = (
"28 112 OFFCURVE",
"210 -15 OFFCURVE",
"404 -15 CURVE SMOOTH",
"591 -15 OFFCURVE",
"779 112 OFFCURVE",
"779 413 CURVE SMOOTH",
"779 714 OFFCURVE",
"583 840 OFFCURVE",
"404 840 CURVE SMOOTH",
"227 840 OFFCURVE",
"28 714 OFFCURVE",
"28 413 CURVE SMOOTH"
);
},
{
closed = 1;
nodes = (
"675 -104 LINE",
"760 -104 LINE",
"531 288 LINE",
"446 288 LINE"
);
}
);
width = 840;
}
);
},
{
glyphname = Q.ss02;
lastChange = "2018-06-10 11:52:29 +0000";
layers = (
{
anchors = (
{
name = bottom;
position = "{443, 0}";
},
{
name = top;
position = "{443, 825}";
}
);
layerId = "A4E552E4-62BE-43BB-A58F-34F0EE3B77B8";
paths = (
{
closed = 1;
nodes = (
"525 -15 OFFCURVE",
"603 9 OFFCURVE",
"667 53 CURVE",
"704 27 OFFCURVE",
"757 -3 OFFCURVE",
"818 -26 CURVE",
"901 142 LINE",
"852 155 OFFCURVE",
"815 169 OFFCURVE",
"788 182 CURVE",
"827 248 OFFCURVE",
"849 327 OFFCURVE",
"849 413 CURVE SMOOTH",
"849 654 OFFCURVE",
"668 840 OFFCURVE",
"439 840 CURVE SMOOTH",
"212 840 OFFCURVE",
"28 654 OFFCURVE",
"28 413 CURVE SMOOTH",
"28 172 OFFCURVE",
"195 -15 OFFCURVE",
"439 -15 CURVE SMOOTH"
);
},
{
closed = 1;
nodes = (
"285 175 OFFCURVE",
"231 290 OFFCURVE",
"231 413 CURVE SMOOTH",
"231 536 OFFCURVE",
"294 651 OFFCURVE",
"439 651 CURVE SMOOTH",
"585 651 OFFCURVE",
"646 536 OFFCURVE",
"646 413 CURVE SMOOTH",
"646 363 OFFCURVE",
"637 315 OFFCURVE",
"616 275 CURVE",
"532 332 OFFCURVE",
"476 394 OFFCURVE",
"476 394 CURVE",
"396 294 LINE",
"414 271 OFFCURVE",
"451 226 OFFCURVE",
"498 182 CURVE",
"480 177 OFFCURVE",
"460 175 OFFCURVE",
"439 175 CURVE SMOOTH"
);
}
);
width = 901;
},
{
anchors = (
{
name = bottom;
position = "{422, 0}";
},
{
name = top;
position = "{422, 825}";
}
);
layerId = "7B60DD57-6012-4D0F-BD38-A72A4BAC0E9D";
paths = (
{
closed = 1;
nodes = (
"525 -15 OFFCURVE",
"616 26 OFFCURVE",
"682 94 CURVE",
"736 63 OFFCURVE",
"788 41 OFFCURVE",
"829 30 CURVE",
"861 90 LINE",
"832 96 OFFCURVE",
"781 116 OFFCURVE",
"724 146 CURVE",
"772 218 OFFCURVE",
"799 311 OFFCURVE",
"799 413 CURVE SMOOTH",
"799 654 OFFCURVE",
"643 840 OFFCURVE",
"414 840 CURVE SMOOTH",
"187 840 OFFCURVE",
"28 654 OFFCURVE",
"28 413 CURVE SMOOTH",
"28 172 OFFCURVE",
"170 -15 OFFCURVE",
"414 -15 CURVE SMOOTH"
);
},
{
closed = 1;
nodes = (
"210 47 OFFCURVE",
"101 220 OFFCURVE",
"101 413 CURVE SMOOTH",
"101 606 OFFCURVE",
"219 779 OFFCURVE",
"414 779 CURVE SMOOTH",
"610 779 OFFCURVE",
"726 606 OFFCURVE",
"726 413 CURVE SMOOTH",
"726 327 OFFCURVE",
"704 245 OFFCURVE",
"661 181 CURVE",
"603 216 OFFCURVE",
"544 259 OFFCURVE",
"499 306 CURVE",
"463 261 LINE",
"507 214 OFFCURVE",
"563 169 OFFCURVE",
"621 131 CURVE",
"570 79 OFFCURVE",
"500 47 OFFCURVE",
"414 47 CURVE SMOOTH"
);
}
);
width = 858;
}
);
leftKerningGroup = G;
rightKerningGroup = d;
},
{
glyphname = R;
lastChange = "2018-06-10 11:52:29 +0000";
layers = (
{
anchors = (
{
name = bottom;
position = "{363, 0}";
},
{
name = top;
position = "{363, 825}";
}
);
layerId = "A4E552E4-62BE-43BB-A58F-34F0EE3B77B8";
paths = (
{
closed = 1;
nodes = (
"65 0 LINE",
"253 0 LINE",
"253 326 LINE",
"254 326 LINE",
"475 0 LINE",
"714 0 LINE",
"460 341 LINE",
"561 373 OFFCURVE",
"629 456 OFFCURVE",
"629 580 CURVE SMOOTH",
"629 742 OFFCURVE",
"523 825 OFFCURVE",
"370 825 CURVE SMOOTH",
"65 825 LINE"
);
},
{
closed = 1;
nodes = (
"253 675 LINE",
"275 675 LINE SMOOTH",
"346 675 OFFCURVE",
"431 670 OFFCURVE",
"431 567 CURVE SMOOTH",
"431 464 OFFCURVE",
"346 459 OFFCURVE",
"275 459 CURVE SMOOTH",
"253 459 LINE"
);
}
);
width = 741;
},
{
anchors = (
{
name = bottom;
position = "{295, 0}";
},
{
name = top;
position = "{295, 825}";
}
);
layerId = "7B60DD57-6012-4D0F-BD38-A72A4BAC0E9D";
paths = (
{
closed = 1;
nodes = (
"65 0 LINE",
"133 0 LINE",
"133 356 LINE",
"260 356 LINE",
"484 0 LINE",
"564 0 LINE",
"337 362 LINE",
"395 369 OFFCURVE",
"539 418 OFFCURVE",
"539 595 CURVE SMOOTH",
"539 762 OFFCURVE",
"429 825 OFFCURVE",
"270 825 CURVE SMOOTH",
"65 825 LINE"
);
},
{
closed = 1;
nodes = (
"133 760 LINE",
"267 760 LINE SMOOTH",
"399 760 OFFCURVE",
"476 707 OFFCURVE",
"476 594 CURVE SMOOTH",
"476 481 OFFCURVE",
"399 419 OFFCURVE",
"270 419 CURVE SMOOTH",
"133 419 LINE"
);
}
);
width = 604;
}
);
rightKerningGroup = R;
unicode = 0052;
},
{
glyphname = S;
lastChange = "2018-06-10 11:52:29 +0000";
layers = (
{
anchors = (
{
name = bottom;
position = "{341, 0}";
},
{
name = top;
position = "{341, 825}";
}
);
layerId = "A4E552E4-62BE-43BB-A58F-34F0EE3B77B8";
paths = (
{
closed = 1;
nodes = (
"236 840 OFFCURVE",
"95 752 OFFCURVE",
"95 598 CURVE SMOOTH",
"95 512 OFFCURVE",
"158 425 OFFCURVE",
"257 376 CURVE SMOOTH",
"355 327 OFFCURVE",
"443 300 OFFCURVE",
"443 240 CURVE SMOOTH",
"443 163 OFFCURVE",
"365 159 OFFCURVE",
"324 159 CURVE SMOOTH",
"232 159 OFFCURVE",
"122 252 OFFCURVE",
"122 252 CURVE",
"28 94 LINE",
"28 94 OFFCURVE",
"145 -15 OFFCURVE",
"338 -15 CURVE SMOOTH",
"499 -15 OFFCURVE",
"649 54 OFFCURVE",
"649 251 CURVE SMOOTH",
"649 359 OFFCURVE",
"548 437 OFFCURVE",
"456 476 CURVE SMOOTH",
"362 516 OFFCURVE",
"278 550 OFFCURVE",
"278 602 CURVE SMOOTH",
"278 647 OFFCURVE",
"318 669 OFFCURVE",
"382 669 CURVE SMOOTH",
"467 669 OFFCURVE",
"549 612 OFFCURVE",
"549 612 CURVE",
"625 762 LINE",
"625 762 OFFCURVE",
"519 840 OFFCURVE",
"369 840 CURVE SMOOTH"
);
}
);
width = 697;
},
{
anchors = (
{
name = bottom;
position = "{296, 0}";
},
{
name = top;
position = "{296, 825}";
}
);
layerId = "7B60DD57-6012-4D0F-BD38-A72A4BAC0E9D";
paths = (
{
closed = 1;
nodes = (
"186 840 OFFCURVE",
"80 752 OFFCURVE",
"80 638 CURVE SMOOTH",
"80 542 OFFCURVE",
"147 485 OFFCURVE",
"260 426 CURVE SMOOTH",
"358 375 OFFCURVE",
"488 337 OFFCURVE",
"488 211 CURVE SMOOTH",
"488 113 OFFCURVE",
"411 54 OFFCURVE",
"288 54 CURVE SMOOTH",
"167 54 OFFCURVE",
"69 136 OFFCURVE",
"69 136 CURVE",
"28 68 LINE",
"28 68 OFFCURVE",
"141 -15 OFFCURVE",
"288 -15 CURVE SMOOTH",
"449 -15 OFFCURVE",
"559 74 OFFCURVE",
"559 211 CURVE SMOOTH",
"559 363 OFFCURVE",
"439 419 OFFCURVE",
"335 468 CURVE SMOOTH",
"239 513 OFFCURVE",
"154 558 OFFCURVE",
"154 638 CURVE SMOOTH",
"154 720 OFFCURVE",
"215 774 OFFCURVE",
"326 774 CURVE SMOOTH",
"431 774 OFFCURVE",
"509 715 OFFCURVE",
"509 715 CURVE",
"541 775 LINE",
"541 775 OFFCURVE",
"456 840 OFFCURVE",
"319 840 CURVE SMOOTH"
);
}
);
width = 607;
}
);
leftKerningGroup = S;
rightKerningGroup = d;
unicode = 0053;
},
{
glyphname = Germandbls;
lastChange = "2018-06-10 11:52:29 +0000";
layers = (
{
anchors = (
{
name = bottom;
position = "{357, 0}";
},
{
name = top;
position = "{357, 825}";
}
);
layerId = "7B60DD57-6012-4D0F-BD38-A72A4BAC0E9D";
paths = (
{
closed = 1;
nodes = (
"255 13 LINE",
"307 -3 OFFCURVE",
"359 -12 OFFCURVE",
"408 -12 CURVE SMOOTH",
"553 -12 OFFCURVE",
"676 74 OFFCURVE",
"676 243 CURVE SMOOTH",
"676 431 OFFCURVE",
"528 478 OFFCURVE",
"401 465 CURVE",
"594 756 LINE",
"596 817 LINE",
"512 835 OFFCURVE",
"437 845 OFFCURVE",
"371 845 CURVE SMOOTH",
"180 845 OFFCURVE",
"65 763 OFFCURVE",
"65 556 CURVE SMOOTH",
"65 0 LINE",
"137 0 LINE",
"137 519 LINE SMOOTH",
"137 723 OFFCURVE",
"222 788 OFFCURVE",
"378 788 CURVE SMOOTH",
"421 788 OFFCURVE",
"469 782 OFFCURVE",
"521 769 CURVE",
"329 477 LINE",
"329 405 LINE",
"532 426 OFFCURVE",
"605 368 OFFCURVE",
"605 238 CURVE SMOOTH",
"605 129 OFFCURVE",
"536 53 OFFCURVE",
"400 53 CURVE SMOOTH",
"358 53 OFFCURVE",
"309 62 OFFCURVE",
"255 78 CURVE"
);
}
);
width = 729;
},
{
anchors = (
{
name = bottom;
position = "{391, 0}";
},
{
name = top;
position = "{391, 825}";
}
);
layerId = "A4E552E4-62BE-43BB-A58F-34F0EE3B77B8";
paths = (
{
closed = 1;
nodes = (
"312 0 LINE",
"360 -11 OFFCURVE",
"410 -17 OFFCURVE",
"458 -17 CURVE SMOOTH",
"615 -17 OFFCURVE",
"753 63 OFFCURVE",
"753 235 CURVE SMOOTH",
"753 433 OFFCURVE",
"623 471 OFFCURVE",
"512 472 CURVE",
"654 664 LINE",
"654 814 LINE",
"568 837 OFFCURVE",
"480 844 OFFCURVE",
"413 844 CURVE SMOOTH",
"200 844 OFFCURVE",
"65 764 OFFCURVE",
"65 577 CURVE SMOOTH",
"65 0 LINE",
"251 0 LINE",
"251 494 LINE SMOOTH",
"251 623 OFFCURVE",
"288 691 OFFCURVE",
"397 691 CURVE SMOOTH",
"418 691 OFFCURVE",
"441 688 OFFCURVE",
"468 683 CURVE",
"342 485 LINE",
"342 348 LINE",
"489 362 OFFCURVE",
"563 320 OFFCURVE",
"563 239 CURVE SMOOTH",
"563 174 OFFCURVE",
"516 139 OFFCURVE",
"442 139 CURVE SMOOTH",
"405 139 OFFCURVE",
"362 146 OFFCURVE",
"312 157 CURVE"
);
}
);
width = 796;
}
);
leftKerningGroup = d;
leftMetricsKey = B;
rightKerningGroup = d;
rightMetricsKey = B;
unicode = 1E9E;
},
{
glyphname = T;
lastChange = "2018-06-10 11:52:29 +0000";
layers = (
{
anchors = (
{
name = bottom;
position = "{303, 0}";
},
{
name = center;
position = "{303, 413}";
},
{
name = top;
position = "{303, 825}";
}
);
layerId = "A4E552E4-62BE-43BB-A58F-34F0EE3B77B8";
paths = (
{
closed = 1;
nodes = (
"209 0 LINE",
"397 0 LINE",
"397 660 LINE",
"593 660 LINE",
"593 825 LINE",
"13 825 LINE",
"13 660 LINE",
"209 660 LINE"
);
}
);
width = 621;
},
{
anchors = (
{
name = bottom;
position = "{283, 0}";
},
{
name = center;
position = "{283, 413}";
},
{
name = top;
position = "{283, 825}";
}
);
layerId = "7B60DD57-6012-4D0F-BD38-A72A4BAC0E9D";
paths = (
{
closed = 1;
nodes = (
"249 0 LINE",
"317 0 LINE",
"317 760 LINE",
"553 760 LINE",
"553 825 LINE",
"13 825 LINE",
"13 760 LINE",
"249 760 LINE"
);
}
);
width = 581;
}
);
leftKerningGroup = T;
rightKerningGroup = T;
unicode = 0054;
},
{
glyphname = Tbar;
lastChange = "2018-06-10 11:52:29 +0000";
layers = (
{
components = (
{
name = T;
transform = "{1, 0, 0, 1, 11, 0}";
}
);
layerId = "7B60DD57-6012-4D0F-BD38-A72A4BAC0E9D";
paths = (
{
closed = 1;
nodes = (
"13 415 LINE",
"534 415 LINE",
"534 485 LINE",
"13 485 LINE"
);
}
);
width = 582;
},
{
components = (
{
name = T;
transform = "{1, 0, 0, 1, 10, 0}";
}
);
layerId = "A4E552E4-62BE-43BB-A58F-34F0EE3B77B8";
paths = (
{
closed = 1;
nodes = (
"12 375 LINE",
"593 375 LINE",
"593 515 LINE",
"12 515 LINE"
);
}
);
width = 621;
}
);
unicode = 0166;
},
{
glyphname = U;
lastChange = "2018-06-10 11:52:29 +0000";
layers = (
{
anchors = (
{
name = bottom;
position = "{377, 0}";
},
{
name = ogonek;
position = "{675, 10}";
},
{
name = top;
position = "{377, 825}";
},
{
name = topright;
position = "{729, 825}";
}
);
layerId = "A4E552E4-62BE-43BB-A58F-34F0EE3B77B8";
paths = (
{
closed = 1;
nodes = (
"511 388 LINE SMOOTH",
"511 230 OFFCURVE",
"469 170 OFFCURVE",
"377 170 CURVE SMOOTH",
"285 170 OFFCURVE",
"243 230 OFFCURVE",
"243 388 CURVE SMOOTH",
"243 825 LINE",
"55 825 LINE",
"55 333 LINE SMOOTH",
"55 129 OFFCURVE",
"167 -15 OFFCURVE",
"377 -15 CURVE SMOOTH",
"587 -15 OFFCURVE",
"699 129 OFFCURVE",
"699 333 CURVE SMOOTH",
"699 825 LINE",
"511 825 LINE"
);
}
);
width = 769;
},
{
anchors = (
{
name = bottom;
position = "{337, 0}";
},
{
name = ogonek;
position = "{603, 10}";
},
{
name = top;
position = "{337, 825}";
},
{
name = topright;
position = "{649, 825}";
}
);
layerId = "7B60DD57-6012-4D0F-BD38-A72A4BAC0E9D";
paths = (
{
closed = 1;
nodes = (
"541 298 LINE SMOOTH",
"541 170 OFFCURVE",
"479 50 OFFCURVE",
"337 50 CURVE SMOOTH",
"195 50 OFFCURVE",
"133 170 OFFCURVE",
"133 298 CURVE SMOOTH",
"133 825 LINE",
"65 825 LINE",
"65 313 LINE SMOOTH",
"65 109 OFFCURVE",
"157 -15 OFFCURVE",
"337 -15 CURVE SMOOTH",
"517 -15 OFFCURVE",
"609 109 OFFCURVE",
"609 313 CURVE SMOOTH",
"609 825 LINE",
"541 825 LINE"
);
}
);
width = 689;
}
);
rightKerningGroup = d;
unicode = 0055;
},
{
glyphname = V;
lastChange = "2018-06-10 11:52:29 +0000";
layers = (
{
anchors = (
{
name = bottom;
position = "{397, 0}";
},
{
name = top;
position = "{397, 825}";
}
);
layerId = "A4E552E4-62BE-43BB-A58F-34F0EE3B77B8";
paths = (
{
closed = 1;
nodes = (
"797 825 LINE",
"585 825 LINE",
"397 303 LINE",
"209 825 LINE",
"-3 825 LINE",
"320 0 LINE",
"474 0 LINE"
);
}
);
width = 809;
},
{
anchors = (
{
name = bottom;
position = "{347, 0}";
},
{
name = top;
position = "{347, 825}";
}
);
layerId = "7B60DD57-6012-4D0F-BD38-A72A4BAC0E9D";
paths = (
{
closed = 1;
nodes = (
"696 825 LINE",
"620 825 LINE",
"347 93 LINE",
"74 825 LINE",
"-2 825 LINE",
"310 0 LINE",
"384 0 LINE"
);
}
);
width = 709;
}
);
leftKerningGroup = V;
rightKerningGroup = V;
unicode = 0056;
},
{
glyphname = W;
lastChange = "2018-06-10 11:52:29 +0000";
layers = (
{
anchors = (
{
name = bottom;
position = "{573, 0}";
},
{
name = top;
position = "{573, 825}";
}
);
layerId = "A4E552E4-62BE-43BB-A58F-34F0EE3B77B8";
paths = (
{
closed = 1;
nodes = (
"1141 825 LINE",
"933 825 LINE",
"792 259 LINE",
"787 259 LINE",
"637 825 LINE",
"495 825 LINE",
"345 259 LINE",
"340 259 LINE",
"199 825 LINE",
"-10 825 LINE",
"225 0 LINE",
"434 0 LINE",
"566 463 LINE",
"698 0 LINE",
"906 0 LINE"
);
}
);
width = 1161;
},
{
anchors = (
{
name = bottom;
position = "{449, 0}";
},
{
name = top;
position = "{449, 825}";
}
);
layerId = "7B60DD57-6012-4D0F-BD38-A72A4BAC0E9D";
paths = (
{
closed = 1;
nodes = (
"893 825 LINE",
"819 825 LINE",
"678 123 LINE",
"673 123 LINE",
"481 825 LINE",
"403 825 LINE",
"211 123 LINE",
"211 123 LINE",
"65 825 LINE",
"-10 825 LINE",
"171 0 LINE",
"250 0 LINE",
"442 703 LINE",
"634 0 LINE",
"712 0 LINE"
);
}
);
width = 913;
}
);
leftKerningGroup = V;
rightKerningGroup = V;
unicode = 0057;
},
{
glyphname = X;
lastChange = "2018-06-10 11:52:29 +0000";
layers = (
{
anchors = (
{
name = bottom;
position = "{404, 0}";
},
{
name = top;
position = "{404, 825}";
}
);
layerId = "A4E552E4-62BE-43BB-A58F-34F0EE3B77B8";
paths = (
{
closed = 1;
nodes = (
"785 825 LINE",
"551 825 LINE",
"399 600 LINE",
"247 825 LINE",
"23 825 LINE",
"283 444 LINE",
"-19 0 LINE",
"214 0 LINE",
"399 281 LINE",
"584 0 LINE",
"827 0 LINE",
"515 444 LINE"
);
}
);
width = 823;
},
{
anchors = (
{
name = bottom;
position = "{325, 0}";
},
{
name = top;
position = "{325, 825}";
}
);
layerId = "7B60DD57-6012-4D0F-BD38-A72A4BAC0E9D";
paths = (
{
closed = 1;
nodes = (
"637 825 LINE",
"557 825 LINE",
"325 490 LINE",
"93 825 LINE",
"13 825 LINE",
"283 444 LINE",
"-19 0 LINE",
"60 0 LINE",
"325 391 LINE",
"590 0 LINE",
"669 0 LINE",
"367 444 LINE"
);
}
);
width = 665;
}
);
rightKerningGroup = d;
unicode = 0058;
},
{
glyphname = Y;
lastChange = "2018-06-10 11:52:29 +0000";
layers = (
{
anchors = (
{
name = bottom;
position = "{373, 0}";
},
{
name = top;
position = "{373, 825}";
},
{
name = topleft;
position = "{25, 825}";
}
);
layerId = "A4E552E4-62BE-43BB-A58F-34F0EE3B77B8";
paths = (
{
closed = 1;
nodes = (
"279 0 LINE",
"467 0 LINE",
"467 370 LINE",
"751 825 LINE",
"525 825 LINE",
"373 561 LINE",
"221 825 LINE",
"-5 825 LINE",
"279 370 LINE"
);
}
);
width = 761;
},
{
anchors = (
{
name = bottom;
position = "{303, 0}";
},
{
name = top;
position = "{303, 825}";
},
{
name = topleft;
position = "{25, 825}";
}
);
layerId = "7B60DD57-6012-4D0F-BD38-A72A4BAC0E9D";
paths = (
{
closed = 1;
nodes = (
"269 0 LINE",
"337 0 LINE",
"337 320 LINE",
"611 825 LINE",
"535 825 LINE",
"303 384 LINE",
"71 825 LINE",
"-5 825 LINE",
"269 320 LINE"
);
}
);
width = 621;
}
);
leftKerningGroup = Y;
rightKerningGroup = Y;
unicode = 0059;
},
{
glyphname = Z;
lastChange = "2018-06-10 11:52:29 +0000";
layers = (
{
anchors = (
{
name = bottom;
position = "{390, 0}";
},
{
name = top;
position = "{390, 825}";
}
);
layerId = "A4E552E4-62BE-43BB-A58F-34F0EE3B77B8";
paths = (
{
closed = 1;
nodes = (
"79 660 LINE",
"429 660 LINE",
"21 0 LINE",
"731 0 LINE",
"731 165 LINE",
"349 165 LINE",
"758 825 LINE",
"79 825 LINE"
);
}
);
width = 794;
},
{
anchors = (
{
name = bottom;
position = "{329, 0}";
},
{
name = top;
position = "{329, 825}";
}
);
layerId = "7B60DD57-6012-4D0F-BD38-A72A4BAC0E9D";
paths = (
{
closed = 1;
nodes = (
"78 760 LINE",
"515 760 LINE",
"20 0 LINE",
"610 0 LINE",
"610 65 LINE",
"145 65 LINE",
"637 825 LINE",
"78 825 LINE"
);
}
);
width = 672;
}
);
unicode = 005A;
},
{
glyphname = a;
lastChange = "2018-06-10 11:52:29 +0000";
layers = (
{
anchors = (
{
name = bottom;
position = "{347, 0}";
},
{
name = ogonek;
position = "{620, 10}";
},
{
name = top;
position = "{347, 513}";
}
);
layerId = "A4E552E4-62BE-43BB-A58F-34F0EE3B77B8";
paths = (
{
closed = 1;
nodes = (
"28 106 OFFCURVE",
"133 -15 OFFCURVE",
"283 -15 CURVE SMOOTH",
"383 -15 OFFCURVE",
"440 52 OFFCURVE",
"451 78 CURVE",
"453 78 LINE",
"453 0 LINE",
"628 0 LINE",
"628 513 LINE",
"451 513 LINE",
"451 444 LINE",
"435 475 OFFCURVE",
"382 528 OFFCURVE",
"283 528 CURVE SMOOTH",
"133 528 OFFCURVE",
"28 406 OFFCURVE",
"28 256 CURVE SMOOTH"
);
},
{
closed = 1;
nodes = (
"216 327 OFFCURVE",
"269 377 OFFCURVE",
"336 377 CURVE SMOOTH",
"402 377 OFFCURVE",
"451 327 OFFCURVE",
"451 256 CURVE SMOOTH",
"451 186 OFFCURVE",
"405 136 OFFCURVE",
"336 136 CURVE SMOOTH",
"264 136 OFFCURVE",
"216 186 OFFCURVE",
"216 256 CURVE SMOOTH"
);
}
);
width = 708;
},
{
anchors = (
{
name = bottom;
position = "{309, 0}";
},
{
name = ogonek;
position = "{552, 10}";
},
{
name = top;
position = "{309, 513}";
}
);
layerId = "7B60DD57-6012-4D0F-BD38-A72A4BAC0E9D";
paths = (
{
closed = 1;
nodes = (
"28 86 OFFCURVE",
"146 -15 OFFCURVE",
"286 -15 CURVE SMOOTH",
"406 -15 OFFCURVE",
"477 62 OFFCURVE",
"483 91 CURVE",
"485 91 LINE",
"485 0 LINE",
"553 0 LINE",
"553 513 LINE",
"483 513 LINE",
"483 424 LINE",
"476 457 OFFCURVE",
"405 528 OFFCURVE",
"286 528 CURVE SMOOTH",
"146 528 OFFCURVE",
"28 426 OFFCURVE",
"28 256 CURVE SMOOTH"
);
},
{
closed = 1;
nodes = (
"98 387 OFFCURVE",
"187 464 OFFCURVE",
"286 464 CURVE SMOOTH",
"395 464 OFFCURVE",
"483 377 OFFCURVE",
"483 256 CURVE SMOOTH",
"483 136 OFFCURVE",
"398 49 OFFCURVE",
"286 49 CURVE SMOOTH",
"187 49 OFFCURVE",
"98 126 OFFCURVE",
"98 256 CURVE SMOOTH"
);
}
);
width = 633;
}
);
leftKerningGroup = aacute;
rightKerningGroup = aacute;
unicode = 0061;
},
{
glyphname = ae;
lastChange = "2018-06-10 11:52:29 +0000";
layers = (
{
anchors = (
{
name = bottom;
position = "{477, 0}";
},
{
name = top;
position = "{477, 513}";
}
);
layerId = "A4E552E4-62BE-43BB-A58F-34F0EE3B77B8";
paths = (
{
closed = 1;
nodes = (
"117 357 LINE",
"117 357 OFFCURVE",
"164 387 OFFCURVE",
"256 387 CURVE SMOOTH",
"307 387 OFFCURVE",
"368 355 OFFCURVE",
"368 299 CURVE SMOOTH",
"368 282 LINE",
"345 298 OFFCURVE",
"286 331 OFFCURVE",
"201 321 CURVE SMOOTH",
"86 307 OFFCURVE",
"28 248 OFFCURVE",
"28 136 CURVE SMOOTH",
"28 43 OFFCURVE",
"111 -15 OFFCURVE",
"218 -15 CURVE SMOOTH",
"375 -15 OFFCURVE",
"437 79 OFFCURVE",
"437 79 CURVE",
"489 21 OFFCURVE",
"565 -15 OFFCURVE",
"650 -15 CURVE SMOOTH",
"764 -15 OFFCURVE",
"858 22 OFFCURVE",
"916 119 CURVE",
"788 183 LINE",
"745 137 OFFCURVE",
"720 126 OFFCURVE",
"663 126 CURVE SMOOTH",
"618 126 OFFCURVE",
"552 153 OFFCURVE",
"552 232 CURVE",
"924 232 LINE",
"925 238 OFFCURVE",
"925 249 OFFCURVE",
"925 256 CURVE SMOOTH",
"925 436 OFFCURVE",
"806 528 OFFCURVE",
"650 528 CURVE SMOOTH",
"581 528 OFFCURVE",
"517 504 OFFCURVE",
"468 464 CURVE",
"406 513 OFFCURVE",
"318 528 OFFCURVE",
"256 528 CURVE SMOOTH",
"125 528 OFFCURVE",
"61 478 OFFCURVE",
"61 478 CURVE"
);
},
{
closed = 1;
nodes = (
"201 206 OFFCURVE",
"243 221 OFFCURVE",
"280 218 CURVE SMOOTH",
"327 214 OFFCURVE",
"345 192 OFFCURVE",
"345 162 CURVE SMOOTH",
"345 132 OFFCURVE",
"317 107 OFFCURVE",
"280 102 CURVE SMOOTH",
"243 97 OFFCURVE",
"201 113 OFFCURVE",
"201 159 CURVE SMOOTH"
);
},
{
closed = 1;
nodes = (
"557 330 LINE",
"560 377 OFFCURVE",
"594 413 OFFCURVE",
"655 413 CURVE SMOOTH",
"707 413 OFFCURVE",
"744 384 OFFCURVE",
"752 330 CURVE"
);
}
);
width = 968;
},
{
anchors = (
{
name = bottom;
position = "{432, 0}";
},
{
name = top;
position = "{432, 513}";
}
);
layerId = "7B60DD57-6012-4D0F-BD38-A72A4BAC0E9D";
paths = (
{
closed = 1;
nodes = (
"93 410 LINE",
"93 410 OFFCURVE",
"144 464 OFFCURVE",
"236 464 CURVE SMOOTH",
"287 464 OFFCURVE",
"388 435 OFFCURVE",
"388 299 CURVE SMOOTH",
"388 262 LINE",
"373 294 OFFCURVE",
"294 333 OFFCURVE",
"201 321 CURVE SMOOTH",
"116 310 OFFCURVE",
"28 269 OFFCURVE",
"28 157 CURVE SMOOTH",
"28 27 OFFCURVE",
"141 -15 OFFCURVE",
"228 -15 CURVE SMOOTH",
"339 -15 OFFCURVE",
"407 79 OFFCURVE",
"407 79 CURVE",
"459 21 OFFCURVE",
"525 -15 OFFCURVE",
"610 -15 CURVE SMOOTH",
"724 -15 OFFCURVE",
"784 39 OFFCURVE",
"826 109 CURVE",
"760 140 LINE",
"750 110 OFFCURVE",
"710 50 OFFCURVE",
"623 50 CURVE SMOOTH",
"505 50 OFFCURVE",
"452 113 OFFCURVE",
"452 242 CURVE",
"834 242 LINE",
"835 248 OFFCURVE",
"835 249 OFFCURVE",
"835 256 CURVE SMOOTH",
"835 436 OFFCURVE",
"746 528 OFFCURVE",
"610 528 CURVE SMOOTH",
"521 528 OFFCURVE",
"445 469 OFFCURVE",
"424 421 CURVE",
"396 479 OFFCURVE",
"338 528 OFFCURVE",
"236 528 CURVE SMOOTH",
"115 528 OFFCURVE",
"57 465 OFFCURVE",
"57 465 CURVE"
);
},
{
closed = 1;
nodes = (
"97 236 OFFCURVE",
"173 264 OFFCURVE",
"240 262 CURVE SMOOTH",
"317 260 OFFCURVE",
"383 228 OFFCURVE",
"383 170 CURVE SMOOTH",
"383 103 OFFCURVE",
"297 50 OFFCURVE",
"220 50 CURVE SMOOTH",
"162 50 OFFCURVE",
"97 73 OFFCURVE",
"97 159 CURVE SMOOTH"
);
},
{
closed = 1;
nodes = (
"457 300 LINE",
"457 410 OFFCURVE",
"510 464 OFFCURVE",
"615 464 CURVE SMOOTH",
"748 464 OFFCURVE",
"764 354 OFFCURVE",
"772 300 CURVE"
);
}
);
width = 878;
}
);
rightKerningGroup = d;
unicode = 00E6;
},
{
glyphname = b;
lastChange = "2018-06-10 11:52:29 +0000";
layers = (
{
anchors = (
{
name = bottom;
position = "{347, 0}";
},
{
name = top;
position = "{347, 900}";
}
);
layerId = "A4E552E4-62BE-43BB-A58F-34F0EE3B77B8";
paths = (
{
closed = 1;
nodes = (
"310 528 OFFCURVE",
"257 475 OFFCURVE",
"241 444 CURVE",
"242 860 LINE",
"65 860 LINE",
"65 0 LINE",
"66 0 LINE",
"240 0 LINE",
"240 78 LINE",
"241 78 LINE",
"252 52 OFFCURVE",
"309 -15 OFFCURVE",
"409 -15 CURVE SMOOTH",
"559 -15 OFFCURVE",
"664 106 OFFCURVE",
"664 256 CURVE SMOOTH",
"664 406 OFFCURVE",
"559 528 OFFCURVE",
"409 528 CURVE SMOOTH"
);
},
{
closed = 1;
nodes = (
"290 136 OFFCURVE",
"244 186 OFFCURVE",
"244 256 CURVE SMOOTH",
"244 327 OFFCURVE",
"293 377 OFFCURVE",
"359 377 CURVE SMOOTH",
"426 377 OFFCURVE",
"479 327 OFFCURVE",
"479 256 CURVE SMOOTH",
"479 186 OFFCURVE",
"431 136 OFFCURVE",
"359 136 CURVE SMOOTH"
);
}
);
width = 708;
},
{
anchors = (
{
name = bottom;
position = "{292, 0}";
},
{
name = top;
position = "{292, 900}";
}
);
layerId = "7B60DD57-6012-4D0F-BD38-A72A4BAC0E9D";
paths = (
{
closed = 1;
nodes = (
"192 528 OFFCURVE",
"142 429 OFFCURVE",
"135 414 CURVE",
"136 860 LINE",
"65 860 LINE",
"65 0 LINE",
"66 0 LINE",
"134 0 LINE",
"134 108 LINE",
"135 108 LINE",
"140 95 OFFCURVE",
"191 -15 OFFCURVE",
"324 -15 CURVE SMOOTH",
"474 -15 OFFCURVE",
"554 106 OFFCURVE",
"554 256 CURVE SMOOTH",
"554 406 OFFCURVE",
"474 528 OFFCURVE",
"324 528 CURVE SMOOTH"
);
},
{
closed = 1;
nodes = (
"230 48 OFFCURVE",
"138 126 OFFCURVE",
"138 256 CURVE SMOOTH",
"138 387 OFFCURVE",
"233 465 OFFCURVE",
"319 465 CURVE SMOOTH",
"426 465 OFFCURVE",
"484 387 OFFCURVE",
"484 256 CURVE SMOOTH",
"484 126 OFFCURVE",
"431 48 OFFCURVE",
"319 48 CURVE SMOOTH"
);
}
);
width = 598;
}
);
rightKerningGroup = b;
unicode = 0062;
},
{
glyphname = c;
lastChange = "2018-06-10 11:52:29 +0000";
layers = (
{
anchors = (
{
name = bottom;
position = "{249, 0}";
},
{
name = top;
position = "{249, 513}";
}
);
layerId = "A4E552E4-62BE-43BB-A58F-34F0EE3B77B8";
paths = (
{
closed = 1;
nodes = (
"258 136 OFFCURVE",
"205 186 OFFCURVE",
"205 257 CURVE SMOOTH",
"205 327 OFFCURVE",
"258 377 OFFCURVE",
"325 377 CURVE SMOOTH",
"351 377 OFFCURVE",
"374 370 OFFCURVE",
"393 356 CURVE",
"474 490 LINE",
"431 514 OFFCURVE",
"379 528 OFFCURVE",
"324 528 CURVE SMOOTH",
"151 528 OFFCURVE",
"35 415 OFFCURVE",
"35 258 CURVE SMOOTH",
"35 255 LINE SMOOTH",
"35 98 OFFCURVE",
"151 -15 OFFCURVE",
"324 -15 CURVE SMOOTH",
"379 -15 OFFCURVE",
"431 -1 OFFCURVE",
"474 23 CURVE",
"393 157 LINE",
"374 143 OFFCURVE",
"351 136 OFFCURVE",
"325 136 CURVE SMOOTH"
);
}
);
width = 512;
},
{
anchors = (
{
name = bottom;
position = "{236, 0}";
},
{
name = top;
position = "{236, 513}";
}
);
layerId = "7B60DD57-6012-4D0F-BD38-A72A4BAC0E9D";
paths = (
{
closed = 1;
nodes = (
"203 49 OFFCURVE",
"105 121 OFFCURVE",
"105 257 CURVE SMOOTH",
"105 392 OFFCURVE",
"203 464 OFFCURVE",
"286 464 CURVE SMOOTH",
"355 464 OFFCURVE",
"400 431 OFFCURVE",
"413 421 CURVE",
"446 475 LINE",
"429 488 OFFCURVE",
"386 528 OFFCURVE",
"285 528 CURVE SMOOTH",
"176 528 OFFCURVE",
"35 435 OFFCURVE",
"35 258 CURVE SMOOTH",
"35 255 LINE SMOOTH",
"35 78 OFFCURVE",
"176 -15 OFFCURVE",
"285 -15 CURVE SMOOTH",
"383 -15 OFFCURVE",
"435 23 OFFCURVE",
"449 31 CURVE",
"414 88 LINE",
"402 80 OFFCURVE",
"366 49 OFFCURVE",
"286 49 CURVE SMOOTH"
);
}
);
width = 487;
}
);
leftKerningGroup = c;
rightKerningGroup = c;
unicode = 0063;
},
{
glyphname = eth;
lastChange = "2018-06-10 11:52:29 +0000";
layers = (
{
layerId = "A4E552E4-62BE-43BB-A58F-34F0EE3B77B8";
paths = (
{
closed = 1;
nodes = (
"46 98 OFFCURVE",
"170 -15 OFFCURVE",
"355 -15 CURVE SMOOTH",
"532 -15 OFFCURVE",
"661 98 OFFCURVE",
"661 256 CURVE SMOOTH",
"661 498 OFFCURVE",
"569 651 OFFCURVE",
"435 745 CURVE",
"487 797 LINE",
"411 875 LINE",
"338 803 LINE",
"235 856 OFFCURVE",
"150 875 OFFCURVE",
"150 875 CURVE",
"108 725 LINE",
"108 725 OFFCURVE",
"156 714 OFFCURVE",
"219 684 CURVE",
"157 622 LINE",
"234 545 LINE",
"328 638 LINE",
"380 608 OFFCURVE",
"430 538 OFFCURVE",
"445 491 CURVE",
"430 507 OFFCURVE",
"403 528 OFFCURVE",
"304 528 CURVE SMOOTH",
"194 528 OFFCURVE",
"46 424 OFFCURVE",
"46 256 CURVE SMOOTH"
);
},
{
closed = 1;
nodes = (
"234 327 OFFCURVE",
"287 377 OFFCURVE",
"354 377 CURVE SMOOTH",
"418 377 OFFCURVE",
"470 329 OFFCURVE",
"473 261 CURVE",
"473 256 LINE SMOOTH",
"473 186 OFFCURVE",
"423 136 OFFCURVE",
"354 136 CURVE SMOOTH",
"282 136 OFFCURVE",
"234 186 OFFCURVE",
"234 256 CURVE SMOOTH"
);
}
);
width = 709;
},
{
layerId = "7B60DD57-6012-4D0F-BD38-A72A4BAC0E9D";
paths = (
{
closed = 1;
nodes = (
"46 98 OFFCURVE",
"150 -15 OFFCURVE",
"325 -15 CURVE SMOOTH",
"502 -15 OFFCURVE",
"601 98 OFFCURVE",
"601 256 CURVE SMOOTH",
"601 498 OFFCURVE",
"506 645 OFFCURVE",
"343 730 CURVE",
"423 803 LINE",
"372 847 LINE",
"285 755 LINE",
"246 784 OFFCURVE",
"138 816 OFFCURVE",
"138 816 CURVE",
"116 753 LINE",
"116 753 OFFCURVE",
"179 740 OFFCURVE",
"239 706 CURVE",
"158 624 LINE",
"203 581 LINE",
"300 684 LINE",
"395 638 OFFCURVE",
"466 551 OFFCURVE",
"492 468 CURVE",
"477 484 OFFCURVE",
"420 530 OFFCURVE",
"297 528 CURVE SMOOTH",
"183 526 OFFCURVE",
"46 424 OFFCURVE",
"46 256 CURVE SMOOTH"
);
},
{
closed = 1;
nodes = (
"114 387 OFFCURVE",
"197 466 OFFCURVE",
"324 466 CURVE SMOOTH",
"458 466 OFFCURVE",
"530 394 OFFCURVE",
"533 261 CURVE",
"533 256 LINE SMOOTH",
"533 129 OFFCURVE",
"463 46 OFFCURVE",
"324 46 CURVE SMOOTH",
"192 46 OFFCURVE",
"114 126 OFFCURVE",
"114 256 CURVE SMOOTH"
);
}
);
width = 649;
}
);
rightKerningGroup = d;
unicode = 00F0;
},
{
glyphname = dcroat;
lastChange = "2018-06-10 11:52:29 +0000";
layers = (
{
components = (
{
name = d;
transform = "{1, 0, 0, 1, 10, 0}";
}
);
layerId = "A4E552E4-62BE-43BB-A58F-34F0EE3B77B8";
paths = (
{
closed = 1;
nodes = (
"688 628 LINE",
"688 742 LINE",
"326 742 LINE",
"326 628 LINE"
);
}
);
width = 708;
},
{
components = (
{
name = d;
transform = "{1, 0, 0, 1, 10, 0}";
}
);
layerId = "7B60DD57-6012-4D0F-BD38-A72A4BAC0E9D";
paths = (
{
closed = 1;
nodes = (
"588 648 LINE",
"588 702 LINE",
"306 702 LINE",
"306 648 LINE"
);
}
);
width = 608;
}
);
rightKerningGroup = d;
unicode = 0111;
},
{
glyphname = e;
lastChange = "2018-06-10 11:52:29 +0000";
layers = (
{
anchors = (
{
name = bottom;
position = "{302, 0}";
},
{
name = ogonek;
position = "{539, 10}";
},
{
name = top;
position = "{302, 513}";
}
);
layerId = "A4E552E4-62BE-43BB-A58F-34F0EE3B77B8";
paths = (
{
closed = 1;
nodes = (
"566 222 LINE",
"567 228 OFFCURVE",
"567 249 OFFCURVE",
"567 256 CURVE SMOOTH",
"567 436 OFFCURVE",
"456 528 OFFCURVE",
"300 528 CURVE SMOOTH",
"135 528 OFFCURVE",
"28 412 OFFCURVE",
"28 262 CURVE SMOOTH",
"28 113 OFFCURVE",
"141 -15 OFFCURVE",
"296 -15 CURVE SMOOTH",
"440 -15 OFFCURVE",
"500 31 OFFCURVE",
"558 109 CURVE",
"424 186 LINE",
"386 139 OFFCURVE",
"362 126 OFFCURVE",
"305 126 CURVE SMOOTH",
"260 126 OFFCURVE",
"203 160 OFFCURVE",
"203 222 CURVE"
);
},
{
closed = 1;
nodes = (
"208 330 LINE",
"209 375 OFFCURVE",
"253 413 OFFCURVE",
"304 413 CURVE SMOOTH",
"355 413 OFFCURVE",
"389 371 OFFCURVE",
"391 330 CURVE"
);
}
);
width = 618;
},
{
anchors = (
{
name = bottom;
position = "{277, 0}";
},
{
name = ogonek;
position = "{494, 10}";
},
{
name = top;
position = "{277, 513}";
}
);
layerId = "7B60DD57-6012-4D0F-BD38-A72A4BAC0E9D";
paths = (
{
closed = 1;
nodes = (
"516 252 LINE",
"517 258 OFFCURVE",
"517 269 OFFCURVE",
"517 276 CURVE SMOOTH",
"517 426 OFFCURVE",
"406 528 OFFCURVE",
"280 528 CURVE SMOOTH",
"138 528 OFFCURVE",
"28 413 OFFCURVE",
"28 263 CURVE SMOOTH",
"28 103 OFFCURVE",
"128 -15 OFFCURVE",
"281 -15 CURVE SMOOTH",
"395 -15 OFFCURVE",
"456 28 OFFCURVE",
"508 109 CURVE",
"447 144 LINE",
"426 112 OFFCURVE",
"388 49 OFFCURVE",
"285 49 CURVE SMOOTH",
"170 49 OFFCURVE",
"97 143 OFFCURVE",
"97 252 CURVE"
);
},
{
closed = 1;
nodes = (
"101 310 LINE",
"102 355 OFFCURVE",
"163 464 OFFCURVE",
"284 464 CURVE SMOOTH",
"399 464 OFFCURVE",
"440 351 OFFCURVE",
"442 310 CURVE"
);
}
);
width = 568;
}
);
leftKerningGroup = c;
rightKerningGroup = c;
unicode = 0065;
},
{
glyphname = f;
lastChange = "2018-06-10 11:52:29 +0000";
layers = (
{
anchors = (
{
name = bottom;
position = "{193, 0}";
},
{
name = top;
position = "{193, 900}";
}
);
layerId = "A4E552E4-62BE-43BB-A58F-34F0EE3B77B8";
paths = (
{
closed = 1;
nodes = (
"11 378 LINE",
"95 378 LINE",
"95 0 LINE",
"272 0 LINE",
"272 378 LINE",
"380 378 LINE",
"380 513 LINE",
"272 513 LINE",
"272 627 LINE SMOOTH",
"272 698 OFFCURVE",
"305 718 OFFCURVE",
"332 718 CURVE SMOOTH",
"361 718 OFFCURVE",
"374 704 OFFCURVE",
"374 704 CURVE",
"427 843 LINE",
"427 843 OFFCURVE",
"399 875 OFFCURVE",
"316 875 CURVE SMOOTH",
"198 875 OFFCURVE",
"95 792 OFFCURVE",
"95 642 CURVE SMOOTH",
"95 513 LINE",
"11 513 LINE"
);
}
);
width = 400;
},
{
anchors = (
{
name = bottom;
position = "{173, 0}";
},
{
name = top;
position = "{173, 900}";
}
);
layerId = "7B60DD57-6012-4D0F-BD38-A72A4BAC0E9D";
paths = (
{
closed = 1;
nodes = (
"11 448 LINE",
"125 448 LINE",
"125 0 LINE",
"192 0 LINE",
"192 448 LINE",
"343 448 LINE",
"343 513 LINE",
"192 513 LINE",
"192 617 LINE SMOOTH",
"192 768 OFFCURVE",
"243 813 OFFCURVE",
"290 813 CURVE SMOOTH",
"339 813 OFFCURVE",
"362 783 OFFCURVE",
"362 783 CURVE",
"388 847 LINE",
"388 847 OFFCURVE",
"354 875 OFFCURVE",
"291 875 CURVE SMOOTH",
"210 875 OFFCURVE",
"125 802 OFFCURVE",
"125 642 CURVE SMOOTH",
"125 513 LINE",
"11 513 LINE"
);
}
);
width = 361;
}
);
rightKerningGroup = d;
unicode = 0066;
},
{
glyphname = g;
lastChange = "2018-06-10 11:52:29 +0000";
layers = (
{
anchors = (
{
name = bottom;
position = "{347, -350}";
},
{
name = top;
position = "{347, 513}";
}
);
layerId = "A4E552E4-62BE-43BB-A58F-34F0EE3B77B8";
paths = (
{
closed = 1;
nodes = (
"453 0 LINE",
"453 0 LINE SMOOTH",
"453 -91 OFFCURVE",
"397 -125 OFFCURVE",
"326 -125 CURVE SMOOTH",
"249 -125 OFFCURVE",
"206 -86 OFFCURVE",
"187 -55 CURVE",
"43 -142 LINE",
"116 -247 OFFCURVE",
"219 -275 OFFCURVE",
"326 -275 CURVE SMOOTH",
"501 -275 OFFCURVE",
"628 -186 OFFCURVE",
"628 -14 CURVE SMOOTH",
"628 0 LINE"
);
},
{
closed = 1;
nodes = (
"28 106 OFFCURVE",
"133 -15 OFFCURVE",
"283 -15 CURVE SMOOTH",
"383 -15 OFFCURVE",
"440 52 OFFCURVE",
"451 78 CURVE",
"453 78 LINE",
"453 0 LINE",
"628 0 LINE",
"628 513 LINE",
"451 513 LINE",
"451 444 LINE",
"435 475 OFFCURVE",
"382 528 OFFCURVE",
"283 528 CURVE SMOOTH",
"133 528 OFFCURVE",
"28 406 OFFCURVE",
"28 256 CURVE SMOOTH"
);
},
{
closed = 1;
nodes = (
"216 327 OFFCURVE",
"269 377 OFFCURVE",
"336 377 CURVE SMOOTH",
"402 377 OFFCURVE",
"451 327 OFFCURVE",
"451 256 CURVE SMOOTH",
"451 186 OFFCURVE",
"405 136 OFFCURVE",
"336 136 CURVE SMOOTH",
"264 136 OFFCURVE",
"216 186 OFFCURVE",
"216 256 CURVE SMOOTH"
);
}
);
width = 708;
},
{
anchors = (
{
name = bottom;
position = "{304, -350}";
},
{
name = top;
position = "{304, 513}";
}
);
layerId = "7B60DD57-6012-4D0F-BD38-A72A4BAC0E9D";
paths = (
{
closed = 1;
nodes = (
"475 -1 LINE",
"475 -1 LINE SMOOTH",
"475 -109 OFFCURVE",
"427 -211 OFFCURVE",
"290 -211 CURVE SMOOTH",
"153 -211 OFFCURVE",
"129 -150 OFFCURVE",
"116 -130 CURVE",
"49 -168 LINE",
"81 -222 OFFCURVE",
"163 -275 OFFCURVE",
"290 -275 CURVE SMOOTH",
"425 -275 OFFCURVE",
"543 -184 OFFCURVE",
"543 -15 CURVE SMOOTH",
"543 -1 LINE"
);
},
{
closed = 1;
nodes = (
"28 86 OFFCURVE",
"143 -15 OFFCURVE",
"283 -15 CURVE SMOOTH",
"403 -15 OFFCURVE",
"467 62 OFFCURVE",
"473 91 CURVE",
"475 91 LINE",
"475 -1 LINE",
"543 -1 LINE",
"543 513 LINE",
"473 513 LINE",
"473 424 LINE",
"466 457 OFFCURVE",
"402 528 OFFCURVE",
"283 528 CURVE SMOOTH",
"143 528 OFFCURVE",
"28 426 OFFCURVE",
"28 256 CURVE SMOOTH"
);
},
{
closed = 1;
nodes = (
"98 387 OFFCURVE",
"184 464 OFFCURVE",
"283 464 CURVE SMOOTH",
"392 464 OFFCURVE",
"473 377 OFFCURVE",
"473 256 CURVE SMOOTH",
"473 136 OFFCURVE",
"395 49 OFFCURVE",
"283 49 CURVE SMOOTH",
"184 49 OFFCURVE",
"98 126 OFFCURVE",
"98 256 CURVE SMOOTH"
);
}
);
width = 623;
}
);
leftKerningGroup = g;
rightKerningGroup = g;
unicode = 0067;
},
{
glyphname = h;
lastChange = "2018-06-10 11:52:29 +0000";
layers = (
{
anchors = (
{
name = bottom;
position = "{336, 0}";
},
{
name = center;
position = "{336, 450}";
},
{
name = top;
position = "{336, 900}";
}
);
layerId = "A4E552E4-62BE-43BB-A58F-34F0EE3B77B8";
paths = (
{
closed = 1;
nodes = (
"326 528 OFFCURVE",
"258 479 OFFCURVE",
"242 435 CURVE",
"242 860 LINE",
"65 860 LINE",
"65 0 LINE",
"242 0 LINE",
"242 270 LINE SMOOTH",
"242 341 OFFCURVE",
"294 390 OFFCURVE",
"347 390 CURVE SMOOTH",
"402 390 OFFCURVE",
"439 362 OFFCURVE",
"439 293 CURVE SMOOTH",
"439 0 LINE",
"616 0 LINE",
"616 338 LINE SMOOTH",
"616 486 OFFCURVE",
"505 528 OFFCURVE",
"411 528 CURVE SMOOTH"
);
}
);
width = 686;
},
{
anchors = (
{
name = bottom;
position = "{286, 0}";
},
{
name = center;
position = "{286, 450}";
},
{
name = top;
position = "{286, 900}";
}
);
layerId = "7B60DD57-6012-4D0F-BD38-A72A4BAC0E9D";
paths = (
{
closed = 1;
nodes = (
"246 528 OFFCURVE",
"160 459 OFFCURVE",
"144 405 CURVE",
"144 860 LINE",
"75 860 LINE",
"75 0 LINE",
"144 0 LINE",
"144 270 LINE SMOOTH",
"144 381 OFFCURVE",
"254 464 OFFCURVE",
"327 464 CURVE SMOOTH",
"402 464 OFFCURVE",
"438 422 OFFCURVE",
"438 293 CURVE SMOOTH",
"438 0 LINE",
"506 0 LINE",
"506 338 LINE SMOOTH",
"506 466 OFFCURVE",
"435 528 OFFCURVE",
"341 528 CURVE SMOOTH"
);
}
);
width = 586;
}
);
rightKerningGroup = b;
unicode = 0068;
},
{
glyphname = hbar;
lastChange = "2018-06-10 11:52:29 +0000";
layers = (
{
components = (
{
name = h;
transform = "{1, 0, 0, 1, 10, 0}";
}
);
layerId = "7B60DD57-6012-4D0F-BD38-A72A4BAC0E9D";
paths = (
{
closed = 1;
nodes = (
"289 648 LINE",
"289 702 LINE",
"7 702 LINE",
"7 648 LINE"
);
}
);
width = 586;
},
{
components = (
{
name = h;
transform = "{1, 0, 0, 1, 10, 0}";
}
);
layerId = "A4E552E4-62BE-43BB-A58F-34F0EE3B77B8";
paths = (
{
closed = 1;
nodes = (
"369 628 LINE",
"369 742 LINE",
"7 742 LINE",
"7 628 LINE"
);
}
);
width = 686;
}
);
unicode = 0127;
},
{
glyphname = i;
lastChange = "2018-06-10 11:52:29 +0000";
layers = (
{
anchors = (
{
name = bottom;
position = "{156, 0}";
}
);
layerId = "A4E552E4-62BE-43BB-A58F-34F0EE3B77B8";
paths = (
{
closed = 1;
nodes = (
"242 0 LINE",
"242 513 LINE",
"65 513 LINE",
"65 0 LINE"
);
},
{
closed = 1;
nodes = (
"214 620 OFFCURVE",
"261 667 OFFCURVE",
"261 725 CURVE SMOOTH",
"261 783 OFFCURVE",
"214 830 OFFCURVE",
"156 830 CURVE SMOOTH",
"98 830 OFFCURVE",
"51 783 OFFCURVE",
"51 725 CURVE SMOOTH",
"51 667 OFFCURVE",
"98 620 OFFCURVE",
"156 620 CURVE SMOOTH"
);
}
);
width = 327;
},
{
anchors = (
{
name = bottom;
position = "{109, 0}";
}
);
layerId = "7B60DD57-6012-4D0F-BD38-A72A4BAC0E9D";
paths = (
{
closed = 1;
nodes = (
"141 0 LINE",
"141 513 LINE",
"74 513 LINE",
"74 0 LINE"
);
},
{
closed = 1;
nodes = (
"139 722 OFFCURVE",
"163 746 OFFCURVE",
"163 776 CURVE SMOOTH",
"163 806 OFFCURVE",
"139 830 OFFCURVE",
"109 830 CURVE SMOOTH",
"79 830 OFFCURVE",
"55 806 OFFCURVE",
"55 776 CURVE SMOOTH",
"55 746 OFFCURVE",
"79 722 OFFCURVE",
"109 722 CURVE SMOOTH"
);
}
);
width = 233;
}
);
leftKerningGroup = i;
rightKerningGroup = d;
unicode = 0069;
},
{
glyphname = idotless;
lastChange = "2018-06-10 11:52:29 +0000";
layers = (
{
anchors = (
{
name = bottom;
position = "{140, 0}";
},
{
name = ogonek;
position = "{247, 10}";
},
{
name = top;
position = "{140, 513}";
}
);
layerId = "A4E552E4-62BE-43BB-A58F-34F0EE3B77B8";
paths = (
{
closed = 1;
nodes = (
"228 0 LINE",
"228 513 LINE",
"51 513 LINE",
"51 0 LINE"
);
}
);
width = 294;
},
{
anchors = (
{
name = bottom;
position = "{89, 0}";
},
{
name = ogonek;
position = "{155, 10}";
},
{
name = top;
position = "{89, 513}";
}
);
layerId = "7B60DD57-6012-4D0F-BD38-A72A4BAC0E9D";
paths = (
{
closed = 1;
nodes = (
"122 0 LINE",
"122 513 LINE",
"55 513 LINE",
"55 0 LINE"
);
}
);
width = 192;
}
);
leftKerningGroup = i;
rightKerningGroup = d;
unicode = 0131;
},
{
glyphname = j;
lastChange = "2018-06-10 11:52:29 +0000";
layers = (
{
layerId = "A4E552E4-62BE-43BB-A58F-34F0EE3B77B8";
paths = (
{
closed = 1;
nodes = (
"242 -79 LINE SMOOTH",
"242 -170 OFFCURVE",
"198 -275 OFFCURVE",
"57 -275 CURVE SMOOTH",
"-27 -275 OFFCURVE",
"-59 -254 OFFCURVE",
"-84 -243 CURVE",
"-29 -100 LINE",
"-29 -100 OFFCURVE",
"-6 -115 OFFCURVE",
"16 -115 CURVE SMOOTH",
"46 -115 OFFCURVE",
"65 -93 OFFCURVE",
"65 -45 CURVE SMOOTH",
"65 513 LINE",
"242 513 LINE"
);
},
{
closed = 1;
nodes = (
"98 830 OFFCURVE",
"51 783 OFFCURVE",
"51 725 CURVE SMOOTH",
"51 667 OFFCURVE",
"98 620 OFFCURVE",
"156 620 CURVE SMOOTH",
"214 620 OFFCURVE",
"261 667 OFFCURVE",
"261 725 CURVE SMOOTH",
"261 783 OFFCURVE",
"214 830 OFFCURVE",
"156 830 CURVE SMOOTH"
);
}
);
width = 322;
},
{
layerId = "7B60DD57-6012-4D0F-BD38-A72A4BAC0E9D";
paths = (
{
closed = 1;
nodes = (
"142 -79 LINE SMOOTH",
"142 -180 OFFCURVE",
"114 -275 OFFCURVE",
"7 -275 CURVE SMOOTH",
"-47 -275 OFFCURVE",
"-81 -255 OFFCURVE",
"-84 -253 CURVE",
"-54 -190 LINE",
"-54 -190 OFFCURVE",
"-37 -213 OFFCURVE",
"5 -213 CURVE SMOOTH",
"65 -213 OFFCURVE",
"74 -143 OFFCURVE",
"74 -45 CURVE SMOOTH",
"74 513 LINE",
"142 513 LINE"
);
},
{
closed = 1;
nodes = (
"82 830 OFFCURVE",
"58 806 OFFCURVE",
"58 776 CURVE SMOOTH",
"58 746 OFFCURVE",
"82 722 OFFCURVE",
"112 722 CURVE SMOOTH",
"142 722 OFFCURVE",
"166 746 OFFCURVE",
"166 776 CURVE SMOOTH",
"166 806 OFFCURVE",
"142 830 OFFCURVE",
"112 830 CURVE SMOOTH"
);
}
);
width = 227;
}
);
rightKerningGroup = d;
unicode = 006A;
},
{
glyphname = k;
lastChange = "2018-06-10 11:52:29 +0000";
layers = (
{
anchors = (
{
name = bottom;
position = "{328, 0}";
},
{
name = top;
position = "{328, 900}";
}
);
layerId = "A4E552E4-62BE-43BB-A58F-34F0EE3B77B8";
paths = (
{
closed = 1;
nodes = (
"242 334 LINE",
"242 860 LINE",
"65 860 LINE",
"65 0 LINE",
"242 0 LINE",
"242 205 LINE",
"447 0 LINE",
"675 0 LINE",
"407 268 LINE",
"651 513 LINE",
"421 513 LINE"
);
}
);
width = 671;
},
{
anchors = (
{
name = bottom;
position = "{238, 0}";
},
{
name = top;
position = "{238, 900}";
}
);
layerId = "7B60DD57-6012-4D0F-BD38-A72A4BAC0E9D";
paths = (
{
closed = 1;
nodes = (
"133 295 LINE",
"133 860 LINE",
"65 860 LINE",
"65 0 LINE",
"133 0 LINE",
"133 235 LINE",
"392 0 LINE",
"485 0 LINE",
"189 267 LINE",
"471 513 LINE",
"381 513 LINE"
);
}
);
width = 491;
}
);
rightKerningGroup = d;
unicode = 006B;
},
{
glyphname = l;
lastChange = "2018-06-10 11:52:29 +0000";
layers = (
{
anchors = (
{
name = bottom;
position = "{154, 0}";
},
{
name = center;
position = "{154, 450}";
},
{
name = top;
position = "{154, 900}";
},
{
name = topright;
position = "{282, 900}";
}
);
layerId = "A4E552E4-62BE-43BB-A58F-34F0EE3B77B8";
paths = (
{
closed = 1;
nodes = (
"242 860 LINE",
"65 860 LINE",
"65 0 LINE",
"242 0 LINE"
);
}
);
width = 322;
},
{
anchors = (
{
name = bottom;
position = "{99, 0}";
},
{
name = center;
position = "{99, 450}";
},
{
name = top;
position = "{99, 900}";
},
{
name = topright;
position = "{173, 900}";
}
);
layerId = "7B60DD57-6012-4D0F-BD38-A72A4BAC0E9D";
paths = (
{
closed = 1;
nodes = (
"133 860 LINE",
"65 860 LINE",
"65 0 LINE",
"133 0 LINE"
);
}
);
width = 213;
}
);
leftKerningGroup = i;
rightKerningGroup = d;
unicode = 006C;
},
{
glyphname = lslash;
lastChange = "2018-06-10 11:52:29 +0000";
layers = (
{
layerId = "A4E552E4-62BE-43BB-A58F-34F0EE3B77B8";
paths = (
{
closed = 1;
nodes = (
"278 0 LINE",
"278 449 LINE",
"354 509 LINE",
"354 662 LINE",
"278 602 LINE",
"278 860 LINE",
"101 860 LINE",
"101 463 LINE",
"25 403 LINE",
"25 250 LINE",
"101 310 LINE",
"101 0 LINE"
);
}
);
width = 394;
},
{
layerId = "7B60DD57-6012-4D0F-BD38-A72A4BAC0E9D";
paths = (
{
closed = 1;
nodes = (
"153 0 LINE",
"153 420 LINE",
"226 477 LINE",
"226 561 LINE",
"153 504 LINE",
"153 860 LINE",
"85 860 LINE",
"85 450 LINE",
"25 403 LINE",
"25 319 LINE",
"85 366 LINE",
"85 0 LINE"
);
}
);
width = 266;
}
);
rightKerningGroup = d;
unicode = 0142;
},
{
glyphname = m;
lastChange = "2018-06-10 11:52:29 +0000";
layers = (
{
anchors = (
{
name = bottom;
position = "{493, 0}";
},
{
name = top;
position = "{493, 513}";
}
);
layerId = "A4E552E4-62BE-43BB-A58F-34F0EE3B77B8";
paths = (
{
closed = 1;
nodes = (
"647 528 OFFCURVE",
"585 481 OFFCURVE",
"567 438 CURVE",
"536 506 OFFCURVE",
"469 528 OFFCURVE",
"401 528 CURVE SMOOTH",
"316 528 OFFCURVE",
"258 479 OFFCURVE",
"242 435 CURVE",
"242 513 LINE",
"65 513 LINE",
"65 0 LINE",
"242 0 LINE",
"242 270 LINE SMOOTH",
"242 341 OFFCURVE",
"284 390 OFFCURVE",
"337 390 CURVE SMOOTH",
"392 390 OFFCURVE",
"419 362 OFFCURVE",
"419 293 CURVE SMOOTH",
"419 0 LINE",
"581 0 LINE",
"581 280 LINE SMOOTH",
"581 351 OFFCURVE",
"613 390 OFFCURVE",
"666 390 CURVE SMOOTH",
"721 390 OFFCURVE",
"748 362 OFFCURVE",
"748 293 CURVE SMOOTH",
"748 0 LINE",
"925 0 LINE",
"925 338 LINE SMOOTH",
"925 486 OFFCURVE",
"824 528 OFFCURVE",
"730 528 CURVE SMOOTH"
);
}
);
width = 1000;
},
{
anchors = (
{
name = bottom;
position = "{428, 0}";
},
{
name = top;
position = "{428, 513}";
}
);
layerId = "7B60DD57-6012-4D0F-BD38-A72A4BAC0E9D";
paths = (
{
closed = 1;
nodes = (
"544 528 OFFCURVE",
"475 475 OFFCURVE",
"457 418 CURVE",
"446 471 OFFCURVE",
"400 528 OFFCURVE",
"311 528 CURVE SMOOTH",
"223 528 OFFCURVE",
"149 473 OFFCURVE",
"133 415 CURVE",
"133 513 LINE",
"65 513 LINE",
"65 0 LINE",
"133 0 LINE",
"133 270 LINE SMOOTH",
"133 408 OFFCURVE",
"239 464 OFFCURVE",
"292 464 CURVE SMOOTH",
"357 464 OFFCURVE",
"404 432 OFFCURVE",
"404 293 CURVE SMOOTH",
"404 0 LINE",
"471 0 LINE",
"471 280 LINE SMOOTH",
"471 418 OFFCURVE",
"568 464 OFFCURVE",
"621 464 CURVE SMOOTH",
"686 464 OFFCURVE",
"728 432 OFFCURVE",
"728 293 CURVE SMOOTH",
"728 0 LINE",
"795 0 LINE",
"795 328 LINE SMOOTH",
"795 476 OFFCURVE",
"715 528 OFFCURVE",
"630 528 CURVE SMOOTH"
);
}
);
width = 870;
}
);
leftKerningGroup = r;
rightKerningGroup = b;
unicode = 006D;
},
{
glyphname = n;
lastChange = "2018-06-10 11:52:29 +0000";
layers = (
{
anchors = (
{
name = bottom;
position = "{336, 0}";
},
{
name = top;
position = "{336, 513}";
}
);
layerId = "A4E552E4-62BE-43BB-A58F-34F0EE3B77B8";
paths = (
{
closed = 1;
nodes = (
"242 270 LINE SMOOTH",
"242 341 OFFCURVE",
"294 390 OFFCURVE",
"347 390 CURVE SMOOTH",
"402 390 OFFCURVE",
"439 362 OFFCURVE",
"439 293 CURVE SMOOTH",
"439 0 LINE",
"616 0 LINE",
"616 338 LINE SMOOTH",
"616 486 OFFCURVE",
"505 528 OFFCURVE",
"411 528 CURVE SMOOTH",
"326 528 OFFCURVE",
"258 479 OFFCURVE",
"242 435 CURVE",
"242 439 LINE",
"242 513 LINE",
"65 513 LINE",
"65 0 LINE",
"242 0 LINE"
);
}
);
width = 686;
},
{
anchors = (
{
name = bottom;
position = "{281, 0}";
},
{
name = top;
position = "{281, 513}";
}
);
layerId = "7B60DD57-6012-4D0F-BD38-A72A4BAC0E9D";
paths = (
{
closed = 1;
nodes = (
"133 270 LINE SMOOTH",
"133 371 OFFCURVE",
"243 464 OFFCURVE",
"326 464 CURVE SMOOTH",
"403 464 OFFCURVE",
"438 422 OFFCURVE",
"438 293 CURVE SMOOTH",
"438 0 LINE",
"506 0 LINE",
"506 338 LINE SMOOTH",
"506 486 OFFCURVE",
"425 528 OFFCURVE",
"339 528 CURVE SMOOTH",
"254 528 OFFCURVE",
"152 469 OFFCURVE",
"133 405 CURVE",
"133 409 LINE",
"133 513 LINE",
"65 513 LINE",
"65 0 LINE",
"133 0 LINE"
);
}
);
width = 576;
}
);
leftKerningGroup = r;
rightKerningGroup = b;
unicode = 006E;
},
{
glyphname = eng;
lastChange = "2018-06-10 11:52:29 +0000";
layers = (
{
components = (
{
name = n;
transform = "{1, 0, 0, 1, 10, 0}";
}
);
layerId = "7B60DD57-6012-4D0F-BD38-A72A4BAC0E9D";
paths = (
{
closed = 1;
nodes = (
"506 -79 LINE SMOOTH",
"506 -180 OFFCURVE",
"478 -275 OFFCURVE",
"371 -275 CURVE SMOOTH",
"317 -275 OFFCURVE",
"283 -255 OFFCURVE",
"280 -253 CURVE",
"310 -190 LINE",
"310 -190 OFFCURVE",
"327 -213 OFFCURVE",
"369 -213 CURVE SMOOTH",
"429 -213 OFFCURVE",
"438 -143 OFFCURVE",
"438 -45 CURVE SMOOTH",
"438 0 LINE",
"506 0 LINE"
);
}
);
width = 576;
},
{
components = (
{
name = n;
transform = "{1, 0, 0, 1, 10, 0}";
}
);
layerId = "A4E552E4-62BE-43BB-A58F-34F0EE3B77B8";
paths = (
{
closed = 1;
nodes = (
"616 -79 LINE SMOOTH",
"616 -170 OFFCURVE",
"572 -275 OFFCURVE",
"431 -275 CURVE SMOOTH",
"347 -275 OFFCURVE",
"315 -254 OFFCURVE",
"290 -243 CURVE",
"345 -100 LINE",
"345 -100 OFFCURVE",
"368 -115 OFFCURVE",
"390 -115 CURVE SMOOTH",
"420 -115 OFFCURVE",
"439 -93 OFFCURVE",
"439 -45 CURVE SMOOTH",
"439 0 LINE",
"616 0 LINE"
);
}
);
width = 686;
}
);
unicode = 014B;
},
{
glyphname = o;
lastChange = "2018-06-10 11:52:29 +0000";
layers = (
{
anchors = (
{
name = bottom;
position = "{313, 0}";
},
{
name = center;
position = "{313, 257}";
},
{
name = ogonek;
position = "{559, 10}";
},
{
name = top;
position = "{313, 513}";
},
{
name = topright;
position = "{601, 513}";
}
);
layerId = "A4E552E4-62BE-43BB-A58F-34F0EE3B77B8";
paths = (
{
closed = 1;
nodes = (
"480 -15 OFFCURVE",
"601 98 OFFCURVE",
"601 255 CURVE SMOOTH",
"601 415 OFFCURVE",
"473 528 OFFCURVE",
"314 528 CURVE SMOOTH",
"152 528 OFFCURVE",
"25 415 OFFCURVE",
"25 255 CURVE SMOOTH",
"25 98 OFFCURVE",
"141 -15 OFFCURVE",
"314 -15 CURVE SMOOTH"
);
},
{
closed = 1;
nodes = (
"243 136 OFFCURVE",
"195 186 OFFCURVE",
"195 256 CURVE SMOOTH",
"195 327 OFFCURVE",
"248 377 OFFCURVE",
"315 377 CURVE SMOOTH",
"381 377 OFFCURVE",
"434 327 OFFCURVE",
"434 256 CURVE SMOOTH",
"434 186 OFFCURVE",
"384 136 OFFCURVE",
"315 136 CURVE SMOOTH"
);
}
);
width = 641;
},
{
anchors = (
{
name = bottom;
position = "{288, 0}";
},
{
name = center;
position = "{288, 257}";
},
{
name = ogonek;
position = "{514, 10}";
},
{
name = top;
position = "{288, 513}";
},
{
name = topright;
position = "{551, 513}";
}
);
layerId = "7B60DD57-6012-4D0F-BD38-A72A4BAC0E9D";
paths = (
{
closed = 1;
nodes = (
"455 -15 OFFCURVE",
"551 98 OFFCURVE",
"551 255 CURVE SMOOTH",
"551 415 OFFCURVE",
"448 528 OFFCURVE",
"289 528 CURVE SMOOTH",
"127 528 OFFCURVE",
"25 415 OFFCURVE",
"25 255 CURVE SMOOTH",
"25 98 OFFCURVE",
"116 -15 OFFCURVE",
"289 -15 CURVE SMOOTH"
);
},
{
closed = 1;
nodes = (
"173 49 OFFCURVE",
"94 122 OFFCURVE",
"94 256 CURVE SMOOTH",
"94 391 OFFCURVE",
"182 464 OFFCURVE",
"290 464 CURVE SMOOTH",
"397 464 OFFCURVE",
"485 391 OFFCURVE",
"485 256 CURVE SMOOTH",
"485 122 OFFCURVE",
"402 49 OFFCURVE",
"290 49 CURVE SMOOTH"
);
}
);
width = 591;
}
);
leftKerningGroup = c;
rightKerningGroup = c;
unicode = 006F;
},
{
glyphname = oslash;
lastChange = "2018-06-10 11:52:29 +0000";
layers = (
{
layerId = "A4E552E4-62BE-43BB-A58F-34F0EE3B77B8";
paths = (
{
closed = 1;
nodes = (
"132 46 LINE",
"184 7 OFFCURVE",
"255 -15 OFFCURVE",
"337 -15 CURVE SMOOTH",
"514 -15 OFFCURVE",
"643 98 OFFCURVE",
"643 256 CURVE SMOOTH",
"643 317 OFFCURVE",
"623 372 OFFCURVE",
"588 415 CURVE",
"673 484 LINE",
"628 538 LINE",
"538 465 LINE",
"484 505 OFFCURVE",
"414 528 OFFCURVE",
"337 528 CURVE SMOOTH",
"164 528 OFFCURVE",
"28 416 OFFCURVE",
"28 256 CURVE SMOOTH",
"28 194 OFFCURVE",
"47 139 OFFCURVE",
"81 95 CURVE",
"-2 28 LINE",
"43 -26 LINE"
);
},
{
closed = 1;
nodes = (
"309 136 OFFCURVE",
"286 143 OFFCURVE",
"267 155 CURVE",
"447 301 LINE",
"452 287 OFFCURVE",
"455 272 OFFCURVE",
"455 256 CURVE SMOOTH",
"455 186 OFFCURVE",
"405 136 OFFCURVE",
"336 136 CURVE SMOOTH"
);
},
{
closed = 1;
nodes = (
"218 224 OFFCURVE",
"216 239 OFFCURVE",
"216 256 CURVE SMOOTH",
"216 327 OFFCURVE",
"269 377 OFFCURVE",
"336 377 CURVE SMOOTH",
"361 377 OFFCURVE",
"385 369 OFFCURVE",
"404 356 CURVE",
"223 210 LINE"
);
}
);
width = 686;
},
{
layerId = "7B60DD57-6012-4D0F-BD38-A72A4BAC0E9D";
paths = (
{
closed = 1;
nodes = (
"113 45 LINE",
"156 7 OFFCURVE",
"215 -15 OFFCURVE",
"289 -15 CURVE SMOOTH",
"455 -15 OFFCURVE",
"551 108 OFFCURVE",
"551 255 CURVE SMOOTH",
"551 321 OFFCURVE",
"531 383 OFFCURVE",
"495 430 CURVE",
"548 484 LINE",
"503 538 LINE",
"445 479 LINE",
"403 510 OFFCURVE",
"350 528 OFFCURVE",
"289 528 CURVE SMOOTH",
"127 528 OFFCURVE",
"25 405 OFFCURVE",
"25 255 CURVE SMOOTH",
"25 197 OFFCURVE",
"39 142 OFFCURVE",
"67 98 CURVE",
"-2 28 LINE",
"43 -26 LINE"
);
},
{
closed = 1;
nodes = (
"238 49 OFFCURVE",
"195 65 OFFCURVE",
"162 94 CURVE",
"447 382 LINE",
"470 348 OFFCURVE",
"483 305 OFFCURVE",
"483 256 CURVE SMOOTH",
"483 132 OFFCURVE",
"402 49 OFFCURVE",
"290 49 CURVE SMOOTH"
);
},
{
closed = 1;
nodes = (
"104 180 OFFCURVE",
"96 216 OFFCURVE",
"96 256 CURVE SMOOTH",
"96 381 OFFCURVE",
"182 464 OFFCURVE",
"290 464 CURVE SMOOTH",
"330 464 OFFCURVE",
"367 452 OFFCURVE",
"398 432 CURVE",
"119 150 LINE"
);
}
);
width = 581;
}
);
leftKerningGroup = c;
rightKerningGroup = c;
unicode = 00F8;
},
{
glyphname = p;
lastChange = "2018-06-10 11:52:29 +0000";
layers = (
{
anchors = (
{
name = bottom;
position = "{347, 0}";
},
{
name = top;
position = "{347, 513}";
}
);
layerId = "A4E552E4-62BE-43BB-A58F-34F0EE3B77B8";
paths = (
{
closed = 1;
nodes = (
"559 -15 OFFCURVE",
"664 107 OFFCURVE",
"664 257 CURVE SMOOTH",
"664 407 OFFCURVE",
"559 528 OFFCURVE",
"409 528 CURVE SMOOTH",
"309 528 OFFCURVE",
"252 461 OFFCURVE",
"241 435 CURVE",
"240 435 LINE",
"240 513 LINE",
"66 513 LINE",
"65 513 LINE",
"65 -260 LINE",
"242 -260 LINE",
"241 69 LINE",
"257 38 OFFCURVE",
"310 -15 OFFCURVE",
"409 -15 CURVE SMOOTH"
);
},
{
closed = 1;
nodes = (
"431 377 OFFCURVE",
"479 327 OFFCURVE",
"479 257 CURVE SMOOTH",
"479 186 OFFCURVE",
"426 136 OFFCURVE",
"359 136 CURVE SMOOTH",
"293 136 OFFCURVE",
"244 186 OFFCURVE",
"244 257 CURVE SMOOTH",
"244 327 OFFCURVE",
"290 377 OFFCURVE",
"359 377 CURVE SMOOTH"
);
}
);
width = 708;
},
{
anchors = (
{
name = bottom;
position = "{302, 0}";
},
{
name = top;
position = "{302, 513}";
}
);
layerId = "7B60DD57-6012-4D0F-BD38-A72A4BAC0E9D";
paths = (
{
closed = 1;
nodes = (
"464 -15 OFFCURVE",
"574 97 OFFCURVE",
"574 257 CURVE SMOOTH",
"574 417 OFFCURVE",
"459 528 OFFCURVE",
"329 528 CURVE SMOOTH",
"193 528 OFFCURVE",
"143 441 OFFCURVE",
"132 415 CURVE",
"131 415 LINE",
"131 513 LINE",
"66 513 LINE",
"65 513 LINE",
"65 -260 LINE",
"133 -260 LINE",
"132 89 LINE",
"148 58 OFFCURVE",
"199 -15 OFFCURVE",
"329 -15 CURVE SMOOTH"
);
},
{
closed = 1;
nodes = (
"426 464 OFFCURVE",
"506 397 OFFCURVE",
"506 257 CURVE SMOOTH",
"506 116 OFFCURVE",
"421 49 OFFCURVE",
"324 49 CURVE SMOOTH",
"238 49 OFFCURVE",
"135 116 OFFCURVE",
"135 257 CURVE SMOOTH",
"135 397 OFFCURVE",
"235 464 OFFCURVE",
"324 464 CURVE SMOOTH"
);
}
);
width = 618;
}
);
leftKerningGroup = r;
rightKerningGroup = b;
unicode = 0070;
},
{
glyphname = thorn;
lastChange = "2018-06-10 11:52:29 +0000";
layers = (
{
anchors = (
{
name = bottom;
position = "{347, 0}";
},
{
name = top;
position = "{347, 513}";
}
);
layerId = "A4E552E4-62BE-43BB-A58F-34F0EE3B77B8";
paths = (
{
closed = 1;
nodes = (
"240 -260 LINE",
"240 58 LINE",
"278 16 OFFCURVE",
"340 -15 OFFCURVE",
"410 -15 CURVE SMOOTH",
"560 -15 OFFCURVE",
"665 106 OFFCURVE",
"665 256 CURVE SMOOTH",
"665 406 OFFCURVE",
"560 528 OFFCURVE",
"410 528 CURVE SMOOTH",
"341 528 OFFCURVE",
"284 505 OFFCURVE",
"242 464 CURVE",
"242 860 LINE",
"65 860 LINE",
"65 -260 LINE"
);
},
{
closed = 1;
nodes = (
"288 136 OFFCURVE",
"238 186 OFFCURVE",
"238 256 CURVE SMOOTH",
"238 327 OFFCURVE",
"291 377 OFFCURVE",
"357 377 CURVE SMOOTH",
"424 377 OFFCURVE",
"477 327 OFFCURVE",
"477 256 CURVE SMOOTH",
"477 186 OFFCURVE",
"429 136 OFFCURVE",
"357 136 CURVE SMOOTH"
);
}
);
width = 708;
},
{
anchors = (
{
name = bottom;
position = "{302, 0}";
},
{
name = top;
position = "{302, 513}";
}
);
layerId = "7B60DD57-6012-4D0F-BD38-A72A4BAC0E9D";
paths = (
{
closed = 1;
nodes = (
"133 -260 LINE",
"132 89 LINE",
"148 58 OFFCURVE",
"199 -15 OFFCURVE",
"329 -15 CURVE SMOOTH",
"464 -15 OFFCURVE",
"574 97 OFFCURVE",
"574 257 CURVE SMOOTH",
"574 417 OFFCURVE",
"459 528 OFFCURVE",
"329 528 CURVE SMOOTH",
"193 528 OFFCURVE",
"142 441 OFFCURVE",
"131 415 CURVE",
"131 860 LINE",
"65 860 LINE",
"65 -260 LINE"
);
},
{
closed = 1;
nodes = (
"238 49 OFFCURVE",
"135 116 OFFCURVE",
"135 257 CURVE SMOOTH",
"135 397 OFFCURVE",
"235 464 OFFCURVE",
"324 464 CURVE SMOOTH",
"426 464 OFFCURVE",
"506 397 OFFCURVE",
"506 257 CURVE SMOOTH",
"506 116 OFFCURVE",
"421 49 OFFCURVE",
"324 49 CURVE SMOOTH"
);
}
);
width = 618;
}
);
rightKerningGroup = b;
unicode = 00FE;
},
{
glyphname = q;
lastChange = "2018-06-10 11:52:29 +0000";
layers = (
{
layerId = "A4E552E4-62BE-43BB-A58F-34F0EE3B77B8";
paths = (
{
closed = 1;
nodes = (
"383 -15 OFFCURVE",
"436 38 OFFCURVE",
"452 69 CURVE",
"451 -260 LINE",
"628 -260 LINE",
"628 513 LINE",
"627 513 LINE",
"453 513 LINE",
"453 435 LINE",
"452 435 LINE",
"441 461 OFFCURVE",
"384 528 OFFCURVE",
"284 528 CURVE SMOOTH",
"134 528 OFFCURVE",
"29 407 OFFCURVE",
"29 257 CURVE SMOOTH",
"29 107 OFFCURVE",
"134 -15 OFFCURVE",
"284 -15 CURVE SMOOTH"
);
},
{
closed = 1;
nodes = (
"403 377 OFFCURVE",
"449 327 OFFCURVE",
"449 257 CURVE SMOOTH",
"449 186 OFFCURVE",
"400 136 OFFCURVE",
"334 136 CURVE SMOOTH",
"267 136 OFFCURVE",
"214 186 OFFCURVE",
"214 257 CURVE SMOOTH",
"214 327 OFFCURVE",
"262 377 OFFCURVE",
"334 377 CURVE SMOOTH"
);
}
);
width = 708;
},
{
layerId = "7B60DD57-6012-4D0F-BD38-A72A4BAC0E9D";
paths = (
{
closed = 1;
nodes = (
"392 -15 OFFCURVE",
"441 75 OFFCURVE",
"452 104 CURVE",
"451 -260 LINE",
"522 -260 LINE",
"522 513 LINE",
"521 513 LINE",
"453 513 LINE",
"453 415 LINE",
"452 415 LINE",
"448 437 OFFCURVE",
"392 528 OFFCURVE",
"264 528 CURVE SMOOTH",
"107 528 OFFCURVE",
"24 397 OFFCURVE",
"24 257 CURVE SMOOTH",
"24 117 OFFCURVE",
"107 -15 OFFCURVE",
"264 -15 CURVE SMOOTH"
);
},
{
closed = 1;
nodes = (
"365 467 OFFCURVE",
"449 387 OFFCURVE",
"449 257 CURVE SMOOTH",
"449 127 OFFCURVE",
"365 46 OFFCURVE",
"263 46 CURVE SMOOTH",
"154 46 OFFCURVE",
"94 136 OFFCURVE",
"94 257 CURVE SMOOTH",
"94 377 OFFCURVE",
"154 467 OFFCURVE",
"263 467 CURVE SMOOTH"
);
}
);
width = 602;
}
);
leftKerningGroup = d;
rightKerningGroup = d;
unicode = 0071;
},
{
glyphname = r;
lastChange = "2018-06-10 11:52:29 +0000";
layers = (
{
anchors = (
{
name = bottom;
position = "{254, 0}";
},
{
name = top;
position = "{254, 513}";
}
);
layerId = "A4E552E4-62BE-43BB-A58F-34F0EE3B77B8";
paths = (
{
closed = 1;
nodes = (
"242 270 LINE SMOOTH",
"242 283 OFFCURVE",
"255 374 OFFCURVE",
"347 374 CURVE SMOOTH",
"406 374 OFFCURVE",
"439 346 OFFCURVE",
"439 346 CURVE",
"513 496 LINE",
"513 496 OFFCURVE",
"467 528 OFFCURVE",
"401 528 CURVE SMOOTH",
"300 528 OFFCURVE",
"244 439 OFFCURVE",
"244 439 CURVE SMOOTH",
"242 439 LINE",
"242 513 LINE",
"65 513 LINE",
"65 0 LINE",
"242 0 LINE"
);
}
);
width = 523;
},
{
anchors = (
{
name = bottom;
position = "{192, 0}";
},
{
name = top;
position = "{192, 513}";
}
);
layerId = "7B60DD57-6012-4D0F-BD38-A72A4BAC0E9D";
paths = (
{
closed = 1;
nodes = (
"133 293 LINE SMOOTH",
"133 353 OFFCURVE",
"198 464 OFFCURVE",
"279 464 CURVE SMOOTH",
"330 464 OFFCURVE",
"358 438 OFFCURVE",
"358 438 CURVE",
"388 501 LINE",
"388 501 OFFCURVE",
"348 528 OFFCURVE",
"282 528 CURVE SMOOTH",
"190 528 OFFCURVE",
"144 462 OFFCURVE",
"134 436 CURVE",
"133 436 LINE",
"133 513 LINE",
"65 513 LINE",
"65 0 LINE",
"133 0 LINE"
);
}
);
width = 398;
}
);
leftKerningGroup = r;
rightKerningGroup = r;
unicode = 0072;
},
{
glyphname = s;
lastChange = "2018-06-10 11:54:01 +0000";
layers = (
{
anchors = (
{
name = bottom;
position = "{251, 0}";
},
{
name = top;
position = "{251, 513}";
}
);
layerId = "A4E552E4-62BE-43BB-A58F-34F0EE3B77B8";
paths = (
{
closed = 1;
nodes = (
"153 528 OFFCURVE",
"64 468 OFFCURVE",
"64 363 CURVE SMOOTH",
"64 286 OFFCURVE",
"116 250 OFFCURVE",
"168 223 CURVE SMOOTH",
"226 193 OFFCURVE",
"282 190 OFFCURVE",
"282 153 CURVE SMOOTH",
"282 119 OFFCURVE",
"252 116 OFFCURVE",
"227 116 CURVE SMOOTH",
"170 116 OFFCURVE",
"100 175 OFFCURVE",
"100 175 CURVE",
"28 54 LINE",
"28 54 OFFCURVE",
"102 -15 OFFCURVE",
"226 -15 CURVE SMOOTH",
"331 -15 OFFCURVE",
"469 9 OFFCURVE",
"469 160 CURVE SMOOTH",
"469 265 OFFCURVE",
"381 303 OFFCURVE",
"313 324 CURVE SMOOTH",
"269 338 OFFCURVE",
"233 346 OFFCURVE",
"233 373 CURVE SMOOTH",
"233 397 OFFCURVE",
"249 404 OFFCURVE",
"288 404 CURVE SMOOTH",
"342 404 OFFCURVE",
"402 372 OFFCURVE",
"402 372 CURVE",
"460 488 LINE",
"460 488 OFFCURVE",
"387 528 OFFCURVE",
"288 528 CURVE SMOOTH"
);
}
);
width = 517;
},
{
anchors = (
{
name = bottom;
position = "{220, 0}";
},
{
name = top;
position = "{220, 513}";
}
);
layerId = "7B60DD57-6012-4D0F-BD38-A72A4BAC0E9D";
paths = (
{
closed = 1;
nodes = (
"131 528 OFFCURVE",
"51 478 OFFCURVE",
"51 388 CURVE SMOOTH",
"51 286 OFFCURVE",
"162 257 OFFCURVE",
"213 238 CURVE SMOOTH",
"252 224 OFFCURVE",
"336 203 OFFCURVE",
"336 142 CURVE SMOOTH",
"336 82 OFFCURVE",
"278 49 OFFCURVE",
"205 49 CURVE SMOOTH",
"126 49 OFFCURVE",
"70 105 OFFCURVE",
"70 105 CURVE",
"28 44 LINE",
"28 44 OFFCURVE",
"101 -15 OFFCURVE",
"203 -15 CURVE SMOOTH",
"310 -15 OFFCURVE",
"406 33 OFFCURVE",
"406 143 CURVE SMOOTH",
"406 259 OFFCURVE",
"289 282 OFFCURVE",
"240 298 CURVE SMOOTH",
"201 311 OFFCURVE",
"123 331 OFFCURVE",
"123 389 CURVE SMOOTH",
"123 433 OFFCURVE",
"164 466 OFFCURVE",
"237 464 CURVE SMOOTH",
"308 462 OFFCURVE",
"350 432 OFFCURVE",
"350 432 CURVE",
"381 498 LINE",
"381 498 OFFCURVE",
"326 528 OFFCURVE",
"237 528 CURVE SMOOTH"
);
}
);
width = 454;
}
);
leftKerningGroup = s;
rightKerningGroup = s;
unicode = 0073;
},
{
glyphname = germandbls;
lastChange = "2018-06-10 11:52:29 +0000";
layers = (
{
anchors = (
{
name = bottom;
position = "{348, 0}";
},
{
name = top;
position = "{348, 513}";
}
);
layerId = "A4E552E4-62BE-43BB-A58F-34F0EE3B77B8";
paths = (
{
closed = 1;
nodes = (
"361 -15 LINE",
"539 -15 OFFCURVE",
"668 97 OFFCURVE",
"668 255 CURVE SMOOTH",
"668 356 OFFCURVE",
"616 423 OFFCURVE",
"536 460 CURVE",
"597 494 OFFCURVE",
"636 551 OFFCURVE",
"636 630 CURVE SMOOTH",
"636 768 OFFCURVE",
"522 875 OFFCURVE",
"368 875 CURVE SMOOTH",
"204 875 OFFCURVE",
"95 772 OFFCURVE",
"95 622 CURVE",
"95 0 LINE",
"272 0 LINE",
"272 636 LINE SMOOTH",
"272 695 OFFCURVE",
"334 726 OFFCURVE",
"368 726 CURVE SMOOTH",
"426 726 OFFCURVE",
"469 690 OFFCURVE",
"469 630 CURVE SMOOTH",
"469 567 OFFCURVE",
"419 524 OFFCURVE",
"361 524 CURVE",
"361 389 LINE",
"437 389 OFFCURVE",
"480 338 OFFCURVE",
"480 264 CURVE SMOOTH",
"480 194 OFFCURVE",
"430 147 OFFCURVE",
"361 147 CURVE"
);
}
);
width = 711;
},
{
anchors = (
{
name = bottom;
position = "{298, 0}";
},
{
name = top;
position = "{298, 513}";
}
);
layerId = "7B60DD57-6012-4D0F-BD38-A72A4BAC0E9D";
paths = (
{
closed = 1;
nodes = (
"281 -15 LINE",
"459 -15 OFFCURVE",
"568 77 OFFCURVE",
"568 235 CURVE SMOOTH",
"568 336 OFFCURVE",
"480 437 OFFCURVE",
"400 454 CURVE",
"464 472 OFFCURVE",
"530 571 OFFCURVE",
"530 660 CURVE SMOOTH",
"530 798 OFFCURVE",
"442 875 OFFCURVE",
"318 875 CURVE SMOOTH",
"184 875 OFFCURVE",
"95 772 OFFCURVE",
"95 622 CURVE",
"95 0 LINE",
"163 0 LINE",
"163 636 LINE SMOOTH",
"163 735 OFFCURVE",
"214 814 OFFCURVE",
"318 814 CURVE SMOOTH",
"396 814 OFFCURVE",
"459 777 OFFCURVE",
"459 667 CURVE SMOOTH",
"459 574 OFFCURVE",
"399 484 OFFCURVE",
"281 484 CURVE",
"281 419 LINE",
"417 419 OFFCURVE",
"495 327 OFFCURVE",
"495 233 CURVE SMOOTH",
"495 133 OFFCURVE",
"430 53 OFFCURVE",
"281 53 CURVE"
);
}
);
width = 611;
}
);
rightKerningGroup = d;
unicode = 00DF;
},
{
glyphname = t;
lastChange = "2018-06-10 11:52:29 +0000";
layers = (
{
anchors = (
{
name = bottom;
position = "{253, 0}";
},
{
name = center;
position = "{203, 257}";
},
{
name = top;
position = "{203, 655}";
},
{
name = topright;
position = "{380, 513}";
}
);
layerId = "A4E552E4-62BE-43BB-A58F-34F0EE3B77B8";
paths = (
{
closed = 1;
nodes = (
"21 378 LINE",
"95 378 LINE",
"95 181 LINE SMOOTH",
"95 90 OFFCURVE",
"129 -15 OFFCURVE",
"270 -15 CURVE SMOOTH",
"343 -15 OFFCURVE",
"400 17 OFFCURVE",
"400 17 CURVE",
"356 160 LINE",
"356 160 OFFCURVE",
"335 144 OFFCURVE",
"312 144 CURVE SMOOTH",
"284 144 OFFCURVE",
"272 167 OFFCURVE",
"272 215 CURVE SMOOTH",
"272 378 LINE",
"380 378 LINE",
"380 513 LINE",
"272 513 LINE",
"272 704 LINE",
"95 704 LINE",
"95 513 LINE",
"21 513 LINE"
);
}
);
width = 420;
},
{
anchors = (
{
name = bottom;
position = "{223, 0}";
},
{
name = center;
position = "{173, 257}";
},
{
name = top;
position = "{173, 673}";
},
{
name = topright;
position = "{320, 513}";
}
);
layerId = "7B60DD57-6012-4D0F-BD38-A72A4BAC0E9D";
paths = (
{
closed = 1;
nodes = (
"21 448 LINE",
"125 448 LINE",
"125 161 LINE SMOOTH",
"125 70 OFFCURVE",
"139 -15 OFFCURVE",
"240 -15 CURVE SMOOTH",
"297 -15 OFFCURVE",
"335 13 OFFCURVE",
"335 13 CURVE",
"312 68 LINE",
"312 68 OFFCURVE",
"281 49 OFFCURVE",
"245 49 CURVE SMOOTH",
"217 49 OFFCURVE",
"193 73 OFFCURVE",
"193 144 CURVE SMOOTH",
"193 448 LINE",
"331 448 LINE",
"331 513 LINE",
"193 513 LINE",
"193 704 LINE",
"125 704 LINE",
"125 513 LINE",
"21 513 LINE"
);
}
);
width = 360;
}
);
leftKerningGroup = t;
rightKerningGroup = t;
unicode = 0074;
},
{
glyphname = tbar;
lastChange = "2018-06-10 11:52:29 +0000";
layers = (
{
components = (
{
name = t;
transform = "{1, 0, 0, 1, 10, 0}";
}
);
layerId = "7B60DD57-6012-4D0F-BD38-A72A4BAC0E9D";
paths = (
{
closed = 1;
nodes = (
"21 278 LINE",
"331 278 LINE",
"331 343 LINE",
"21 343 LINE"
);
}
);
width = 360;
},
{
components = (
{
name = t;
transform = "{1, 0, 0, 1, 10, 0}";
}
);
layerId = "A4E552E4-62BE-43BB-A58F-34F0EE3B77B8";
paths = (
{
closed = 1;
nodes = (
"22 208 LINE",
"380 208 LINE",
"380 343 LINE",
"22 343 LINE"
);
}
);
width = 425;
}
);
unicode = 0167;
},
{
glyphname = u;
lastChange = "2018-06-10 11:52:29 +0000";
layers = (
{
anchors = (
{
name = bottom;
position = "{333, 0}";
},
{
name = ogonek;
position = "{595, 10}";
},
{
name = top;
position = "{333, 513}";
},
{
name = topright;
position = "{641, 513}";
}
);
layerId = "A4E552E4-62BE-43BB-A58F-34F0EE3B77B8";
paths = (
{
closed = 1;
nodes = (
"232 513 LINE",
"55 513 LINE",
"55 266 LINE SMOOTH",
"55 94 OFFCURVE",
"141 -15 OFFCURVE",
"333 -15 CURVE SMOOTH",
"525 -15 OFFCURVE",
"611 94 OFFCURVE",
"611 266 CURVE SMOOTH",
"611 513 LINE",
"434 513 LINE",
"434 279 LINE SMOOTH",
"434 178 OFFCURVE",
"407 129 OFFCURVE",
"333 129 CURVE SMOOTH",
"259 129 OFFCURVE",
"232 178 OFFCURVE",
"232 279 CURVE SMOOTH"
);
}
);
width = 681;
},
{
anchors = (
{
name = bottom;
position = "{283, 0}";
},
{
name = ogonek;
position = "{505, 10}";
},
{
name = top;
position = "{283, 513}";
},
{
name = topright;
position = "{541, 513}";
}
);
layerId = "7B60DD57-6012-4D0F-BD38-A72A4BAC0E9D";
paths = (
{
closed = 1;
nodes = (
"122 513 LINE",
"55 513 LINE",
"55 266 LINE SMOOTH",
"55 101 OFFCURVE",
"111 -15 OFFCURVE",
"283 -15 CURVE SMOOTH",
"455 -15 OFFCURVE",
"511 101 OFFCURVE",
"511 266 CURVE SMOOTH",
"511 513 LINE",
"444 513 LINE",
"444 299 LINE SMOOTH",
"444 138 OFFCURVE",
"407 49 OFFCURVE",
"283 49 CURVE SMOOTH",
"159 49 OFFCURVE",
"122 138 OFFCURVE",
"122 299 CURVE SMOOTH"
);
}
);
width = 581;
}
);
leftKerningGroup = u;
rightKerningGroup = u;
unicode = 0075;
},
{
glyphname = v;
lastChange = "2018-06-10 11:52:29 +0000";
layers = (
{
anchors = (
{
name = bottom;
position = "{320, 0}";
},
{
name = top;
position = "{320, 513}";
}
);
layerId = "A4E552E4-62BE-43BB-A58F-34F0EE3B77B8";
paths = (
{
closed = 1;
nodes = (
"260 0 LINE",
"380 0 LINE",
"655 513 LINE",
"445 513 LINE",
"320 234 LINE",
"195 513 LINE",
"-15 513 LINE"
);
}
);
width = 655;
},
{
anchors = (
{
name = bottom;
position = "{265, 0}";
},
{
name = top;
position = "{265, 513}";
}
);
layerId = "7B60DD57-6012-4D0F-BD38-A72A4BAC0E9D";
paths = (
{
closed = 1;
nodes = (
"235 0 LINE",
"295 0 LINE",
"530 513 LINE",
"457 513 LINE",
"265 82 LINE",
"73 513 LINE",
"0 513 LINE"
);
}
);
width = 545;
}
);
leftKerningGroup = v;
rightKerningGroup = v;
unicode = 0076;
},
{
glyphname = w;
lastChange = "2018-06-10 11:52:29 +0000";
layers = (
{
anchors = (
{
name = bottom;
position = "{478, 0}";
},
{
name = top;
position = "{478, 513}";
}
);
layerId = "A4E552E4-62BE-43BB-A58F-34F0EE3B77B8";
paths = (
{
closed = 1;
nodes = (
"616 0 LINE",
"736 0 LINE",
"951 513 LINE",
"747 513 LINE",
"667 264 LINE",
"539 513 LINE",
"417 513 LINE",
"288 264 LINE",
"209 513 LINE",
"5 513 LINE",
"220 0 LINE",
"340 0 LINE",
"478 265 LINE"
);
}
);
width = 971;
},
{
anchors = (
{
name = bottom;
position = "{361, 0}";
},
{
name = top;
position = "{361, 513}";
}
);
layerId = "7B60DD57-6012-4D0F-BD38-A72A4BAC0E9D";
paths = (
{
closed = 1;
nodes = (
"489 0 LINE",
"549 0 LINE",
"707 513 LINE",
"630 513 LINE",
"517 114 LINE",
"392 513 LINE",
"330 513 LINE",
"204 114 LINE",
"92 513 LINE",
"15 513 LINE",
"173 0 LINE",
"233 0 LINE",
"361 395 LINE"
);
}
);
width = 737;
}
);
leftKerningGroup = v;
rightKerningGroup = v;
unicode = 0077;
},
{
glyphname = x;
lastChange = "2018-06-10 11:52:29 +0000";
layers = (
{
anchors = (
{
name = bottom;
position = "{332, 0}";
},
{
name = top;
position = "{332, 513}";
}
);
layerId = "A4E552E4-62BE-43BB-A58F-34F0EE3B77B8";
paths = (
{
closed = 1;
nodes = (
"628 513 LINE",
"421 513 LINE",
"332 394 LINE",
"243 513 LINE",
"36 513 LINE",
"224 268 LINE",
"5 0 LINE",
"219 0 LINE",
"332 145 LINE",
"445 0 LINE",
"659 0 LINE",
"440 268 LINE"
);
}
);
width = 679;
},
{
anchors = (
{
name = bottom;
position = "{277, 0}";
},
{
name = top;
position = "{277, 513}";
}
);
layerId = "7B60DD57-6012-4D0F-BD38-A72A4BAC0E9D";
paths = (
{
closed = 1;
nodes = (
"518 513 LINE",
"436 513 LINE",
"277 319 LINE",
"118 513 LINE",
"36 513 LINE",
"234 268 LINE",
"5 0 LINE",
"94 0 LINE",
"277 220 LINE",
"460 0 LINE",
"549 0 LINE",
"320 268 LINE"
);
}
);
width = 569;
}
);
rightKerningGroup = d;
unicode = 0078;
},
{
glyphname = y;
lastChange = "2018-06-10 11:52:29 +0000";
layers = (
{
anchors = (
{
name = bottom;
position = "{304, 0}";
},
{
name = top;
position = "{304, 513}";
}
);
layerId = "A4E552E4-62BE-43BB-A58F-34F0EE3B77B8";
paths = (
{
closed = 1;
nodes = (
"172 513 LINE",
"-12 513 LINE",
"218 0 LINE",
"91 -260 LINE",
"275 -260 LINE",
"628 513 LINE",
"444 513 LINE",
"307 197 LINE"
);
}
);
width = 623;
},
{
anchors = (
{
name = bottom;
position = "{244, 0}";
},
{
name = top;
position = "{244, 513}";
}
);
layerId = "7B60DD57-6012-4D0F-BD38-A72A4BAC0E9D";
paths = (
{
closed = 1;
nodes = (
"71 513 LINE",
"-3 513 LINE",
"214 0 LINE",
"93 -260 LINE",
"164 -260 LINE",
"507 513 LINE",
"433 513 LINE",
"249 80 LINE"
);
}
);
width = 502;
}
);
leftKerningGroup = v;
rightKerningGroup = v;
unicode = 0079;
},
{
glyphname = z;
lastChange = "2018-06-10 11:52:29 +0000";
layers = (
{
anchors = (
{
name = bottom;
position = "{286, 0}";
},
{
name = top;
position = "{286, 513}";
}
);
layerId = "A4E552E4-62BE-43BB-A58F-34F0EE3B77B8";
paths = (
{
closed = 1;
nodes = (
"52 378 LINE",
"264 378 LINE",
"10 0 LINE",
"541 0 LINE",
"541 135 LINE",
"307 135 LINE",
"561 513 LINE",
"52 513 LINE"
);
}
);
width = 586;
},
{
anchors = (
{
name = bottom;
position = "{231, 0}";
},
{
name = top;
position = "{231, 513}";
}
);
layerId = "7B60DD57-6012-4D0F-BD38-A72A4BAC0E9D";
paths = (
{
closed = 1;
nodes = (
"37 448 LINE",
"332 448 LINE",
"5 0 LINE",
"446 0 LINE",
"446 65 LINE",
"129 65 LINE",
"456 513 LINE",
"37 513 LINE"
);
}
);
width = 476;
}
);
leftKerningGroup = z;
rightKerningGroup = d;
unicode = 007A;
},
{
glyphname = f_f;
lastChange = "2018-06-10 11:52:29 +0000";
layers = (
{
layerId = "A4E552E4-62BE-43BB-A58F-34F0EE3B77B8";
paths = (
{
closed = 1;
nodes = (
"292 0 LINE",
"292 378 LINE",
"470 378 LINE",
"470 0 LINE",
"647 0 LINE",
"647 378 LINE",
"765 378 LINE",
"765 513 LINE",
"647 513 LINE",
"647 617 LINE SMOOTH",
"647 688 OFFCURVE",
"657 718 OFFCURVE",
"702 718 CURVE SMOOTH",
"731 718 OFFCURVE",
"755 704 OFFCURVE",
"755 704 CURVE",
"817 829 LINE",
"817 829 OFFCURVE",
"761 875 OFFCURVE",
"671 875 CURVE SMOOTH",
"543 875 OFFCURVE",
"471 772 OFFCURVE",
"470 622 CURVE SMOOTH",
"470 513 LINE",
"292 513 LINE",
"292 617 LINE SMOOTH",
"292 688 OFFCURVE",
"302 718 OFFCURVE",
"347 718 CURVE SMOOTH",
"376 718 OFFCURVE",
"400 704 OFFCURVE",
"400 704 CURVE",
"462 829 LINE",
"462 829 OFFCURVE",
"406 875 OFFCURVE",
"316 875 CURVE SMOOTH",
"188 875 OFFCURVE",
"116 772 OFFCURVE",
"115 622 CURVE SMOOTH",
"115 513 LINE",
"41 513 LINE",
"41 378 LINE",
"115 378 LINE",
"115 0 LINE"
);
}
);
width = 837;
},
{
layerId = "7B60DD57-6012-4D0F-BD38-A72A4BAC0E9D";
paths = (
{
closed = 1;
nodes = (
"221 0 LINE",
"221 448 LINE",
"441 448 LINE",
"441 0 LINE",
"508 0 LINE",
"508 448 LINE",
"659 448 LINE",
"659 513 LINE",
"508 513 LINE",
"508 617 LINE SMOOTH",
"508 768 OFFCURVE",
"559 813 OFFCURVE",
"606 813 CURVE SMOOTH",
"655 813 OFFCURVE",
"678 783 OFFCURVE",
"678 783 CURVE",
"704 847 LINE",
"704 847 OFFCURVE",
"670 875 OFFCURVE",
"607 875 CURVE SMOOTH",
"526 875 OFFCURVE",
"441 802 OFFCURVE",
"441 642 CURVE SMOOTH",
"441 513 LINE",
"221 513 LINE",
"221 617 LINE SMOOTH",
"221 768 OFFCURVE",
"272 813 OFFCURVE",
"319 813 CURVE SMOOTH",
"368 813 OFFCURVE",
"391 783 OFFCURVE",
"391 783 CURVE",
"417 847 LINE",
"417 847 OFFCURVE",
"383 875 OFFCURVE",
"320 875 CURVE SMOOTH",
"239 875 OFFCURVE",
"154 802 OFFCURVE",
"154 642 CURVE SMOOTH",
"154 513 LINE",
"40 513 LINE",
"40 448 LINE",
"154 448 LINE",
"154 0 LINE"
);
}
);
width = 724;
}
);
rightKerningGroup = d;
},
{
glyphname = f_f_i;
lastChange = "2018-06-10 11:52:29 +0000";
layers = (
{
layerId = "A4E552E4-62BE-43BB-A58F-34F0EE3B77B8";
paths = (
{
closed = 1;
nodes = (
"292 0 LINE",
"292 378 LINE",
"470 378 LINE",
"470 0 LINE",
"647 0 LINE",
"647 378 LINE",
"815 378 LINE",
"815 0 LINE",
"992 0 LINE",
"992 513 LINE",
"647 513 LINE",
"647 617 LINE SMOOTH",
"647 688 OFFCURVE",
"663 719 OFFCURVE",
"733 719 CURVE SMOOTH",
"786 719 OFFCURVE",
"850 667 OFFCURVE",
"850 667 CURVE",
"912 792 LINE",
"912 792 OFFCURVE",
"819 875 OFFCURVE",
"681 875 CURVE SMOOTH",
"541 875 OFFCURVE",
"471 772 OFFCURVE",
"470 622 CURVE SMOOTH",
"470 513 LINE",
"292 513 LINE",
"292 617 LINE SMOOTH",
"292 688 OFFCURVE",
"302 718 OFFCURVE",
"347 718 CURVE SMOOTH",
"376 718 OFFCURVE",
"400 704 OFFCURVE",
"400 704 CURVE",
"462 829 LINE",
"462 829 OFFCURVE",
"406 875 OFFCURVE",
"316 875 CURVE SMOOTH",
"188 875 OFFCURVE",
"116 772 OFFCURVE",
"115 622 CURVE SMOOTH",
"115 513 LINE",
"41 513 LINE",
"41 378 LINE",
"115 378 LINE",
"115 0 LINE"
);
}
);
width = 1072;
},
{
layerId = "7B60DD57-6012-4D0F-BD38-A72A4BAC0E9D";
paths = (
{
closed = 1;
nodes = (
"221 0 LINE",
"221 448 LINE",
"441 448 LINE",
"441 0 LINE",
"508 0 LINE",
"508 448 LINE",
"733 448 LINE",
"733 0 LINE",
"800 0 LINE",
"800 513 LINE",
"508 513 LINE",
"508 617 LINE SMOOTH",
"508 768 OFFCURVE",
"569 813 OFFCURVE",
"616 813 CURVE SMOOTH",
"715 813 OFFCURVE",
"732 743 OFFCURVE",
"732 743 CURVE",
"768 796 LINE",
"768 796 OFFCURVE",
"730 875 OFFCURVE",
"617 875 CURVE SMOOTH",
"536 875 OFFCURVE",
"441 802 OFFCURVE",
"441 642 CURVE SMOOTH",
"441 513 LINE",
"221 513 LINE",
"221 617 LINE SMOOTH",
"221 768 OFFCURVE",
"272 813 OFFCURVE",
"319 813 CURVE SMOOTH",
"368 813 OFFCURVE",
"391 783 OFFCURVE",
"391 783 CURVE",
"417 847 LINE",
"417 847 OFFCURVE",
"383 875 OFFCURVE",
"320 875 CURVE SMOOTH",
"239 875 OFFCURVE",
"154 802 OFFCURVE",
"154 642 CURVE SMOOTH",
"154 513 LINE",
"40 513 LINE",
"40 448 LINE",
"154 448 LINE",
"154 0 LINE"
);
}
);
width = 880;
}
);
rightKerningGroup = d;
},
{
glyphname = f_f_j;
lastChange = "2018-06-10 11:52:29 +0000";
layers = (
{
layerId = "A4E552E4-62BE-43BB-A58F-34F0EE3B77B8";
paths = (
{
closed = 1;
nodes = (
"948 -275 OFFCURVE",
"992 -170 OFFCURVE",
"992 -79 CURVE SMOOTH",
"992 513 LINE",
"647 513 LINE",
"647 617 LINE SMOOTH",
"647 688 OFFCURVE",
"663 719 OFFCURVE",
"733 719 CURVE SMOOTH",
"786 719 OFFCURVE",
"850 667 OFFCURVE",
"850 667 CURVE",
"912 792 LINE",
"912 792 OFFCURVE",
"819 875 OFFCURVE",
"681 875 CURVE SMOOTH",
"541 875 OFFCURVE",
"471 772 OFFCURVE",
"470 622 CURVE SMOOTH",
"470 513 LINE",
"292 513 LINE",
"292 617 LINE SMOOTH",
"292 688 OFFCURVE",
"302 718 OFFCURVE",
"347 718 CURVE SMOOTH",
"376 718 OFFCURVE",
"400 704 OFFCURVE",
"400 704 CURVE",
"462 829 LINE",
"462 829 OFFCURVE",
"406 875 OFFCURVE",
"316 875 CURVE SMOOTH",
"188 875 OFFCURVE",
"116 772 OFFCURVE",
"115 622 CURVE SMOOTH",
"115 513 LINE",
"41 513 LINE",
"41 378 LINE",
"115 378 LINE",
"115 0 LINE",
"292 0 LINE",
"292 378 LINE",
"470 378 LINE",
"470 0 LINE",
"647 0 LINE",
"647 378 LINE",
"815 378 LINE",
"815 -45 LINE SMOOTH",
"815 -93 OFFCURVE",
"796 -115 OFFCURVE",
"766 -115 CURVE SMOOTH",
"744 -115 OFFCURVE",
"721 -100 OFFCURVE",
"721 -100 CURVE",
"666 -243 LINE",
"691 -254 OFFCURVE",
"723 -275 OFFCURVE",
"807 -275 CURVE SMOOTH"
);
}
);
width = 1072;
},
{
layerId = "7B60DD57-6012-4D0F-BD38-A72A4BAC0E9D";
paths = (
{
closed = 1;
nodes = (
"761 -275 OFFCURVE",
"789 -180 OFFCURVE",
"789 -79 CURVE SMOOTH",
"789 513 LINE",
"508 513 LINE",
"508 617 LINE SMOOTH",
"508 768 OFFCURVE",
"569 813 OFFCURVE",
"616 813 CURVE SMOOTH",
"715 813 OFFCURVE",
"732 743 OFFCURVE",
"732 743 CURVE",
"768 796 LINE",
"768 796 OFFCURVE",
"730 875 OFFCURVE",
"617 875 CURVE SMOOTH",
"536 875 OFFCURVE",
"441 802 OFFCURVE",
"441 642 CURVE SMOOTH",
"441 513 LINE",
"221 513 LINE",
"221 617 LINE SMOOTH",
"221 768 OFFCURVE",
"272 813 OFFCURVE",
"319 813 CURVE SMOOTH",
"368 813 OFFCURVE",
"391 783 OFFCURVE",
"391 783 CURVE",
"417 847 LINE",
"417 847 OFFCURVE",
"383 875 OFFCURVE",
"320 875 CURVE SMOOTH",
"239 875 OFFCURVE",
"154 802 OFFCURVE",
"154 642 CURVE SMOOTH",
"154 513 LINE",
"40 513 LINE",
"40 448 LINE",
"154 448 LINE",
"154 0 LINE",
"221 0 LINE",
"221 448 LINE",
"441 448 LINE",
"441 0 LINE",
"508 0 LINE",
"508 448 LINE",
"721 448 LINE",
"721 -45 LINE SMOOTH",
"721 -143 OFFCURVE",
"712 -213 OFFCURVE",
"652 -213 CURVE SMOOTH",
"610 -213 OFFCURVE",
"593 -190 OFFCURVE",
"593 -190 CURVE",
"563 -253 LINE",
"566 -255 OFFCURVE",
"600 -275 OFFCURVE",
"654 -275 CURVE SMOOTH"
);
}
);
width = 880;
}
);
rightKerningGroup = d;
},
{
glyphname = f_f_l;
lastChange = "2018-06-10 11:52:29 +0000";
layers = (
{
layerId = "A4E552E4-62BE-43BB-A58F-34F0EE3B77B8";
paths = (
{
closed = 1;
nodes = (
"292 0 LINE",
"292 378 LINE",
"470 378 LINE",
"470 0 LINE",
"647 0 LINE",
"647 378 LINE",
"765 378 LINE",
"765 513 LINE",
"647 513 LINE",
"647 617 LINE SMOOTH",
"647 688 OFFCURVE",
"657 718 OFFCURVE",
"702 718 CURVE SMOOTH",
"731 718 OFFCURVE",
"755 704 OFFCURVE",
"755 704 CURVE",
"796 843 LINE",
"772 857 OFFCURVE",
"729 875 OFFCURVE",
"671 875 CURVE SMOOTH",
"543 875 OFFCURVE",
"471 772 OFFCURVE",
"470 622 CURVE SMOOTH",
"470 513 LINE",
"292 513 LINE",
"292 617 LINE SMOOTH",
"292 688 OFFCURVE",
"302 718 OFFCURVE",
"347 718 CURVE SMOOTH",
"376 718 OFFCURVE",
"400 704 OFFCURVE",
"400 704 CURVE",
"462 829 LINE",
"462 829 OFFCURVE",
"406 875 OFFCURVE",
"316 875 CURVE SMOOTH",
"188 875 OFFCURVE",
"116 772 OFFCURVE",
"115 622 CURVE SMOOTH",
"115 513 LINE",
"41 513 LINE",
"41 378 LINE",
"115 378 LINE",
"115 0 LINE"
);
},
{
closed = 1;
nodes = (
"992 0 LINE",
"992 860 LINE",
"815 860 LINE",
"815 0 LINE"
);
}
);
width = 1072;
},
{
layerId = "7B60DD57-6012-4D0F-BD38-A72A4BAC0E9D";
paths = (
{
closed = 1;
nodes = (
"221 0 LINE",
"221 448 LINE",
"441 448 LINE",
"441 0 LINE",
"508 0 LINE",
"508 448 LINE",
"659 448 LINE",
"659 513 LINE",
"508 513 LINE",
"508 617 LINE SMOOTH",
"508 768 OFFCURVE",
"559 813 OFFCURVE",
"606 813 CURVE SMOOTH",
"655 813 OFFCURVE",
"678 783 OFFCURVE",
"678 783 CURVE",
"704 847 LINE",
"704 847 OFFCURVE",
"670 875 OFFCURVE",
"607 875 CURVE SMOOTH",
"526 875 OFFCURVE",
"441 802 OFFCURVE",
"441 642 CURVE SMOOTH",
"441 513 LINE",
"221 513 LINE",
"221 617 LINE SMOOTH",
"221 768 OFFCURVE",
"272 813 OFFCURVE",
"319 813 CURVE SMOOTH",
"368 813 OFFCURVE",
"391 783 OFFCURVE",
"391 783 CURVE",
"417 847 LINE",
"417 847 OFFCURVE",
"383 875 OFFCURVE",
"320 875 CURVE SMOOTH",
"239 875 OFFCURVE",
"154 802 OFFCURVE",
"154 642 CURVE SMOOTH",
"154 513 LINE",
"40 513 LINE",
"40 448 LINE",
"154 448 LINE",
"154 0 LINE"
);
},
{
closed = 1;
nodes = (
"796 0 LINE",
"796 860 LINE",
"728 860 LINE",
"728 0 LINE"
);
}
);
width = 876;
}
);
rightKerningGroup = d;
},
{
glyphname = f_f_t;
lastChange = "2018-06-10 11:52:29 +0000";
layers = (
{
layerId = "A4E552E4-62BE-43BB-A58F-34F0EE3B77B8";
paths = (
{
closed = 1;
nodes = (
"1063 -15 OFFCURVE",
"1120 17 OFFCURVE",
"1120 17 CURVE",
"1076 160 LINE",
"1076 160 OFFCURVE",
"1055 144 OFFCURVE",
"1032 144 CURVE SMOOTH",
"1004 144 OFFCURVE",
"992 167 OFFCURVE",
"992 215 CURVE SMOOTH",
"992 378 LINE",
"1100 378 LINE",
"1100 513 LINE",
"992 513 LINE",
"992 704 LINE",
"815 704 LINE",
"815 513 LINE",
"647 513 LINE",
"647 617 LINE SMOOTH",
"647 688 OFFCURVE",
"657 718 OFFCURVE",
"702 718 CURVE SMOOTH",
"731 718 OFFCURVE",
"755 704 OFFCURVE",
"755 704 CURVE",
"817 829 LINE",
"817 829 OFFCURVE",
"761 875 OFFCURVE",
"671 875 CURVE SMOOTH",
"543 875 OFFCURVE",
"471 772 OFFCURVE",
"470 622 CURVE SMOOTH",
"470 513 LINE",
"292 513 LINE",
"292 617 LINE SMOOTH",
"292 688 OFFCURVE",
"302 718 OFFCURVE",
"347 718 CURVE SMOOTH",
"376 718 OFFCURVE",
"400 704 OFFCURVE",
"400 704 CURVE",
"462 829 LINE",
"462 829 OFFCURVE",
"406 875 OFFCURVE",
"316 875 CURVE SMOOTH",
"188 875 OFFCURVE",
"116 772 OFFCURVE",
"115 622 CURVE SMOOTH",
"115 513 LINE",
"41 513 LINE",
"41 378 LINE",
"115 378 LINE",
"115 0 LINE",
"292 0 LINE",
"292 378 LINE",
"470 378 LINE",
"470 0 LINE",
"647 0 LINE",
"647 378 LINE",
"815 378 LINE",
"815 181 LINE SMOOTH",
"815 90 OFFCURVE",
"849 -15 OFFCURVE",
"990 -15 CURVE SMOOTH"
);
}
);
width = 1140;
},
{
layerId = "7B60DD57-6012-4D0F-BD38-A72A4BAC0E9D";
paths = (
{
closed = 1;
nodes = (
"912 -15 OFFCURVE",
"950 13 OFFCURVE",
"950 13 CURVE",
"926 74 LINE",
"926 74 OFFCURVE",
"900 49 OFFCURVE",
"864 49 CURVE SMOOTH",
"836 49 OFFCURVE",
"808 73 OFFCURVE",
"808 144 CURVE SMOOTH",
"808 448 LINE",
"946 448 LINE",
"946 513 LINE",
"808 513 LINE",
"808 704 LINE",
"740 704 LINE",
"740 513 LINE",
"508 513 LINE",
"508 617 LINE SMOOTH",
"508 768 OFFCURVE",
"559 813 OFFCURVE",
"606 813 CURVE SMOOTH",
"655 813 OFFCURVE",
"678 783 OFFCURVE",
"678 783 CURVE",
"704 847 LINE",
"704 847 OFFCURVE",
"670 875 OFFCURVE",
"607 875 CURVE SMOOTH",
"526 875 OFFCURVE",
"441 802 OFFCURVE",
"441 642 CURVE SMOOTH",
"441 513 LINE",
"221 513 LINE",
"221 617 LINE SMOOTH",
"221 768 OFFCURVE",
"272 813 OFFCURVE",
"319 813 CURVE SMOOTH",
"368 813 OFFCURVE",
"391 783 OFFCURVE",
"391 783 CURVE",
"417 847 LINE",
"417 847 OFFCURVE",
"383 875 OFFCURVE",
"320 875 CURVE SMOOTH",
"239 875 OFFCURVE",
"154 802 OFFCURVE",
"154 642 CURVE SMOOTH",
"154 513 LINE",
"40 513 LINE",
"40 448 LINE",
"154 448 LINE",
"154 0 LINE",
"221 0 LINE",
"221 448 LINE",
"441 448 LINE",
"441 0 LINE",
"508 0 LINE",
"508 448 LINE",
"740 448 LINE",
"740 161 LINE SMOOTH",
"740 70 OFFCURVE",
"754 -15 OFFCURVE",
"855 -15 CURVE SMOOTH"
);
}
);
width = 970;
}
);
rightKerningGroup = d;
},
{
glyphname = f_j;
lastChange = "2018-06-10 11:52:29 +0000";
layers = (
{
layerId = "A4E552E4-62BE-43BB-A58F-34F0EE3B77B8";
paths = (
{
closed = 1;
nodes = (
"573 -275 OFFCURVE",
"617 -170 OFFCURVE",
"617 -79 CURVE SMOOTH",
"617 513 LINE",
"272 513 LINE",
"272 617 LINE SMOOTH",
"272 688 OFFCURVE",
"288 719 OFFCURVE",
"358 719 CURVE SMOOTH",
"411 719 OFFCURVE",
"475 667 OFFCURVE",
"475 667 CURVE",
"537 792 LINE",
"537 792 OFFCURVE",
"444 875 OFFCURVE",
"306 875 CURVE SMOOTH",
"166 875 OFFCURVE",
"96 772 OFFCURVE",
"95 622 CURVE SMOOTH",
"95 513 LINE",
"21 513 LINE",
"21 378 LINE",
"95 378 LINE",
"95 0 LINE",
"272 0 LINE",
"272 378 LINE",
"440 378 LINE",
"440 -45 LINE SMOOTH",
"440 -93 OFFCURVE",
"421 -115 OFFCURVE",
"391 -115 CURVE SMOOTH",
"369 -115 OFFCURVE",
"346 -100 OFFCURVE",
"346 -100 CURVE",
"291 -243 LINE",
"316 -254 OFFCURVE",
"348 -275 OFFCURVE",
"432 -275 CURVE SMOOTH"
);
}
);
width = 697;
},
{
layerId = "7B60DD57-6012-4D0F-BD38-A72A4BAC0E9D";
paths = (
{
closed = 1;
nodes = (
"437 -275 OFFCURVE",
"465 -180 OFFCURVE",
"465 -79 CURVE SMOOTH",
"465 513 LINE",
"202 513 LINE",
"202 617 LINE SMOOTH",
"202 768 OFFCURVE",
"263 813 OFFCURVE",
"310 813 CURVE SMOOTH",
"389 813 OFFCURVE",
"412 753 OFFCURVE",
"412 753 CURVE",
"438 817 LINE",
"438 817 OFFCURVE",
"404 875 OFFCURVE",
"311 875 CURVE SMOOTH",
"230 875 OFFCURVE",
"135 802 OFFCURVE",
"135 642 CURVE SMOOTH",
"135 513 LINE",
"21 513 LINE",
"21 448 LINE",
"135 448 LINE",
"135 0 LINE",
"202 0 LINE",
"202 448 LINE",
"397 448 LINE",
"397 -45 LINE SMOOTH",
"397 -143 OFFCURVE",
"388 -213 OFFCURVE",
"328 -213 CURVE SMOOTH",
"286 -213 OFFCURVE",
"269 -190 OFFCURVE",
"269 -190 CURVE",
"239 -253 LINE",
"242 -255 OFFCURVE",
"276 -275 OFFCURVE",
"330 -275 CURVE SMOOTH"
);
}
);
width = 545;
}
);
rightKerningGroup = d;
},
{
glyphname = f_t;
lastChange = "2018-06-10 11:52:29 +0000";
layers = (
{
layerId = "A4E552E4-62BE-43BB-A58F-34F0EE3B77B8";
paths = (
{
closed = 1;
nodes = (
"688 -15 OFFCURVE",
"745 17 OFFCURVE",
"745 17 CURVE",
"701 160 LINE",
"701 160 OFFCURVE",
"680 144 OFFCURVE",
"657 144 CURVE SMOOTH",
"629 144 OFFCURVE",
"617 167 OFFCURVE",
"617 215 CURVE SMOOTH",
"617 378 LINE",
"725 378 LINE",
"725 513 LINE",
"617 513 LINE",
"617 704 LINE",
"440 704 LINE",
"440 513 LINE",
"272 513 LINE",
"272 617 LINE SMOOTH",
"272 688 OFFCURVE",
"282 718 OFFCURVE",
"327 718 CURVE SMOOTH",
"356 718 OFFCURVE",
"380 704 OFFCURVE",
"380 704 CURVE",
"442 829 LINE",
"442 829 OFFCURVE",
"386 875 OFFCURVE",
"296 875 CURVE SMOOTH",
"168 875 OFFCURVE",
"96 772 OFFCURVE",
"95 622 CURVE SMOOTH",
"95 513 LINE",
"21 513 LINE",
"21 378 LINE",
"95 378 LINE",
"95 0 LINE",
"272 0 LINE",
"272 378 LINE",
"440 378 LINE",
"440 181 LINE SMOOTH",
"440 90 OFFCURVE",
"474 -15 OFFCURVE",
"615 -15 CURVE SMOOTH"
);
}
);
width = 765;
},
{
layerId = "7B60DD57-6012-4D0F-BD38-A72A4BAC0E9D";
paths = (
{
closed = 1;
nodes = (
"576 -15 OFFCURVE",
"614 13 OFFCURVE",
"614 13 CURVE",
"590 74 LINE",
"590 74 OFFCURVE",
"564 49 OFFCURVE",
"528 49 CURVE SMOOTH",
"500 49 OFFCURVE",
"472 73 OFFCURVE",
"472 144 CURVE SMOOTH",
"472 448 LINE",
"610 448 LINE",
"610 513 LINE",
"472 513 LINE",
"472 704 LINE",
"404 704 LINE",
"404 513 LINE",
"202 513 LINE",
"202 617 LINE SMOOTH",
"202 768 OFFCURVE",
"253 813 OFFCURVE",
"300 813 CURVE SMOOTH",
"349 813 OFFCURVE",
"372 783 OFFCURVE",
"372 783 CURVE",
"398 847 LINE",
"398 847 OFFCURVE",
"364 875 OFFCURVE",
"301 875 CURVE SMOOTH",
"220 875 OFFCURVE",
"135 802 OFFCURVE",
"135 642 CURVE SMOOTH",
"135 513 LINE",
"21 513 LINE",
"21 448 LINE",
"135 448 LINE",
"135 0 LINE",
"202 0 LINE",
"202 448 LINE",
"404 448 LINE",
"404 161 LINE SMOOTH",
"404 70 OFFCURVE",
"418 -15 OFFCURVE",
"519 -15 CURVE SMOOTH"
);
}
);
width = 634;
}
);
rightKerningGroup = d;
},
{
glyphname = fi;
lastChange = "2018-06-10 11:52:29 +0000";
layers = (
{
layerId = "A4E552E4-62BE-43BB-A58F-34F0EE3B77B8";
paths = (
{
closed = 1;
nodes = (
"272 0 LINE",
"272 378 LINE",
"440 378 LINE",
"440 0 LINE",
"617 0 LINE",
"617 513 LINE",
"272 513 LINE",
"272 617 LINE SMOOTH",
"272 688 OFFCURVE",
"288 719 OFFCURVE",
"358 719 CURVE SMOOTH",
"411 719 OFFCURVE",
"475 667 OFFCURVE",
"475 667 CURVE",
"537 792 LINE",
"537 792 OFFCURVE",
"444 875 OFFCURVE",
"306 875 CURVE SMOOTH",
"166 875 OFFCURVE",
"96 772 OFFCURVE",
"95 622 CURVE SMOOTH",
"95 513 LINE",
"21 513 LINE",
"21 378 LINE",
"95 378 LINE",
"95 0 LINE"
);
}
);
width = 697;
},
{
layerId = "7B60DD57-6012-4D0F-BD38-A72A4BAC0E9D";
paths = (
{
closed = 1;
nodes = (
"202 0 LINE",
"202 448 LINE",
"380 448 LINE",
"380 0 LINE",
"447 0 LINE",
"447 513 LINE",
"202 513 LINE",
"202 617 LINE SMOOTH",
"202 768 OFFCURVE",
"263 813 OFFCURVE",
"310 813 CURVE SMOOTH",
"379 813 OFFCURVE",
"402 763 OFFCURVE",
"402 763 CURVE",
"428 827 LINE",
"428 827 OFFCURVE",
"394 875 OFFCURVE",
"311 875 CURVE SMOOTH",
"230 875 OFFCURVE",
"135 802 OFFCURVE",
"135 642 CURVE SMOOTH",
"135 513 LINE",
"21 513 LINE",
"21 448 LINE",
"135 448 LINE",
"135 0 LINE"
);
}
);
width = 527;
}
);
rightKerningGroup = d;
unicode = FB01;
},
{
glyphname = fl;
lastChange = "2018-06-10 11:52:29 +0000";
layers = (
{
layerId = "A4E552E4-62BE-43BB-A58F-34F0EE3B77B8";
paths = (
{
closed = 1;
nodes = (
"272 0 LINE",
"272 378 LINE",
"380 378 LINE",
"380 513 LINE",
"272 513 LINE",
"272 617 LINE SMOOTH",
"272 688 OFFCURVE",
"303 719 OFFCURVE",
"356 719 CURVE SMOOTH",
"385 719 OFFCURVE",
"451 706 OFFCURVE",
"451 706 CURVE",
"450 861 LINE",
"450 861 OFFCURVE",
"362 875 OFFCURVE",
"305 875 CURVE SMOOTH",
"177 875 OFFCURVE",
"96 772 OFFCURVE",
"95 622 CURVE SMOOTH",
"95 513 LINE",
"21 513 LINE",
"21 378 LINE",
"95 378 LINE",
"95 0 LINE"
);
},
{
closed = 1;
nodes = (
"627 0 LINE",
"627 839 LINE",
"450 861 LINE",
"450 0 LINE"
);
}
);
width = 717;
},
{
layerId = "7B60DD57-6012-4D0F-BD38-A72A4BAC0E9D";
paths = (
{
closed = 1;
nodes = (
"192 0 LINE",
"192 448 LINE",
"333 448 LINE",
"333 513 LINE",
"192 513 LINE",
"192 617 LINE SMOOTH",
"192 768 OFFCURVE",
"223 813 OFFCURVE",
"290 813 CURVE SMOOTH",
"315 813 OFFCURVE",
"384 803 OFFCURVE",
"396 795 CURVE",
"395 860 LINE",
"395 860 OFFCURVE",
"321 875 OFFCURVE",
"291 875 CURVE SMOOTH",
"190 875 OFFCURVE",
"125 802 OFFCURVE",
"125 642 CURVE SMOOTH",
"125 513 LINE",
"11 513 LINE",
"11 448 LINE",
"125 448 LINE",
"125 0 LINE"
);
},
{
closed = 1;
nodes = (
"463 0 LINE",
"463 847 LINE",
"395 860 LINE",
"395 0 LINE"
);
}
);
width = 549;
}
);
rightKerningGroup = d;
unicode = FB02;
},
{
glyphname = ordfeminine;
lastChange = "2018-06-10 11:52:29 +0000";
layers = (
{
layerId = "A4E552E4-62BE-43BB-A58F-34F0EE3B77B8";
paths = (
{
closed = 1;
nodes = (
"75 579 OFFCURVE",
"140 504 OFFCURVE",
"233 504 CURVE SMOOTH",
"277 504 OFFCURVE",
"314 523 OFFCURVE",
"338 549 CURVE",
"339 549 LINE",
"339 513 LINE",
"447 513 LINE",
"447 830 LINE",
"338 830 LINE",
"338 800 LINE",
"311 825 OFFCURVE",
"276 840 OFFCURVE",
"233 840 CURVE SMOOTH",
"140 840 OFFCURVE",
"75 764 OFFCURVE",
"75 671 CURVE SMOOTH"
);
},
{
closed = 1;
nodes = (
"192 715 OFFCURVE",
"225 746 OFFCURVE",
"266 746 CURVE SMOOTH",
"307 746 OFFCURVE",
"340 715 OFFCURVE",
"340 671 CURVE SMOOTH",
"340 628 OFFCURVE",
"309 597 OFFCURVE",
"266 597 CURVE SMOOTH",
"222 597 OFFCURVE",
"192 628 OFFCURVE",
"192 671 CURVE SMOOTH"
);
}
);
width = 537;
},
{
layerId = "7B60DD57-6012-4D0F-BD38-A72A4BAC0E9D";
paths = (
{
closed = 1;
nodes = (
"75 565 OFFCURVE",
"149 503 OFFCURVE",
"235 503 CURVE SMOOTH",
"299 503 OFFCURVE",
"340 542 OFFCURVE",
"344 559 CURVE",
"345 559 LINE",
"345 513 LINE",
"401 513 LINE",
"401 830 LINE",
"344 831 LINE",
"344 786 LINE",
"338 806 OFFCURVE",
"298 840 OFFCURVE",
"235 840 CURVE SMOOTH",
"149 840 OFFCURVE",
"75 778 OFFCURVE",
"75 672 CURVE SMOOTH"
);
},
{
closed = 1;
nodes = (
"130 744 OFFCURVE",
"181 787 OFFCURVE",
"235 787 CURVE SMOOTH",
"295 787 OFFCURVE",
"346 739 OFFCURVE",
"346 672 CURVE SMOOTH",
"346 605 OFFCURVE",
"297 556 OFFCURVE",
"235 556 CURVE SMOOTH",
"181 556 OFFCURVE",
"130 599 OFFCURVE",
"130 672 CURVE SMOOTH"
);
}
);
width = 491;
}
);
rightKerningGroup = d;
unicode = 00AA;
},
{
glyphname = ordmasculine;
lastChange = "2018-06-10 11:52:29 +0000";
layers = (
{
layerId = "A4E552E4-62BE-43BB-A58F-34F0EE3B77B8";
paths = (
{
closed = 1;
nodes = (
"75 574 OFFCURVE",
"152 504 OFFCURVE",
"267 504 CURVE SMOOTH",
"376 504 OFFCURVE",
"456 574 OFFCURVE",
"456 671 CURVE SMOOTH",
"456 770 OFFCURVE",
"372 840 OFFCURVE",
"267 840 CURVE SMOOTH",
"160 840 OFFCURVE",
"75 770 OFFCURVE",
"75 671 CURVE SMOOTH"
);
},
{
closed = 1;
nodes = (
"192 715 OFFCURVE",
"225 746 OFFCURVE",
"266 746 CURVE SMOOTH",
"307 746 OFFCURVE",
"340 715 OFFCURVE",
"340 671 CURVE SMOOTH",
"340 628 OFFCURVE",
"309 597 OFFCURVE",
"266 597 CURVE SMOOTH",
"221 597 OFFCURVE",
"192 628 OFFCURVE",
"192 671 CURVE SMOOTH"
);
}
);
width = 546;
},
{
layerId = "7B60DD57-6012-4D0F-BD38-A72A4BAC0E9D";
paths = (
{
closed = 1;
nodes = (
"75 574 OFFCURVE",
"152 504 OFFCURVE",
"247 504 CURVE SMOOTH",
"336 504 OFFCURVE",
"416 574 OFFCURVE",
"416 671 CURVE SMOOTH",
"416 770 OFFCURVE",
"332 840 OFFCURVE",
"247 840 CURVE SMOOTH",
"160 840 OFFCURVE",
"75 770 OFFCURVE",
"75 671 CURVE SMOOTH"
);
},
{
closed = 1;
nodes = (
"134 741 OFFCURVE",
"190 791 OFFCURVE",
"246 791 CURVE SMOOTH",
"302 791 OFFCURVE",
"358 741 OFFCURVE",
"358 671 CURVE SMOOTH",
"358 602 OFFCURVE",
"305 552 OFFCURVE",
"246 552 CURVE SMOOTH",
"184 552 OFFCURVE",
"134 602 OFFCURVE",
"134 671 CURVE SMOOTH"
);
}
);
width = 506;
}
);
rightKerningGroup = d;
unicode = 00BA;
},
{
glyphname = zero;
lastChange = "2018-06-10 11:52:29 +0000";
layers = (
{
layerId = "A4E552E4-62BE-43BB-A58F-34F0EE3B77B8";
paths = (
{
closed = 1;
nodes = (
"33 106 OFFCURVE",
"192 -15 OFFCURVE",
"369 -15 CURVE SMOOTH",
"546 -15 OFFCURVE",
"704 106 OFFCURVE",
"704 412 CURVE SMOOTH",
"704 698 OFFCURVE",
"546 840 OFFCURVE",
"369 840 CURVE SMOOTH",
"192 840 OFFCURVE",
"33 698 OFFCURVE",
"33 412 CURVE SMOOTH"
);
},
{
closed = 1;
nodes = (
"223 578 OFFCURVE",
"278 675 OFFCURVE",
"369 675 CURVE SMOOTH",
"459 675 OFFCURVE",
"514 579 OFFCURVE",
"514 412 CURVE SMOOTH",
"514 234 OFFCURVE",
"459 150 OFFCURVE",
"369 150 CURVE SMOOTH",
"278 150 OFFCURVE",
"223 234 OFFCURVE",
"223 412 CURVE SMOOTH"
);
}
);
width = 752;
},
{
layerId = "7B60DD57-6012-4D0F-BD38-A72A4BAC0E9D";
paths = (
{
closed = 1;
nodes = (
"40 116 OFFCURVE",
"193 -15 OFFCURVE",
"340 -15 CURVE SMOOTH",
"487 -15 OFFCURVE",
"639 116 OFFCURVE",
"639 412 CURVE SMOOTH",
"639 708 OFFCURVE",
"487 840 OFFCURVE",
"340 840 CURVE SMOOTH",
"193 840 OFFCURVE",
"40 708 OFFCURVE",
"40 412 CURVE SMOOTH"
);
},
{
closed = 1;
nodes = (
"114 654 OFFCURVE",
"219 778 OFFCURVE",
"340 778 CURVE SMOOTH",
"460 778 OFFCURVE",
"565 655 OFFCURVE",
"565 412 CURVE SMOOTH",
"565 170 OFFCURVE",
"460 47 OFFCURVE",
"340 47 CURVE SMOOTH",
"219 47 OFFCURVE",
"114 170 OFFCURVE",
"114 412 CURVE SMOOTH"
);
}
);
width = 694;
}
);
unicode = 0030;
},
{
glyphname = one;
lastChange = "2018-06-10 11:52:29 +0000";
layers = (
{
layerId = "A4E552E4-62BE-43BB-A58F-34F0EE3B77B8";
paths = (
{
closed = 1;
nodes = (
"161 0 LINE",
"349 0 LINE",
"349 825 LINE",
"260 825 LINE",
"25 693 LINE",
"25 507 LINE",
"161 575 LINE"
);
}
);
width = 429;
},
{
layerId = "7B60DD57-6012-4D0F-BD38-A72A4BAC0E9D";
paths = (
{
closed = 1;
nodes = (
"191 0 LINE",
"259 0 LINE",
"259 825 LINE",
"210 825 LINE",
"25 713 LINE",
"25 637 LINE",
"191 735 LINE"
);
}
);
width = 339;
}
);
unicode = 0031;
},
{
glyphname = two;
lastChange = "2018-06-10 11:52:29 +0000";
layers = (
{
layerId = "A4E552E4-62BE-43BB-A58F-34F0EE3B77B8";
paths = (
{
closed = 1;
nodes = (
"440 681 OFFCURVE",
"476 643 OFFCURVE",
"469 560 CURVE SMOOTH",
"457 418 OFFCURVE",
"61 149 OFFCURVE",
"61 149 CURVE",
"61 0 LINE",
"654 0 LINE",
"654 165 LINE",
"353 165 LINE SMOOTH",
"353 165 OFFCURVE",
"649 350 OFFCURVE",
"659 560 CURVE SMOOTH",
"664 664 OFFCURVE",
"612 840 OFFCURVE",
"359 840 CURVE SMOOTH",
"105 840 OFFCURVE",
"35 600 OFFCURVE",
"35 600 CURVE",
"192 524 LINE",
"192 524 OFFCURVE",
"249 681 OFFCURVE",
"359 681 CURVE SMOOTH"
);
}
);
width = 734;
},
{
layerId = "7B60DD57-6012-4D0F-BD38-A72A4BAC0E9D";
paths = (
{
closed = 1;
nodes = (
"460 778 OFFCURVE",
"509 695 OFFCURVE",
"479 553 CURVE SMOOTH",
"436 353 OFFCURVE",
"41 57 OFFCURVE",
"41 57 CURVE",
"41 0 LINE",
"554 0 LINE",
"554 68 LINE",
"163 68 LINE SMOOTH",
"163 68 OFFCURVE",
"502 331 OFFCURVE",
"554 558 CURVE SMOOTH",
"580 671 OFFCURVE",
"531 840 OFFCURVE",
"309 840 CURVE SMOOTH",
"105 840 OFFCURVE",
"45 650 OFFCURVE",
"45 650 CURVE",
"113 624 LINE",
"113 624 OFFCURVE",
"159 778 OFFCURVE",
"309 778 CURVE SMOOTH"
);
}
);
width = 634;
}
);
unicode = 0032;
},
{
glyphname = three;
lastChange = "2018-06-10 11:52:29 +0000";
layers = (
{
layerId = "A4E552E4-62BE-43BB-A58F-34F0EE3B77B8";
paths = (
{
closed = 1;
nodes = (
"210 587 LINE",
"210 587 OFFCURVE",
"229 689 OFFCURVE",
"333 689 CURVE SMOOTH",
"386 689 OFFCURVE",
"435 651 OFFCURVE",
"435 598 CURVE SMOOTH",
"435 538 OFFCURVE",
"386 494 OFFCURVE",
"336 494 CURVE SMOOTH",
"295 494 LINE",
"295 371 LINE",
"295 371 OFFCURVE",
"311 371 OFFCURVE",
"331 371 CURVE SMOOTH",
"397 371 OFFCURVE",
"450 327 OFFCURVE",
"450 256 CURVE SMOOTH",
"450 186 OFFCURVE",
"400 147 OFFCURVE",
"331 147 CURVE SMOOTH",
"207 147 OFFCURVE",
"196 273 OFFCURVE",
"196 273 CURVE",
"22 188 LINE",
"22 188 OFFCURVE",
"78 -15 OFFCURVE",
"332 -15 CURVE SMOOTH",
"509 -15 OFFCURVE",
"638 98 OFFCURVE",
"638 256 CURVE SMOOTH",
"638 353 OFFCURVE",
"577 428 OFFCURVE",
"513 445 CURVE",
"568 460 OFFCURVE",
"606 532 OFFCURVE",
"606 600 CURVE SMOOTH",
"606 740 OFFCURVE",
"492 840 OFFCURVE",
"335 840 CURVE SMOOTH",
"104 840 OFFCURVE",
"62 659 OFFCURVE",
"62 659 CURVE"
);
}
);
width = 690;
},
{
layerId = "7B60DD57-6012-4D0F-BD38-A72A4BAC0E9D";
paths = (
{
closed = 1;
nodes = (
"125 681 LINE",
"125 681 OFFCURVE",
"147 778 OFFCURVE",
"287 778 CURVE SMOOTH",
"404 778 OFFCURVE",
"457 706 OFFCURVE",
"457 618 CURVE SMOOTH",
"457 513 OFFCURVE",
"380 466 OFFCURVE",
"290 466 CURVE SMOOTH",
"249 466 LINE",
"249 399 LINE",
"249 399 OFFCURVE",
"285 399 OFFCURVE",
"285 399 CURVE SMOOTH",
"411 399 OFFCURVE",
"477 353 OFFCURVE",
"477 236 CURVE SMOOTH",
"477 132 OFFCURVE",
"412 47 OFFCURVE",
"285 47 CURVE SMOOTH",
"129 47 OFFCURVE",
"89 177 OFFCURVE",
"89 177 CURVE",
"22 144 LINE",
"22 144 OFFCURVE",
"76 -15 OFFCURVE",
"286 -15 CURVE SMOOTH",
"447 -15 OFFCURVE",
"553 95 OFFCURVE",
"553 236 CURVE SMOOTH",
"553 360 OFFCURVE",
"472 427 OFFCURVE",
"397 436 CURVE",
"471 450 OFFCURVE",
"530 521 OFFCURVE",
"530 620 CURVE SMOOTH",
"530 739 OFFCURVE",
"447 840 OFFCURVE",
"289 840 CURVE SMOOTH",
"109 840 OFFCURVE",
"56 709 OFFCURVE",
"56 709 CURVE"
);
}
);
width = 605;
}
);
unicode = 0033;
},
{
glyphname = four;
lastChange = "2018-06-10 11:52:29 +0000";
layers = (
{
layerId = "A4E552E4-62BE-43BB-A58F-34F0EE3B77B8";
paths = (
{
closed = 1;
nodes = (
"346 825 LINE",
"16 309 LINE",
"16 174 LINE",
"356 174 LINE",
"356 0 LINE",
"532 0 LINE",
"532 174 LINE",
"628 174 LINE",
"628 339 LINE",
"532 339 LINE",
"532 825 LINE"
);
},
{
closed = 1;
nodes = (
"207 339 LINE",
"354 574 LINE",
"356 574 LINE",
"356 339 LINE"
);
}
);
width = 661;
},
{
layerId = "7B60DD57-6012-4D0F-BD38-A72A4BAC0E9D";
paths = (
{
closed = 1;
nodes = (
"383 825 LINE",
"16 234 LINE",
"16 174 LINE",
"366 174 LINE",
"366 0 LINE",
"432 0 LINE",
"432 174 LINE",
"528 174 LINE",
"528 242 LINE",
"432 242 LINE",
"432 825 LINE"
);
},
{
closed = 1;
nodes = (
"101 242 LINE",
"366 668 LINE",
"366 668 LINE",
"366 242 LINE"
);
}
);
width = 561;
}
);
unicode = 0034;
},
{
glyphname = five;
lastChange = "2018-06-10 11:52:29 +0000";
layers = (
{
layerId = "A4E552E4-62BE-43BB-A58F-34F0EE3B77B8";
paths = (
{
closed = 1;
nodes = (
"30 164 LINE",
"61 80 OFFCURVE",
"148 -15 OFFCURVE",
"324 -15 CURVE SMOOTH",
"501 -15 OFFCURVE",
"630 102 OFFCURVE",
"630 286 CURVE SMOOTH",
"630 470 OFFCURVE",
"488 552 OFFCURVE",
"362 546 CURVE SMOOTH",
"289 543 OFFCURVE",
"269 519 OFFCURVE",
"269 519 CURVE",
"292 660 LINE",
"577 660 LINE",
"577 825 LINE",
"136 825 LINE",
"67 381 LINE",
"238 359 LINE",
"238 359 OFFCURVE",
"265 400 OFFCURVE",
"323 402 CURVE SMOOTH",
"414 405 OFFCURVE",
"446 357 OFFCURVE",
"446 276 CURVE SMOOTH",
"446 201 OFFCURVE",
"392 142 OFFCURVE",
"324 142 CURVE SMOOTH",
"238 142 OFFCURVE",
"194 185 OFFCURVE",
"179 236 CURVE"
);
}
);
width = 685;
},
{
layerId = "7B60DD57-6012-4D0F-BD38-A72A4BAC0E9D";
paths = (
{
closed = 1;
nodes = (
"45 131 LINE",
"57 99 OFFCURVE",
"122 -15 OFFCURVE",
"289 -15 CURVE SMOOTH",
"465 -15 OFFCURVE",
"569 105 OFFCURVE",
"568 273 CURVE SMOOTH",
"567 443 OFFCURVE",
"444 529 OFFCURVE",
"316 526 CURVE SMOOTH",
"205 523 OFFCURVE",
"168 457 OFFCURVE",
"168 457 CURVE",
"217 757 LINE",
"532 757 LINE",
"532 825 LINE",
"156 825 LINE",
"80 360 LINE",
"150 352 LINE",
"150 352 OFFCURVE",
"177 461 OFFCURVE",
"305 462 CURVE SMOOTH",
"406 463 OFFCURVE",
"492 393 OFFCURVE",
"494 271 CURVE SMOOTH",
"496 137 OFFCURVE",
"413 47 OFFCURVE",
"289 47 CURVE SMOOTH",
"169 47 OFFCURVE",
"119 143 OFFCURVE",
"112 167 CURVE"
);
}
);
width = 628;
}
);
unicode = 0035;
},
{
glyphname = six;
lastChange = "2018-06-10 11:52:29 +0000";
layers = (
{
layerId = "A4E552E4-62BE-43BB-A58F-34F0EE3B77B8";
paths = (
{
closed = 1;
nodes = (
"524 -15 OFFCURVE",
"653 103 OFFCURVE",
"653 267 CURVE SMOOTH",
"653 434 OFFCURVE",
"517 552 OFFCURVE",
"368 552 CURVE SMOOTH",
"337 552 OFFCURVE",
"287 537 OFFCURVE",
"258 527 CURVE SMOOTH",
"131 485 OFFCURVE",
"40 370 OFFCURVE",
"40 267 CURVE SMOOTH",
"40 103 OFFCURVE",
"164 -15 OFFCURVE",
"348 -15 CURVE SMOOTH"
);
},
{
closed = 1;
nodes = (
"272 143 OFFCURVE",
"221 194 OFFCURVE",
"221 268 CURVE SMOOTH",
"221 342 OFFCURVE",
"277 394 OFFCURVE",
"349 394 CURVE SMOOTH",
"419 394 OFFCURVE",
"476 342 OFFCURVE",
"476 268 CURVE SMOOTH",
"476 194 OFFCURVE",
"422 143 OFFCURVE",
"349 143 CURVE SMOOTH"
);
},
{
closed = 1;
nodes = (
"71 486 OFFCURVE",
"40 383 OFFCURVE",
"40 267 CURVE",
"296 521 LINE",
"317 535 OFFCURVE",
"341 553 OFFCURVE",
"352 566 CURVE",
"574 825 LINE",
"346 825 LINE",
"158 594 LINE"
);
}
);
width = 714;
},
{
layerId = "7B60DD57-6012-4D0F-BD38-A72A4BAC0E9D";
paths = (
{
closed = 1;
nodes = (
"492 -15 OFFCURVE",
"594 93 OFFCURVE",
"594 257 CURVE SMOOTH",
"594 424 OFFCURVE",
"479 532 OFFCURVE",
"338 532 CURVE SMOOTH",
"247 532 OFFCURVE",
"206 504 OFFCURVE",
"179 487 CURVE SMOOTH",
"120 449 OFFCURVE",
"40 370 OFFCURVE",
"40 267 CURVE SMOOTH",
"40 103 OFFCURVE",
"140 -15 OFFCURVE",
"318 -15 CURVE SMOOTH"
);
},
{
closed = 1;
nodes = (
"185 47 OFFCURVE",
"114 143 OFFCURVE",
"114 267 CURVE SMOOTH",
"114 391 OFFCURVE",
"197 470 OFFCURVE",
"329 470 CURVE SMOOTH",
"451 470 OFFCURVE",
"520 381 OFFCURVE",
"520 257 CURVE SMOOTH",
"520 133 OFFCURVE",
"447 47 OFFCURVE",
"318 47 CURVE SMOOTH"
);
},
{
closed = 1;
nodes = (
"128 513 OFFCURVE",
"40 413 OFFCURVE",
"40 267 CURVE",
"196 498 LINE",
"200 501 OFFCURVE",
"239 553 OFFCURVE",
"250 566 CURVE",
"462 825 LINE",
"376 825 LINE",
"188 594 LINE"
);
}
);
width = 655;
}
);
unicode = 0036;
},
{
glyphname = seven;
lastChange = "2018-06-10 11:52:29 +0000";
layers = (
{
layerId = "A4E552E4-62BE-43BB-A58F-34F0EE3B77B8";
paths = (
{
closed = 1;
nodes = (
"75 660 LINE",
"430 660 LINE",
"50 0 LINE",
"272 0 LINE",
"670 697 LINE",
"670 825 LINE",
"75 825 LINE"
);
}
);
width = 703;
},
{
layerId = "7B60DD57-6012-4D0F-BD38-A72A4BAC0E9D";
paths = (
{
closed = 1;
nodes = (
"65 757 LINE",
"490 757 LINE",
"50 0 LINE",
"130 0 LINE",
"570 765 LINE",
"570 825 LINE",
"65 825 LINE"
);
}
);
width = 603;
}
);
unicode = 0037;
},
{
glyphname = eight;
lastChange = "2018-06-10 11:52:29 +0000";
layers = (
{
layerId = "A4E552E4-62BE-43BB-A58F-34F0EE3B77B8";
paths = (
{
closed = 1;
nodes = (
"618 769 OFFCURVE",
"489 840 OFFCURVE",
"348 840 CURVE SMOOTH",
"212 840 OFFCURVE",
"75 769 OFFCURVE",
"75 622 CURVE SMOOTH",
"75 531 OFFCURVE",
"121 481 OFFCURVE",
"184 445 CURVE",
"101 407 OFFCURVE",
"40 345 OFFCURVE",
"40 232 CURVE SMOOTH",
"40 78 OFFCURVE",
"189 -15 OFFCURVE",
"349 -15 CURVE SMOOTH",
"504 -15 OFFCURVE",
"657 78 OFFCURVE",
"657 232 CURVE SMOOTH",
"657 345 OFFCURVE",
"595 407 OFFCURVE",
"512 445 CURVE",
"574 481 OFFCURVE",
"618 531 OFFCURVE",
"618 622 CURVE SMOOTH"
);
},
{
closed = 1;
nodes = (
"244 314 OFFCURVE",
"289 357 OFFCURVE",
"348 357 CURVE SMOOTH",
"406 357 OFFCURVE",
"453 314 OFFCURVE",
"453 252 CURVE SMOOTH",
"453 191 OFFCURVE",
"408 147 OFFCURVE",
"348 147 CURVE SMOOTH",
"286 147 OFFCURVE",
"244 191 OFFCURVE",
"244 252 CURVE SMOOTH"
);
},
{
closed = 1;
nodes = (
"440 550 OFFCURVE",
"402 513 OFFCURVE",
"349 513 CURVE SMOOTH",
"298 513 OFFCURVE",
"256 550 OFFCURVE",
"256 605 CURVE SMOOTH",
"256 658 OFFCURVE",
"296 698 OFFCURVE",
"349 698 CURVE SMOOTH",
"403 698 OFFCURVE",
"440 658 OFFCURVE",
"440 605 CURVE SMOOTH"
);
}
);
width = 712;
},
{
layerId = "7B60DD57-6012-4D0F-BD38-A72A4BAC0E9D";
paths = (
{
closed = 1;
nodes = (
"558 773 OFFCURVE",
"459 840 OFFCURVE",
"318 840 CURVE SMOOTH",
"182 840 OFFCURVE",
"75 773 OFFCURVE",
"75 626 CURVE SMOOTH",
"75 535 OFFCURVE",
"131 471 OFFCURVE",
"194 445 CURVE",
"111 417 OFFCURVE",
"40 355 OFFCURVE",
"40 232 CURVE SMOOTH",
"40 88 OFFCURVE",
"149 -15 OFFCURVE",
"319 -15 CURVE SMOOTH",
"484 -15 OFFCURVE",
"597 88 OFFCURVE",
"597 232 CURVE SMOOTH",
"597 355 OFFCURVE",
"525 417 OFFCURVE",
"442 445 CURVE",
"504 471 OFFCURVE",
"558 535 OFFCURVE",
"558 626 CURVE SMOOTH"
);
},
{
closed = 1;
nodes = (
"114 343 OFFCURVE",
"189 414 OFFCURVE",
"318 414 CURVE SMOOTH",
"446 414 OFFCURVE",
"523 343 OFFCURVE",
"523 232 CURVE SMOOTH",
"523 123 OFFCURVE",
"448 47 OFFCURVE",
"318 47 CURVE SMOOTH",
"186 47 OFFCURVE",
"114 123 OFFCURVE",
"114 232 CURVE SMOOTH"
);
},
{
closed = 1;
nodes = (
"490 543 OFFCURVE",
"442 476 OFFCURVE",
"319 476 CURVE SMOOTH",
"198 476 OFFCURVE",
"146 543 OFFCURVE",
"146 623 CURVE SMOOTH",
"146 716 OFFCURVE",
"196 778 OFFCURVE",
"319 778 CURVE SMOOTH",
"443 778 OFFCURVE",
"490 716 OFFCURVE",
"490 623 CURVE SMOOTH"
);
}
);
width = 652;
}
);
unicode = 0038;
},
{
glyphname = fraction;
lastChange = "2018-06-10 11:52:29 +0000";
layers = (
{
layerId = "A4E552E4-62BE-43BB-A58F-34F0EE3B77B8";
paths = (
{
closed = 1;
nodes = (
"-162 0 LINE",
"-44 0 LINE",
"436 825 LINE",
"318 825 LINE"
);
}
);
width = 289;
},
{
layerId = "7B60DD57-6012-4D0F-BD38-A72A4BAC0E9D";
paths = (
{
closed = 1;
nodes = (
"-162 0 LINE",
"-104 0 LINE",
"376 825 LINE",
"318 825 LINE"
);
}
);
width = 229;
}
);
rightKerningGroup = d;
unicode = 2044;
},
{
glyphname = period;
lastChange = "2018-06-10 11:52:29 +0000";
layers = (
{
layerId = "A4E552E4-62BE-43BB-A58F-34F0EE3B77B8";
paths = (
{
closed = 1;
nodes = (
"243 -15 OFFCURVE",
"294 36 OFFCURVE",
"294 99 CURVE SMOOTH",
"294 163 OFFCURVE",
"243 214 OFFCURVE",
"179 214 CURVE SMOOTH",
"116 214 OFFCURVE",
"65 163 OFFCURVE",
"65 99 CURVE SMOOTH",
"65 36 OFFCURVE",
"116 -15 OFFCURVE",
"179 -15 CURVE SMOOTH"
);
}
);
width = 374;
},
{
layerId = "7B60DD57-6012-4D0F-BD38-A72A4BAC0E9D";
paths = (
{
closed = 1;
nodes = (
"218 -15 OFFCURVE",
"249 16 OFFCURVE",
"249 55 CURVE SMOOTH",
"249 95 OFFCURVE",
"218 126 OFFCURVE",
"179 126 CURVE SMOOTH",
"140 126 OFFCURVE",
"109 95 OFFCURVE",
"109 55 CURVE SMOOTH",
"109 16 OFFCURVE",
"140 -15 OFFCURVE",
"179 -15 CURVE SMOOTH"
);
}
);
width = 374;
}
);
leftKerningGroup = comma;
rightKerningGroup = d;
unicode = 002E;
},
{
glyphname = comma;
lastChange = "2018-06-10 11:52:29 +0000";
layers = (
{
layerId = "A4E552E4-62BE-43BB-A58F-34F0EE3B77B8";
paths = (
{
closed = 1;
nodes = (
"116 214 OFFCURVE",
"65 163 OFFCURVE",
"65 99 CURVE SMOOTH",
"65 46 OFFCURVE",
"102 6 OFFCURVE",
"151 -6 CURVE",
"135 -89 OFFCURVE",
"75 -146 OFFCURVE",
"75 -146 CURVE",
"126 -188 LINE",
"208 -120 OFFCURVE",
"294 -22 OFFCURVE",
"294 99 CURVE SMOOTH",
"294 163 OFFCURVE",
"243 214 OFFCURVE",
"179 214 CURVE SMOOTH"
);
}
);
width = 374;
},
{
layerId = "7B60DD57-6012-4D0F-BD38-A72A4BAC0E9D";
paths = (
{
closed = 1;
nodes = (
"103 131 OFFCURVE",
"71 99 OFFCURVE",
"71 53 CURVE SMOOTH",
"71 14 OFFCURVE",
"111 -27 OFFCURVE",
"162 -11 CURVE",
"150 -72 OFFCURVE",
"75 -111 OFFCURVE",
"75 -111 CURVE",
"112 -142 LINE",
"171 -106 OFFCURVE",
"230 -40 OFFCURVE",
"230 48 CURVE SMOOTH",
"230 94 OFFCURVE",
"194 131 OFFCURVE",
"148 131 CURVE SMOOTH"
);
}
);
width = 312;
}
);
leftKerningGroup = comma;
rightKerningGroup = d;
unicode = 002C;
},
{
glyphname = exclam;
lastChange = "2018-06-10 11:52:29 +0000";
layers = (
{
layerId = "A4E552E4-62BE-43BB-A58F-34F0EE3B77B8";
paths = (
{
closed = 1;
nodes = (
"244 270 LINE",
"268 860 LINE",
"91 860 LINE",
"115 270 LINE"
);
},
{
closed = 1;
nodes = (
"243 -15 OFFCURVE",
"294 36 OFFCURVE",
"294 99 CURVE SMOOTH",
"294 163 OFFCURVE",
"243 214 OFFCURVE",
"179 214 CURVE SMOOTH",
"116 214 OFFCURVE",
"65 163 OFFCURVE",
"65 99 CURVE SMOOTH",
"65 36 OFFCURVE",
"116 -15 OFFCURVE",
"179 -15 CURVE SMOOTH"
);
}
);
width = 374;
},
{
layerId = "7B60DD57-6012-4D0F-BD38-A72A4BAC0E9D";
paths = (
{
closed = 1;
nodes = (
"204 210 LINE",
"218 860 LINE",
"141 860 LINE",
"155 210 LINE"
);
},
{
closed = 1;
nodes = (
"218 -15 OFFCURVE",
"249 16 OFFCURVE",
"249 55 CURVE SMOOTH",
"249 95 OFFCURVE",
"218 126 OFFCURVE",
"179 126 CURVE SMOOTH",
"140 126 OFFCURVE",
"109 95 OFFCURVE",
"109 55 CURVE SMOOTH",
"109 16 OFFCURVE",
"140 -15 OFFCURVE",
"179 -15 CURVE SMOOTH"
);
}
);
width = 374;
}
);
rightKerningGroup = d;
unicode = 0021;
},
{
glyphname = question;
lastChange = "2018-06-10 11:52:29 +0000";
layers = (
{
layerId = "A4E552E4-62BE-43BB-A58F-34F0EE3B77B8";
paths = (
{
closed = 1;
nodes = (
"374 270 LINE",
"374 326 LINE SMOOTH",
"374 359 OFFCURVE",
"375 387 OFFCURVE",
"409 402 CURVE SMOOTH",
"505 443 OFFCURVE",
"578 503 OFFCURVE",
"578 601 CURVE SMOOTH",
"578 742 OFFCURVE",
"444 840 OFFCURVE",
"294 840 CURVE SMOOTH",
"71 840 OFFCURVE",
"28 656 OFFCURVE",
"28 651 CURVE",
"175 580 LINE",
"186 623 OFFCURVE",
"221 683 OFFCURVE",
"293 683 CURVE SMOOTH",
"338 683 OFFCURVE",
"374 649 OFFCURVE",
"374 601 CURVE SMOOTH",
"374 530 OFFCURVE",
"317 527 OFFCURVE",
"256 488 CURVE SMOOTH",
"211 459 OFFCURVE",
"209 423 OFFCURVE",
"209 379 CURVE SMOOTH",
"209 270 LINE"
);
},
{
closed = 1;
nodes = (
"355 -15 OFFCURVE",
"406 36 OFFCURVE",
"406 99 CURVE SMOOTH",
"406 163 OFFCURVE",
"355 214 OFFCURVE",
"291 214 CURVE SMOOTH",
"228 214 OFFCURVE",
"177 163 OFFCURVE",
"177 99 CURVE SMOOTH",
"177 36 OFFCURVE",
"228 -15 OFFCURVE",
"291 -15 CURVE SMOOTH"
);
}
);
width = 621;
},
{
layerId = "7B60DD57-6012-4D0F-BD38-A72A4BAC0E9D";
paths = (
{
closed = 1;
nodes = (
"290 210 LINE",
"290 326 LINE SMOOTH",
"290 349 OFFCURVE",
"283 392 OFFCURVE",
"315 412 CURVE SMOOTH",
"412 473 OFFCURVE",
"494 533 OFFCURVE",
"494 641 CURVE SMOOTH",
"494 762 OFFCURVE",
"410 840 OFFCURVE",
"260 840 CURVE SMOOTH",
"87 840 OFFCURVE",
"28 686 OFFCURVE",
"28 681 CURVE",
"91 660 LINE",
"99 703 OFFCURVE",
"157 780 OFFCURVE",
"259 780 CURVE SMOOTH",
"355 780 OFFCURVE",
"421 733 OFFCURVE",
"421 641 CURVE SMOOTH",
"421 550 OFFCURVE",
"333 502 OFFCURVE",
"272 463 CURVE SMOOTH",
"227 434 OFFCURVE",
"225 393 OFFCURVE",
"225 349 CURVE SMOOTH",
"225 210 LINE"
);
},
{
closed = 1;
nodes = (
"296 -15 OFFCURVE",
"327 16 OFFCURVE",
"327 55 CURVE SMOOTH",
"327 95 OFFCURVE",
"296 126 OFFCURVE",
"257 126 CURVE SMOOTH",
"218 126 OFFCURVE",
"187 95 OFFCURVE",
"187 55 CURVE SMOOTH",
"187 16 OFFCURVE",
"218 -15 OFFCURVE",
"257 -15 CURVE SMOOTH"
);
}
);
width = 537;
}
);
rightKerningGroup = d;
unicode = 003F;
},
{
glyphname = bullet;
lastChange = "2018-06-10 11:52:29 +0000";
layers = (
{
layerId = "A4E552E4-62BE-43BB-A58F-34F0EE3B77B8";
paths = (
{
closed = 1;
nodes = (
"254 553 OFFCURVE",
"167 465 OFFCURVE",
"167 356 CURVE SMOOTH",
"167 248 OFFCURVE",
"254 161 OFFCURVE",
"362 161 CURVE SMOOTH",
"471 161 OFFCURVE",
"559 248 OFFCURVE",
"559 356 CURVE SMOOTH",
"559 465 OFFCURVE",
"471 553 OFFCURVE",
"362 553 CURVE SMOOTH"
);
}
);
width = 741;
},
{
layerId = "7B60DD57-6012-4D0F-BD38-A72A4BAC0E9D";
paths = (
{
closed = 1;
nodes = (
"216 469 OFFCURVE",
"167 419 OFFCURVE",
"167 356 CURVE SMOOTH",
"167 294 OFFCURVE",
"216 245 OFFCURVE",
"278 245 CURVE SMOOTH",
"341 245 OFFCURVE",
"391 294 OFFCURVE",
"391 356 CURVE SMOOTH",
"391 419 OFFCURVE",
"341 469 OFFCURVE",
"278 469 CURVE SMOOTH"
);
}
);
width = 573;
}
);
rightKerningGroup = d;
unicode = 2022;
},
{
glyphname = asterisk;
lastChange = "2018-06-10 11:52:29 +0000";
layers = (
{
layerId = "A4E552E4-62BE-43BB-A58F-34F0EE3B77B8";
paths = (
{
closed = 1;
nodes = (
"292 860 LINE",
"206 860 LINE",
"205 743 LINE",
"91 778 LINE",
"65 698 LINE",
"179 657 LINE",
"113 558 LINE",
"179 513 LINE",
"249 604 LINE",
"319 513 LINE",
"385 558 LINE",
"319 657 LINE",
"433 698 LINE",
"407 778 LINE",
"293 743 LINE"
);
}
);
width = 513;
},
{
layerId = "7B60DD57-6012-4D0F-BD38-A72A4BAC0E9D";
paths = (
{
closed = 1;
nodes = (
"274 850 LINE",
"224 850 LINE",
"223 719 LINE",
"99 761 LINE",
"84 714 LINE",
"208 669 LINE",
"132 563 LINE",
"170 537 LINE",
"249 639 LINE",
"323 536 LINE",
"361 562 LINE",
"290 669 LINE",
"414 714 LINE",
"399 761 LINE",
"275 719 LINE"
);
}
);
width = 513;
}
);
rightKerningGroup = d;
unicode = 002A;
},
{
glyphname = numbersign;
lastChange = "2018-06-10 11:52:29 +0000";
layers = (
{
layerId = "A4E552E4-62BE-43BB-A58F-34F0EE3B77B8";
paths = (
{
closed = 1;
nodes = (
"115 0 LINE",
"243 0 LINE",
"461 825 LINE",
"333 825 LINE"
);
},
{
closed = 1;
nodes = (
"348 0 LINE",
"476 0 LINE",
"694 825 LINE",
"566 825 LINE"
);
},
{
closed = 1;
nodes = (
"138 486 LINE",
"700 486 LINE",
"737 609 LINE",
"175 609 LINE"
);
},
{
closed = 1;
nodes = (
"73 217 LINE",
"635 217 LINE",
"672 340 LINE",
"110 340 LINE"
);
}
);
width = 858;
},
{
layerId = "7B60DD57-6012-4D0F-BD38-A72A4BAC0E9D";
paths = (
{
closed = 1;
nodes = (
"130 0 LINE",
"183 0 LINE",
"401 825 LINE",
"348 825 LINE"
);
},
{
closed = 1;
nodes = (
"348 0 LINE",
"401 0 LINE",
"619 825 LINE",
"566 825 LINE"
);
},
{
closed = 1;
nodes = (
"138 526 LINE",
"660 526 LINE",
"677 579 LINE",
"155 579 LINE"
);
},
{
closed = 1;
nodes = (
"73 247 LINE",
"595 247 LINE",
"612 300 LINE",
"90 300 LINE"
);
}
);
width = 798;
}
);
rightKerningGroup = d;
unicode = 0023;
},
{
glyphname = slash;
lastChange = "2018-06-10 11:52:29 +0000";
layers = (
{
layerId = "A4E552E4-62BE-43BB-A58F-34F0EE3B77B8";
paths = (
{
closed = 1;
nodes = (
"28 -120 LINE",
"181 -120 LINE",
"593 860 LINE",
"440 860 LINE"
);
}
);
width = 636;
},
{
layerId = "7B60DD57-6012-4D0F-BD38-A72A4BAC0E9D";
paths = (
{
closed = 1;
nodes = (
"28 -120 LINE",
"101 -120 LINE",
"513 860 LINE",
"440 860 LINE"
);
}
);
width = 556;
}
);
rightKerningGroup = d;
unicode = 002F;
},
{
glyphname = backslash;
lastChange = "2018-06-10 11:52:29 +0000";
layers = (
{
layerId = "A4E552E4-62BE-43BB-A58F-34F0EE3B77B8";
paths = (
{
closed = 1;
nodes = (
"181 860 LINE",
"28 860 LINE",
"440 0 LINE",
"593 0 LINE"
);
}
);
width = 636;
},
{
layerId = "7B60DD57-6012-4D0F-BD38-A72A4BAC0E9D";
paths = (
{
closed = 1;
nodes = (
"101 860 LINE",
"28 860 LINE",
"440 0 LINE",
"513 0 LINE"
);
}
);
width = 556;
}
);
rightKerningGroup = d;
unicode = 005C;
},
{
glyphname = parenleft;
lastChange = "2018-06-10 11:52:29 +0000";
layers = (
{
layerId = "A4E552E4-62BE-43BB-A58F-34F0EE3B77B8";
paths = (
{
closed = 1;
nodes = (
"350 -211 LINE",
"350 -211 OFFCURVE",
"223 -41 OFFCURVE",
"223 297 CURVE SMOOTH",
"223 655 OFFCURVE",
"364 826 OFFCURVE",
"364 826 CURVE",
"249 875 LINE",
"249 875 OFFCURVE",
"60 653 OFFCURVE",
"60 297 CURVE SMOOTH",
"60 -49 OFFCURVE",
"235 -260 OFFCURVE",
"235 -260 CURVE"
);
}
);
width = 428;
},
{
layerId = "7B60DD57-6012-4D0F-BD38-A72A4BAC0E9D";
paths = (
{
closed = 1;
nodes = (
"270 -219 LINE",
"270 -219 OFFCURVE",
"123 -41 OFFCURVE",
"123 297 CURVE SMOOTH",
"123 655 OFFCURVE",
"274 841 OFFCURVE",
"274 841 CURVE",
"215 871 LINE",
"215 871 OFFCURVE",
"60 653 OFFCURVE",
"60 297 CURVE SMOOTH",
"60 -49 OFFCURVE",
"215 -250 OFFCURVE",
"215 -250 CURVE"
);
}
);
width = 338;
}
);
rightKerningGroup = d;
unicode = 0028;
},
{
glyphname = braceleft;
lastChange = "2018-06-10 11:52:29 +0000";
layers = (
{
layerId = "A4E552E4-62BE-43BB-A58F-34F0EE3B77B8";
paths = (
{
closed = 1;
nodes = (
"65 253 LINE",
"108 253 OFFCURVE",
"135 234 OFFCURVE",
"135 188 CURVE SMOOTH",
"135 -79 LINE SMOOTH",
"135 -162 OFFCURVE",
"166 -260 OFFCURVE",
"294 -260 CURVE SMOOTH",
"391 -260 LINE",
"391 -132 LINE",
"351 -132 LINE SMOOTH",
"316 -132 OFFCURVE",
"288 -104 OFFCURVE",
"288 -64 CURVE SMOOTH",
"288 193 LINE SMOOTH",
"288 249 OFFCURVE",
"261 282 OFFCURVE",
"227 300 CURVE",
"261 318 OFFCURVE",
"288 350 OFFCURVE",
"288 407 CURVE SMOOTH",
"288 664 LINE SMOOTH",
"288 704 OFFCURVE",
"316 732 OFFCURVE",
"351 732 CURVE SMOOTH",
"391 732 LINE",
"391 860 LINE",
"294 860 LINE SMOOTH",
"166 860 OFFCURVE",
"135 762 OFFCURVE",
"135 679 CURVE SMOOTH",
"135 412 LINE SMOOTH",
"135 366 OFFCURVE",
"108 347 OFFCURVE",
"65 347 CURVE"
);
}
);
width = 471;
},
{
layerId = "7B60DD57-6012-4D0F-BD38-A72A4BAC0E9D";
paths = (
{
closed = 1;
nodes = (
"65 263 LINE",
"128 263 OFFCURVE",
"145 234 OFFCURVE",
"145 188 CURVE SMOOTH",
"145 -79 LINE SMOOTH",
"145 -162 OFFCURVE",
"136 -260 OFFCURVE",
"264 -260 CURVE SMOOTH",
"321 -260 LINE",
"321 -192 LINE",
"301 -192 LINE SMOOTH",
"226 -192 OFFCURVE",
"218 -164 OFFCURVE",
"218 -124 CURVE SMOOTH",
"218 193 LINE SMOOTH",
"218 249 OFFCURVE",
"192 291 OFFCURVE",
"148 299 CURVE",
"192 307 OFFCURVE",
"218 350 OFFCURVE",
"218 407 CURVE SMOOTH",
"218 724 LINE SMOOTH",
"218 764 OFFCURVE",
"226 792 OFFCURVE",
"301 792 CURVE SMOOTH",
"321 792 LINE",
"321 860 LINE",
"264 860 LINE SMOOTH",
"136 860 OFFCURVE",
"145 762 OFFCURVE",
"145 679 CURVE SMOOTH",
"145 412 LINE SMOOTH",
"145 366 OFFCURVE",
"128 337 OFFCURVE",
"65 337 CURVE"
);
}
);
width = 401;
}
);
rightKerningGroup = d;
unicode = 007B;
},
{
glyphname = bracketleft;
lastChange = "2018-06-10 11:52:29 +0000";
layers = (
{
layerId = "A4E552E4-62BE-43BB-A58F-34F0EE3B77B8";
paths = (
{
closed = 1;
nodes = (
"387 -260 LINE",
"387 -143 LINE",
"218 -143 LINE",
"218 743 LINE",
"387 743 LINE",
"387 860 LINE",
"65 860 LINE",
"65 -260 LINE"
);
}
);
width = 467;
},
{
layerId = "7B60DD57-6012-4D0F-BD38-A72A4BAC0E9D";
paths = (
{
closed = 1;
nodes = (
"307 -260 LINE",
"307 -193 LINE",
"138 -193 LINE",
"138 793 LINE",
"307 793 LINE",
"307 860 LINE",
"65 860 LINE",
"65 -260 LINE"
);
}
);
width = 387;
}
);
rightKerningGroup = d;
unicode = 005B;
},
{
glyphname = hyphen;
lastChange = "2018-06-10 11:52:29 +0000";
layers = (
{
layerId = "A4E552E4-62BE-43BB-A58F-34F0EE3B77B8";
paths = (
{
closed = 1;
nodes = (
"387 213 LINE",
"387 366 LINE",
"65 366 LINE",
"65 213 LINE"
);
}
);
width = 467;
},
{
layerId = "7B60DD57-6012-4D0F-BD38-A72A4BAC0E9D";
paths = (
{
closed = 1;
nodes = (
"387 263 LINE",
"387 316 LINE",
"65 316 LINE",
"65 263 LINE"
);
}
);
width = 467;
}
);
rightKerningGroup = d;
unicode = 002D;
},
{
glyphname = endash;
lastChange = "2018-06-10 11:52:29 +0000";
layers = (
{
layerId = "A4E552E4-62BE-43BB-A58F-34F0EE3B77B8";
paths = (
{
closed = 1;
nodes = (
"545 213 LINE",
"545 366 LINE",
"5 366 LINE",
"5 213 LINE"
);
}
);
width = 565;
},
{
layerId = "7B60DD57-6012-4D0F-BD38-A72A4BAC0E9D";
paths = (
{
closed = 1;
nodes = (
"495 263 LINE",
"495 316 LINE",
"5 316 LINE",
"5 263 LINE"
);
}
);
width = 515;
}
);
rightKerningGroup = d;
unicode = 2013;
},
{
glyphname = emdash;
lastChange = "2018-06-10 11:52:29 +0000";
layers = (
{
layerId = "A4E552E4-62BE-43BB-A58F-34F0EE3B77B8";
paths = (
{
closed = 1;
nodes = (
"1085 213 LINE",
"1085 366 LINE",
"5 366 LINE",
"5 213 LINE"
);
}
);
width = 1105;
},
{
layerId = "7B60DD57-6012-4D0F-BD38-A72A4BAC0E9D";
paths = (
{
closed = 1;
nodes = (
"945 263 LINE",
"945 316 LINE",
"5 316 LINE",
"5 263 LINE"
);
}
);
width = 965;
}
);
rightKerningGroup = d;
unicode = 2014;
},
{
glyphname = underscore;
lastChange = "2018-06-10 11:52:29 +0000";
layers = (
{
layerId = "A4E552E4-62BE-43BB-A58F-34F0EE3B77B8";
paths = (
{
closed = 1;
nodes = (
"518 -100 LINE",
"518 -15 LINE",
"5 -15 LINE",
"5 -100 LINE"
);
}
);
width = 538;
},
{
layerId = "7B60DD57-6012-4D0F-BD38-A72A4BAC0E9D";
paths = (
{
closed = 1;
nodes = (
"458 -80 LINE",
"458 -35 LINE",
"5 -35 LINE",
"5 -80 LINE"
);
}
);
width = 478;
}
);
rightKerningGroup = d;
unicode = 005F;
},
{
glyphname = quotesinglbase;
lastChange = "2018-06-10 11:52:29 +0000";
layers = (
{
layerId = "A4E552E4-62BE-43BB-A58F-34F0EE3B77B8";
paths = (
{
closed = 1;
nodes = (
"111 214 OFFCURVE",
"65 167 OFFCURVE",
"65 109 CURVE SMOOTH",
"65 62 OFFCURVE",
"99 26 OFFCURVE",
"143 15 CURVE",
"129 -61 OFFCURVE",
"74 -113 OFFCURVE",
"74 -113 CURVE",
"121 -150 LINE",
"194 -89 OFFCURVE",
"273 0 OFFCURVE",
"273 109 CURVE SMOOTH",
"273 167 OFFCURVE",
"226 214 OFFCURVE",
"168 214 CURVE SMOOTH"
);
}
);
width = 316;
},
{
layerId = "7B60DD57-6012-4D0F-BD38-A72A4BAC0E9D";
paths = (
{
closed = 1;
nodes = (
"97 131 OFFCURVE",
"65 99 OFFCURVE",
"65 53 CURVE SMOOTH",
"65 14 OFFCURVE",
"105 -27 OFFCURVE",
"156 -11 CURVE",
"144 -72 OFFCURVE",
"69 -111 OFFCURVE",
"69 -111 CURVE",
"106 -142 LINE",
"165 -106 OFFCURVE",
"224 -40 OFFCURVE",
"224 48 CURVE SMOOTH",
"224 94 OFFCURVE",
"188 131 OFFCURVE",
"142 131 CURVE SMOOTH"
);
}
);
width = 267;
}
);
rightKerningGroup = d;
unicode = 201A;
},
{
glyphname = quotedblbase;
lastChange = "2018-06-10 11:52:29 +0000";
layers = (
{
layerId = "A4E552E4-62BE-43BB-A58F-34F0EE3B77B8";
paths = (
{
closed = 1;
nodes = (
"112 214 OFFCURVE",
"65 167 OFFCURVE",
"65 109 CURVE SMOOTH",
"65 62 OFFCURVE",
"99 26 OFFCURVE",
"144 15 CURVE",
"129 -61 OFFCURVE",
"74 -113 OFFCURVE",
"74 -113 CURVE",
"121 -150 LINE",
"195 -89 OFFCURVE",
"272 0 OFFCURVE",
"272 109 CURVE SMOOTH",
"272 167 OFFCURVE",
"227 214 OFFCURVE",
"169 214 CURVE SMOOTH"
);
},
{
closed = 1;
nodes = (
"365 214 OFFCURVE",
"319 167 OFFCURVE",
"319 109 CURVE SMOOTH",
"319 62 OFFCURVE",
"353 26 OFFCURVE",
"397 15 CURVE",
"383 -61 OFFCURVE",
"328 -113 OFFCURVE",
"328 -113 CURVE",
"375 -150 LINE",
"448 -89 OFFCURVE",
"527 0 OFFCURVE",
"527 109 CURVE SMOOTH",
"527 167 OFFCURVE",
"480 214 OFFCURVE",
"422 214 CURVE SMOOTH"
);
}
);
width = 570;
},
{
layerId = "7B60DD57-6012-4D0F-BD38-A72A4BAC0E9D";
paths = (
{
closed = 1;
nodes = (
"97 131 OFFCURVE",
"65 99 OFFCURVE",
"65 53 CURVE SMOOTH",
"65 14 OFFCURVE",
"105 -27 OFFCURVE",
"156 -11 CURVE",
"144 -72 OFFCURVE",
"69 -111 OFFCURVE",
"69 -111 CURVE",
"106 -142 LINE",
"165 -106 OFFCURVE",
"224 -40 OFFCURVE",
"224 48 CURVE SMOOTH",
"224 94 OFFCURVE",
"188 131 OFFCURVE",
"142 131 CURVE SMOOTH"
);
},
{
closed = 1;
nodes = (
"340 131 OFFCURVE",
"308 99 OFFCURVE",
"308 53 CURVE SMOOTH",
"308 14 OFFCURVE",
"348 -27 OFFCURVE",
"399 -11 CURVE",
"387 -72 OFFCURVE",
"312 -111 OFFCURVE",
"312 -111 CURVE",
"349 -142 LINE",
"408 -106 OFFCURVE",
"467 -40 OFFCURVE",
"467 48 CURVE SMOOTH",
"467 94 OFFCURVE",
"431 131 OFFCURVE",
"385 131 CURVE SMOOTH"
);
}
);
width = 510;
}
);
rightKerningGroup = d;
unicode = 201E;
},
{
glyphname = quotedblleft;
lastChange = "2018-06-10 11:52:29 +0000";
layers = (
{
layerId = "A4E552E4-62BE-43BB-A58F-34F0EE3B77B8";
paths = (
{
closed = 1;
nodes = (
"200 476 OFFCURVE",
"246 523 OFFCURVE",
"246 581 CURVE SMOOTH",
"246 628 OFFCURVE",
"212 664 OFFCURVE",
"168 675 CURVE",
"182 751 OFFCURVE",
"237 803 OFFCURVE",
"237 803 CURVE",
"190 840 LINE",
"117 779 OFFCURVE",
"38 690 OFFCURVE",
"38 581 CURVE SMOOTH",
"38 523 OFFCURVE",
"85 476 OFFCURVE",
"143 476 CURVE SMOOTH"
);
},
{
closed = 1;
nodes = (
"453 476 OFFCURVE",
"500 523 OFFCURVE",
"500 581 CURVE SMOOTH",
"500 628 OFFCURVE",
"466 664 OFFCURVE",
"421 675 CURVE",
"436 751 OFFCURVE",
"491 803 OFFCURVE",
"491 803 CURVE",
"444 840 LINE",
"370 779 OFFCURVE",
"293 690 OFFCURVE",
"293 581 CURVE SMOOTH",
"293 523 OFFCURVE",
"338 476 OFFCURVE",
"396 476 CURVE SMOOTH"
);
}
);
width = 570;
},
{
layerId = "7B60DD57-6012-4D0F-BD38-A72A4BAC0E9D";
paths = (
{
closed = 1;
nodes = (
"157 557 OFFCURVE",
"195 594 OFFCURVE",
"195 640 CURVE SMOOTH",
"195 689 OFFCURVE",
"136 721 OFFCURVE",
"94 689 CURVE",
"106 750 OFFCURVE",
"163 790 OFFCURVE",
"163 790 CURVE",
"130 821 LINE",
"83 785 OFFCURVE",
"28 714 OFFCURVE",
"28 640 CURVE SMOOTH",
"28 594 OFFCURVE",
"66 557 OFFCURVE",
"112 557 CURVE SMOOTH"
);
},
{
closed = 1;
nodes = (
"380 557 OFFCURVE",
"418 594 OFFCURVE",
"418 640 CURVE SMOOTH",
"418 689 OFFCURVE",
"359 721 OFFCURVE",
"317 689 CURVE",
"329 750 OFFCURVE",
"386 790 OFFCURVE",
"386 790 CURVE",
"353 821 LINE",
"306 785 OFFCURVE",
"251 714 OFFCURVE",
"251 640 CURVE SMOOTH",
"251 594 OFFCURVE",
"289 557 OFFCURVE",
"335 557 CURVE SMOOTH"
);
}
);
width = 498;
}
);
leftKerningGroup = quotesingle;
rightKerningGroup = quotesingle;
unicode = 201C;
},
{
glyphname = quotedblright;
lastChange = "2018-06-10 11:52:29 +0000";
layers = (
{
layerId = "A4E552E4-62BE-43BB-A58F-34F0EE3B77B8";
paths = (
{
closed = 1;
nodes = (
"355 840 OFFCURVE",
"309 793 OFFCURVE",
"309 735 CURVE SMOOTH",
"309 688 OFFCURVE",
"343 652 OFFCURVE",
"387 641 CURVE",
"373 565 OFFCURVE",
"318 513 OFFCURVE",
"318 513 CURVE",
"365 476 LINE",
"438 537 OFFCURVE",
"517 626 OFFCURVE",
"517 735 CURVE SMOOTH",
"517 793 OFFCURVE",
"470 840 OFFCURVE",
"412 840 CURVE SMOOTH"
);
},
{
closed = 1;
nodes = (
"102 840 OFFCURVE",
"55 793 OFFCURVE",
"55 735 CURVE SMOOTH",
"55 688 OFFCURVE",
"89 652 OFFCURVE",
"134 641 CURVE",
"119 565 OFFCURVE",
"64 513 OFFCURVE",
"64 513 CURVE",
"111 476 LINE",
"185 537 OFFCURVE",
"262 626 OFFCURVE",
"262 735 CURVE SMOOTH",
"262 793 OFFCURVE",
"217 840 OFFCURVE",
"159 840 CURVE SMOOTH"
);
}
);
width = 570;
},
{
layerId = "7B60DD57-6012-4D0F-BD38-A72A4BAC0E9D";
paths = (
{
closed = 1;
nodes = (
"316 809 OFFCURVE",
"278 772 OFFCURVE",
"278 726 CURVE SMOOTH",
"278 677 OFFCURVE",
"337 645 OFFCURVE",
"379 677 CURVE",
"367 616 OFFCURVE",
"310 576 OFFCURVE",
"310 576 CURVE",
"343 545 LINE",
"390 581 OFFCURVE",
"445 652 OFFCURVE",
"445 726 CURVE SMOOTH",
"445 772 OFFCURVE",
"407 809 OFFCURVE",
"361 809 CURVE SMOOTH"
);
},
{
closed = 1;
nodes = (
"93 809 OFFCURVE",
"55 772 OFFCURVE",
"55 726 CURVE SMOOTH",
"55 677 OFFCURVE",
"114 645 OFFCURVE",
"156 677 CURVE",
"144 616 OFFCURVE",
"87 576 OFFCURVE",
"87 576 CURVE",
"120 545 LINE",
"167 581 OFFCURVE",
"222 652 OFFCURVE",
"222 726 CURVE SMOOTH",
"222 772 OFFCURVE",
"184 809 OFFCURVE",
"138 809 CURVE SMOOTH"
);
}
);
width = 498;
}
);
leftKerningGroup = quotesingle;
rightKerningGroup = quotesingle;
unicode = 201D;
},
{
glyphname = quoteleft;
lastChange = "2018-06-10 11:52:29 +0000";
layers = (
{
layerId = "A4E552E4-62BE-43BB-A58F-34F0EE3B77B8";
paths = (
{
closed = 1;
nodes = (
"190 476 OFFCURVE",
"236 523 OFFCURVE",
"236 581 CURVE SMOOTH",
"236 628 OFFCURVE",
"202 664 OFFCURVE",
"158 675 CURVE",
"172 751 OFFCURVE",
"227 803 OFFCURVE",
"227 803 CURVE",
"180 840 LINE",
"107 779 OFFCURVE",
"28 690 OFFCURVE",
"28 581 CURVE SMOOTH",
"28 523 OFFCURVE",
"75 476 OFFCURVE",
"133 476 CURVE SMOOTH"
);
}
);
width = 316;
},
{
layerId = "7B60DD57-6012-4D0F-BD38-A72A4BAC0E9D";
paths = (
{
closed = 1;
nodes = (
"157 557 OFFCURVE",
"195 594 OFFCURVE",
"195 640 CURVE SMOOTH",
"195 689 OFFCURVE",
"136 721 OFFCURVE",
"94 689 CURVE",
"106 750 OFFCURVE",
"163 790 OFFCURVE",
"163 790 CURVE",
"130 821 LINE",
"83 785 OFFCURVE",
"28 714 OFFCURVE",
"28 640 CURVE SMOOTH",
"28 594 OFFCURVE",
"66 557 OFFCURVE",
"112 557 CURVE SMOOTH"
);
}
);
width = 245;
}
);
leftKerningGroup = quotesingle;
rightKerningGroup = quotesingle;
unicode = 2018;
},
{
glyphname = quoteright;
lastChange = "2018-06-10 11:52:29 +0000";
layers = (
{
layerId = "A4E552E4-62BE-43BB-A58F-34F0EE3B77B8";
paths = (
{
closed = 1;
nodes = (
"91 840 OFFCURVE",
"45 793 OFFCURVE",
"45 735 CURVE SMOOTH",
"45 688 OFFCURVE",
"79 652 OFFCURVE",
"123 641 CURVE",
"109 565 OFFCURVE",
"54 513 OFFCURVE",
"54 513 CURVE",
"101 476 LINE",
"174 537 OFFCURVE",
"253 626 OFFCURVE",
"253 735 CURVE SMOOTH",
"253 793 OFFCURVE",
"206 840 OFFCURVE",
"148 840 CURVE SMOOTH"
);
}
);
width = 316;
},
{
layerId = "7B60DD57-6012-4D0F-BD38-A72A4BAC0E9D";
paths = (
{
closed = 1;
nodes = (
"83 809 OFFCURVE",
"45 772 OFFCURVE",
"45 726 CURVE SMOOTH",
"45 677 OFFCURVE",
"104 645 OFFCURVE",
"146 677 CURVE",
"134 616 OFFCURVE",
"77 576 OFFCURVE",
"77 576 CURVE",
"110 545 LINE",
"157 581 OFFCURVE",
"212 652 OFFCURVE",
"212 726 CURVE SMOOTH",
"212 772 OFFCURVE",
"174 809 OFFCURVE",
"128 809 CURVE SMOOTH"
);
}
);
width = 272;
}
);
leftKerningGroup = quotesingle;
rightKerningGroup = quotesingle;
unicode = 2019;
},
{
glyphname = guillemetleft;
lastChange = "2018-06-10 11:52:29 +0000";
layers = (
{
layerId = "A4E552E4-62BE-43BB-A58F-34F0EE3B77B8";
paths = (
{
closed = 1;
nodes = (
"188 278 LINE",
"326 455 LINE",
"233 528 LINE",
"38 278 LINE",
"233 28 LINE",
"326 101 LINE"
);
},
{
closed = 1;
nodes = (
"438 278 LINE",
"576 455 LINE",
"483 528 LINE",
"288 278 LINE",
"483 28 LINE",
"576 101 LINE"
);
}
);
width = 650;
},
{
layerId = "7B60DD57-6012-4D0F-BD38-A72A4BAC0E9D";
paths = (
{
closed = 1;
nodes = (
"97 278 LINE",
"254 475 LINE",
"216 504 LINE",
"38 278 LINE",
"216 51 LINE",
"254 82 LINE"
);
},
{
closed = 1;
nodes = (
"329 278 LINE",
"486 475 LINE",
"448 504 LINE",
"270 278 LINE",
"448 51 LINE",
"486 82 LINE"
);
}
);
width = 560;
}
);
rightKerningGroup = d;
unicode = 00AB;
},
{
glyphname = guilsinglleft;
lastChange = "2018-06-10 11:52:29 +0000";
layers = (
{
layerId = "A4E552E4-62BE-43BB-A58F-34F0EE3B77B8";
paths = (
{
closed = 1;
nodes = (
"188 278 LINE",
"326 455 LINE",
"233 528 LINE",
"38 278 LINE",
"233 28 LINE",
"326 101 LINE"
);
}
);
width = 400;
},
{
layerId = "7B60DD57-6012-4D0F-BD38-A72A4BAC0E9D";
paths = (
{
closed = 1;
nodes = (
"97 278 LINE",
"254 475 LINE",
"216 504 LINE",
"38 278 LINE",
"216 51 LINE",
"254 82 LINE"
);
}
);
width = 328;
}
);
rightKerningGroup = d;
unicode = 2039;
},
{
glyphname = quotedbl;
lastChange = "2018-06-10 11:52:29 +0000";
layers = (
{
layerId = "A4E552E4-62BE-43BB-A58F-34F0EE3B77B8";
paths = (
{
closed = 1;
nodes = (
"105 840 OFFCURVE",
"65 804 OFFCURVE",
"65 765 CURVE SMOOTH",
"65 761 LINE SMOOTH",
"65 715 OFFCURVE",
"107 475 OFFCURVE",
"107 475 CURVE",
"174 475 LINE",
"174 475 OFFCURVE",
"236 715 OFFCURVE",
"236 761 CURVE SMOOTH",
"236 765 LINE SMOOTH",
"236 804 OFFCURVE",
"196 840 OFFCURVE",
"150 840 CURVE SMOOTH"
);
},
{
closed = 1;
nodes = (
"327 840 OFFCURVE",
"287 804 OFFCURVE",
"287 765 CURVE SMOOTH",
"287 761 LINE SMOOTH",
"287 715 OFFCURVE",
"329 475 OFFCURVE",
"329 475 CURVE",
"396 475 LINE",
"396 475 OFFCURVE",
"458 715 OFFCURVE",
"458 761 CURVE SMOOTH",
"458 765 LINE SMOOTH",
"458 804 OFFCURVE",
"418 840 OFFCURVE",
"372 840 CURVE SMOOTH"
);
}
);
width = 538;
},
{
layerId = "7B60DD57-6012-4D0F-BD38-A72A4BAC0E9D";
paths = (
{
closed = 1;
nodes = (
"83 810 OFFCURVE",
"65 785 OFFCURVE",
"65 757 CURVE SMOOTH",
"65 754 LINE SMOOTH",
"65 722 OFFCURVE",
"88 552 OFFCURVE",
"88 552 CURVE",
"128 552 LINE",
"128 552 OFFCURVE",
"165 722 OFFCURVE",
"165 754 CURVE SMOOTH",
"165 757 LINE SMOOTH",
"165 785 OFFCURVE",
"147 810 OFFCURVE",
"115 810 CURVE SMOOTH"
);
},
{
closed = 1;
nodes = (
"260 810 OFFCURVE",
"242 785 OFFCURVE",
"242 757 CURVE SMOOTH",
"242 754 LINE SMOOTH",
"242 722 OFFCURVE",
"265 552 OFFCURVE",
"265 552 CURVE",
"305 552 LINE",
"305 552 OFFCURVE",
"342 722 OFFCURVE",
"342 754 CURVE SMOOTH",
"342 757 LINE SMOOTH",
"342 785 OFFCURVE",
"324 810 OFFCURVE",
"292 810 CURVE SMOOTH"
);
}
);
width = 422;
}
);
rightKerningGroup = d;
unicode = 0022;
},
{
glyphname = quotesingle;
lastChange = "2018-06-10 11:52:29 +0000";
layers = (
{
layerId = "A4E552E4-62BE-43BB-A58F-34F0EE3B77B8";
paths = (
{
closed = 1;
nodes = (
"105 840 OFFCURVE",
"65 804 OFFCURVE",
"65 765 CURVE SMOOTH",
"65 761 LINE SMOOTH",
"65 715 OFFCURVE",
"107 475 OFFCURVE",
"107 475 CURVE",
"174 475 LINE",
"174 475 OFFCURVE",
"236 715 OFFCURVE",
"236 761 CURVE SMOOTH",
"236 765 LINE SMOOTH",
"236 804 OFFCURVE",
"196 840 OFFCURVE",
"150 840 CURVE SMOOTH"
);
}
);
width = 316;
},
{
layerId = "7B60DD57-6012-4D0F-BD38-A72A4BAC0E9D";
paths = (
{
closed = 1;
nodes = (
"83 810 OFFCURVE",
"65 785 OFFCURVE",
"65 757 CURVE SMOOTH",
"65 754 LINE SMOOTH",
"65 722 OFFCURVE",
"88 552 OFFCURVE",
"88 552 CURVE",
"128 552 LINE",
"128 552 OFFCURVE",
"165 722 OFFCURVE",
"165 754 CURVE SMOOTH",
"165 757 LINE SMOOTH",
"165 785 OFFCURVE",
"147 810 OFFCURVE",
"115 810 CURVE SMOOTH"
);
}
);
width = 245;
}
);
leftKerningGroup = quotesingle;
rightKerningGroup = quotesingle;
unicode = 0027;
},
{
glyphname = cent;
lastChange = "2018-06-10 11:52:29 +0000";
layers = (
{
components = (
{
name = c;
transform = "{1, 0, 0, 1, 10, 0}";
}
);
layerId = "A4E552E4-62BE-43BB-A58F-34F0EE3B77B8";
paths = (
{
closed = 1;
nodes = (
"254 494 LINE",
"361 494 LINE",
"361 636 LINE",
"254 636 LINE"
);
},
{
closed = 1;
nodes = (
"254 -129 LINE",
"361 -129 LINE",
"361 13 LINE",
"254 13 LINE"
);
}
);
width = 516;
},
{
components = (
{
name = c;
transform = "{1, 0, 0, 1, 10, 0}";
}
);
layerId = "7B60DD57-6012-4D0F-BD38-A72A4BAC0E9D";
paths = (
{
closed = 1;
nodes = (
"264 494 LINE",
"311 494 LINE",
"311 636 LINE",
"264 636 LINE"
);
},
{
closed = 1;
nodes = (
"264 -129 LINE",
"311 -129 LINE",
"311 13 LINE",
"264 13 LINE"
);
}
);
width = 516;
}
);
leftKerningGroup = c;
rightKerningGroup = c;
unicode = 00A2;
},
{
glyphname = dollar;
lastChange = "2018-06-10 11:52:29 +0000";
layers = (
{
components = (
{
name = S;
transform = "{1, 0, 0, 1, 10, 0}";
}
);
layerId = "A4E552E4-62BE-43BB-A58F-34F0EE3B77B8";
paths = (
{
closed = 1;
nodes = (
"286 817 LINE",
"393 817 LINE",
"393 959 LINE",
"286 959 LINE"
);
},
{
closed = 1;
nodes = (
"286 -129 LINE",
"393 -129 LINE",
"393 13 LINE",
"286 13 LINE"
);
}
);
width = 697;
},
{
components = (
{
name = S;
transform = "{1, 0, 0, 1, 10, 0}";
}
);
layerId = "7B60DD57-6012-4D0F-BD38-A72A4BAC0E9D";
paths = (
{
closed = 1;
nodes = (
"286 817 LINE",
"333 817 LINE",
"333 959 LINE",
"286 959 LINE"
);
},
{
closed = 1;
nodes = (
"286 -129 LINE",
"333 -129 LINE",
"333 13 LINE",
"286 13 LINE"
);
}
);
width = 607;
}
);
leftKerningGroup = S;
rightKerningGroup = d;
unicode = 0024;
},
{
glyphname = euro;
lastChange = "2018-06-10 11:52:29 +0000";
layers = (
{
components = (
{
alignment = -1;
name = C.ss01;
transform = "{1, 0, 0, 1, 43, 0}";
}
);
layerId = "A4E552E4-62BE-43BB-A58F-34F0EE3B77B8";
paths = (
{
closed = 1;
nodes = (
"12 441 LINE",
"634 441 LINE",
"634 549 LINE",
"12 549 LINE"
);
},
{
closed = 1;
nodes = (
"12 274 LINE",
"634 274 LINE",
"634 382 LINE",
"12 382 LINE"
);
}
);
width = 822;
},
{
components = (
{
alignment = -1;
name = C.ss01;
transform = "{1, 0, 0, 1, 43, 0}";
}
);
layerId = "7B60DD57-6012-4D0F-BD38-A72A4BAC0E9D";
paths = (
{
closed = 1;
nodes = (
"12 461 LINE",
"634 461 LINE",
"634 529 LINE",
"12 529 LINE"
);
},
{
closed = 1;
nodes = (
"12 294 LINE",
"634 294 LINE",
"634 362 LINE",
"12 362 LINE"
);
}
);
width = 792;
}
);
rightKerningGroup = d;
unicode = 20AC;
},
{
glyphname = sterling;
lastChange = "2018-06-10 11:52:29 +0000";
layers = (
{
layerId = "A4E552E4-62BE-43BB-A58F-34F0EE3B77B8";
paths = (
{
closed = 1;
nodes = (
"60 289 LINE",
"210 289 LINE",
"217 272 OFFCURVE",
"222 255 OFFCURVE",
"222 236 CURVE SMOOTH",
"222 213 OFFCURVE",
"219 197 OFFCURVE",
"206 178 CURVE",
"116 178 OFFCURVE",
"60 54 OFFCURVE",
"60 0 CURVE",
"175 0 LINE",
"175 0 OFFCURVE",
"181 43 OFFCURVE",
"222 43 CURVE SMOOTH",
"316 43 OFFCURVE",
"409 -15 OFFCURVE",
"533 -15 CURVE SMOOTH",
"693 -15 OFFCURVE",
"716 133 OFFCURVE",
"716 133 CURVE",
"579 201 LINE",
"579 201 OFFCURVE",
"569 129 OFFCURVE",
"512 129 CURVE SMOOTH",
"438 129 OFFCURVE",
"371 162 OFFCURVE",
"355 162 CURVE SMOOTH",
"355 162 OFFCURVE",
"383 196 OFFCURVE",
"383 243 CURVE SMOOTH",
"383 260 OFFCURVE",
"382 275 OFFCURVE",
"380 289 CURVE",
"517 289 LINE",
"517 387 LINE",
"344 387 LINE",
"322 436 OFFCURVE",
"296 496 OFFCURVE",
"296 578 CURVE SMOOTH",
"296 654 OFFCURVE",
"329 689 OFFCURVE",
"391 689 CURVE SMOOTH",
"488 689 OFFCURVE",
"507 574 OFFCURVE",
"507 574 CURVE",
"665 651 LINE",
"665 651 OFFCURVE",
"625 841 OFFCURVE",
"391 841 CURVE SMOOTH",
"206 841 OFFCURVE",
"110 724 OFFCURVE",
"110 578 CURVE SMOOTH",
"110 503 OFFCURVE",
"134 431 OFFCURVE",
"162 387 CURVE",
"60 387 LINE"
);
}
);
width = 774;
},
{
layerId = "7B60DD57-6012-4D0F-BD38-A72A4BAC0E9D";
paths = (
{
closed = 1;
nodes = (
"60 306 LINE",
"192 306 LINE",
"199 292 OFFCURVE",
"213 239 OFFCURVE",
"213 220 CURVE SMOOTH",
"213 197 OFFCURVE",
"206 156 OFFCURVE",
"196 148 CURVE",
"116 148 OFFCURVE",
"60 64 OFFCURVE",
"60 0 CURVE",
"125 0 LINE",
"125 0 OFFCURVE",
"141 86 OFFCURVE",
"212 86 CURVE SMOOTH",
"306 86 OFFCURVE",
"379 -15 OFFCURVE",
"503 -15 CURVE SMOOTH",
"632 -15 OFFCURVE",
"666 113 OFFCURVE",
"666 113 CURVE",
"609 141 LINE",
"609 141 OFFCURVE",
"599 48 OFFCURVE",
"502 48 CURVE SMOOTH",
"428 48 OFFCURVE",
"347 128 OFFCURVE",
"270 143 CURVE SMOOTH",
"270 143 OFFCURVE",
"285 180 OFFCURVE",
"286 217 CURVE SMOOTH",
"287 247 OFFCURVE",
"275 297 OFFCURVE",
"271 306 CURVE",
"497 306 LINE",
"497 367 LINE",
"245 367 LINE",
"230 397 OFFCURVE",
"186 496 OFFCURVE",
"186 578 CURVE SMOOTH",
"186 694 OFFCURVE",
"249 774 OFFCURVE",
"371 774 CURVE SMOOTH",
"518 774 OFFCURVE",
"557 649 OFFCURVE",
"557 649 CURVE",
"625 681 LINE",
"625 681 OFFCURVE",
"565 841 OFFCURVE",
"371 841 CURVE SMOOTH",
"186 841 OFFCURVE",
"110 714 OFFCURVE",
"110 578 CURVE SMOOTH",
"110 503 OFFCURVE",
"153 396 OFFCURVE",
"167 367 CURVE",
"60 367 LINE"
);
}
);
width = 724;
}
);
rightKerningGroup = d;
unicode = 00A3;
},
{
glyphname = yen;
lastChange = "2018-06-10 11:52:29 +0000";
layers = (
{
components = (
{
name = Y;
transform = "{1, 0, 0, 1, 10, 0}";
}
);
layerId = "A4E552E4-62BE-43BB-A58F-34F0EE3B77B8";
paths = (
{
closed = 1;
nodes = (
"67 302 LINE",
"680 302 LINE",
"680 435 LINE",
"67 435 LINE"
);
},
{
closed = 1;
nodes = (
"67 110 LINE",
"680 110 LINE",
"680 243 LINE",
"67 243 LINE"
);
}
);
width = 761;
},
{
components = (
{
name = Y;
transform = "{1, 0, 0, 1, 10, 0}";
}
);
layerId = "7B60DD57-6012-4D0F-BD38-A72A4BAC0E9D";
paths = (
{
closed = 1;
nodes = (
"31 312 LINE",
"573 312 LINE",
"573 375 LINE",
"31 375 LINE"
);
},
{
closed = 1;
nodes = (
"31 170 LINE",
"573 170 LINE",
"573 233 LINE",
"31 233 LINE"
);
}
);
width = 621;
}
);
rightKerningGroup = d;
unicode = 00A5;
},
{
glyphname = plus;
lastChange = "2018-06-10 11:52:29 +0000";
layers = (
{
layerId = "A4E552E4-62BE-43BB-A58F-34F0EE3B77B8";
paths = (
{
closed = 1;
nodes = (
"578 338 LINE",
"578 491 LINE",
"398 491 LINE",
"398 671 LINE",
"245 671 LINE",
"245 491 LINE",
"65 491 LINE",
"65 338 LINE",
"245 338 LINE",
"245 158 LINE",
"398 158 LINE",
"398 338 LINE"
);
}
);
width = 658;
},
{
layerId = "7B60DD57-6012-4D0F-BD38-A72A4BAC0E9D";
paths = (
{
closed = 1;
nodes = (
"578 388 LINE",
"578 441 LINE",
"348 441 LINE",
"348 671 LINE",
"295 671 LINE",
"295 441 LINE",
"65 441 LINE",
"65 388 LINE",
"295 388 LINE",
"295 158 LINE",
"348 158 LINE",
"348 388 LINE"
);
}
);
width = 658;
}
);
rightKerningGroup = d;
unicode = 002B;
},
{
glyphname = minus;
lastChange = "2018-06-10 11:52:29 +0000";
layers = (
{
layerId = "A4E552E4-62BE-43BB-A58F-34F0EE3B77B8";
paths = (
{
closed = 1;
nodes = (
"578 338 LINE",
"578 491 LINE",
"65 491 LINE",
"65 338 LINE"
);
}
);
width = 658;
},
{
layerId = "7B60DD57-6012-4D0F-BD38-A72A4BAC0E9D";
paths = (
{
closed = 1;
nodes = (
"528 386 LINE",
"528 439 LINE",
"65 439 LINE",
"65 386 LINE"
);
}
);
width = 608;
}
);
rightKerningGroup = d;
unicode = 2212;
},
{
glyphname = multiply;
lastChange = "2018-06-10 11:52:29 +0000";
layers = (
{
layerId = "A4E552E4-62BE-43BB-A58F-34F0EE3B77B8";
paths = (
{
closed = 1;
nodes = (
"582 567 LINE",
"474 675 LINE",
"321 523 LINE",
"169 675 LINE",
"61 568 LINE",
"213 415 LINE",
"61 263 LINE",
"169 154 LINE",
"322 307 LINE",
"475 154 LINE",
"582 262 LINE",
"429 414 LINE"
);
}
);
width = 658;
},
{
layerId = "7B60DD57-6012-4D0F-BD38-A72A4BAC0E9D";
paths = (
{
closed = 1;
nodes = (
"518 605 LINE",
"480 643 LINE",
"290 452 LINE",
"99 643 LINE",
"61 605 LINE",
"252 415 LINE",
"61 224 LINE",
"99 186 LINE",
"290 377 LINE",
"480 186 LINE",
"518 224 LINE",
"327 415 LINE"
);
}
);
width = 594;
}
);
rightKerningGroup = d;
unicode = 00D7;
},
{
glyphname = divide;
lastChange = "2018-06-10 11:52:29 +0000";
layers = (
{
layerId = "A4E552E4-62BE-43BB-A58F-34F0EE3B77B8";
paths = (
{
closed = 1;
nodes = (
"276 720 OFFCURVE",
"240 684 OFFCURVE",
"240 638 CURVE SMOOTH",
"240 594 OFFCURVE",
"276 558 OFFCURVE",
"320 558 CURVE SMOOTH",
"366 558 OFFCURVE",
"402 594 OFFCURVE",
"402 638 CURVE SMOOTH",
"402 684 OFFCURVE",
"366 720 OFFCURVE",
"320 720 CURVE SMOOTH"
);
},
{
closed = 1;
nodes = (
"578 338 LINE",
"578 491 LINE",
"65 491 LINE",
"65 338 LINE"
);
},
{
closed = 1;
nodes = (
"276 271 OFFCURVE",
"240 235 OFFCURVE",
"240 189 CURVE SMOOTH",
"240 145 OFFCURVE",
"276 109 OFFCURVE",
"320 109 CURVE SMOOTH",
"366 109 OFFCURVE",
"402 145 OFFCURVE",
"402 189 CURVE SMOOTH",
"402 235 OFFCURVE",
"366 271 OFFCURVE",
"320 271 CURVE SMOOTH"
);
}
);
width = 658;
},
{
layerId = "7B60DD57-6012-4D0F-BD38-A72A4BAC0E9D";
paths = (
{
closed = 1;
nodes = (
"267 662 OFFCURVE",
"244 639 OFFCURVE",
"244 609 CURVE SMOOTH",
"244 581 OFFCURVE",
"267 558 OFFCURVE",
"295 558 CURVE SMOOTH",
"325 558 OFFCURVE",
"348 581 OFFCURVE",
"348 609 CURVE SMOOTH",
"348 639 OFFCURVE",
"325 662 OFFCURVE",
"295 662 CURVE SMOOTH"
);
},
{
closed = 1;
nodes = (
"528 386 LINE",
"528 439 LINE",
"65 439 LINE",
"65 386 LINE"
);
},
{
closed = 1;
nodes = (
"267 271 OFFCURVE",
"244 248 OFFCURVE",
"244 218 CURVE SMOOTH",
"244 190 OFFCURVE",
"267 167 OFFCURVE",
"295 167 CURVE SMOOTH",
"325 167 OFFCURVE",
"348 190 OFFCURVE",
"348 218 CURVE SMOOTH",
"348 248 OFFCURVE",
"325 271 OFFCURVE",
"295 271 CURVE SMOOTH"
);
}
);
width = 608;
}
);
rightKerningGroup = d;
unicode = 00F7;
},
{
glyphname = equal;
lastChange = "2018-06-10 11:52:29 +0000";
layers = (
{
layerId = "A4E552E4-62BE-43BB-A58F-34F0EE3B77B8";
paths = (
{
closed = 1;
nodes = (
"578 458 LINE",
"578 611 LINE",
"65 611 LINE",
"65 458 LINE"
);
},
{
closed = 1;
nodes = (
"578 218 LINE",
"578 371 LINE",
"65 371 LINE",
"65 218 LINE"
);
}
);
width = 658;
},
{
layerId = "7B60DD57-6012-4D0F-BD38-A72A4BAC0E9D";
paths = (
{
closed = 1;
nodes = (
"528 490 LINE",
"528 543 LINE",
"65 543 LINE",
"65 490 LINE"
);
},
{
closed = 1;
nodes = (
"528 288 LINE",
"528 341 LINE",
"65 341 LINE",
"65 288 LINE"
);
}
);
width = 608;
}
);
rightKerningGroup = d;
unicode = 003D;
},
{
glyphname = notequal;
lastChange = "2018-06-10 11:52:29 +0000";
layers = (
{
components = (
{
name = equal;
transform = "{1, 0, 0, 1, 10, 0}";
}
);
layerId = "A4E552E4-62BE-43BB-A58F-34F0EE3B77B8";
paths = (
{
closed = 1;
nodes = (
"556 755 LINE",
"438 755 LINE",
"40 70 LINE",
"158 70 LINE"
);
}
);
width = 658;
},
{
components = (
{
name = equal;
transform = "{1, 0, 0, 1, 10, 0}";
}
);
layerId = "7B60DD57-6012-4D0F-BD38-A72A4BAC0E9D";
paths = (
{
closed = 1;
nodes = (
"516 725 LINE",
"458 725 LINE",
"80 100 LINE",
"138 100 LINE"
);
}
);
width = 658;
}
);
rightKerningGroup = d;
unicode = 2260;
},
{
glyphname = greater;
lastChange = "2018-06-10 11:52:29 +0000";
layers = (
{
layerId = "A4E552E4-62BE-43BB-A58F-34F0EE3B77B8";
paths = (
{
closed = 1;
nodes = (
"607 357 LINE",
"607 475 LINE",
"60 697 LINE",
"60 555 LINE",
"418 415 LINE",
"60 277 LINE",
"60 135 LINE"
);
}
);
width = 687;
},
{
layerId = "7B60DD57-6012-4D0F-BD38-A72A4BAC0E9D";
paths = (
{
closed = 1;
nodes = (
"567 377 LINE",
"567 455 LINE",
"60 687 LINE",
"60 630 LINE",
"528 415 LINE",
"60 202 LINE",
"60 145 LINE"
);
}
);
width = 647;
}
);
rightKerningGroup = d;
unicode = 003E;
},
{
glyphname = plusminus;
lastChange = "2018-06-10 11:52:29 +0000";
layers = (
{
layerId = "A4E552E4-62BE-43BB-A58F-34F0EE3B77B8";
paths = (
{
closed = 1;
nodes = (
"578 363 LINE",
"578 516 LINE",
"398 516 LINE",
"398 671 LINE",
"245 671 LINE",
"245 516 LINE",
"65 516 LINE",
"65 363 LINE",
"245 363 LINE",
"245 208 LINE",
"398 208 LINE",
"398 363 LINE"
);
},
{
closed = 1;
nodes = (
"578 0 LINE",
"578 153 LINE",
"65 153 LINE",
"65 0 LINE"
);
}
);
width = 658;
},
{
layerId = "7B60DD57-6012-4D0F-BD38-A72A4BAC0E9D";
paths = (
{
closed = 1;
nodes = (
"578 413 LINE",
"578 466 LINE",
"348 466 LINE",
"348 671 LINE",
"295 671 LINE",
"295 466 LINE",
"65 466 LINE",
"65 413 LINE",
"295 413 LINE",
"295 208 LINE",
"348 208 LINE",
"348 413 LINE"
);
},
{
closed = 1;
nodes = (
"578 50 LINE",
"578 103 LINE",
"65 103 LINE",
"65 50 LINE"
);
}
);
width = 658;
}
);
rightKerningGroup = d;
unicode = 00B1;
},
{
glyphname = asciitilde;
lastChange = "2018-06-10 11:52:29 +0000";
layers = (
{
layerId = "A4E552E4-62BE-43BB-A58F-34F0EE3B77B8";
paths = (
{
closed = 1;
nodes = (
"546 521 LINE",
"546 521 OFFCURVE",
"520 443 OFFCURVE",
"462 443 CURVE SMOOTH",
"409 443 OFFCURVE",
"342 528 OFFCURVE",
"242 528 CURVE SMOOTH",
"130 528 OFFCURVE",
"65 391 OFFCURVE",
"65 391 CURVE",
"158 310 LINE",
"158 310 OFFCURVE",
"184 388 OFFCURVE",
"242 388 CURVE SMOOTH",
"296 388 OFFCURVE",
"365 303 OFFCURVE",
"462 303 CURVE SMOOTH",
"574 303 OFFCURVE",
"639 440 OFFCURVE",
"639 440 CURVE"
);
}
);
width = 719;
},
{
layerId = "7B60DD57-6012-4D0F-BD38-A72A4BAC0E9D";
paths = (
{
closed = 1;
nodes = (
"587 486 LINE",
"587 486 OFFCURVE",
"549 383 OFFCURVE",
"471 383 CURVE SMOOTH",
"398 383 OFFCURVE",
"335 508 OFFCURVE",
"235 508 CURVE SMOOTH",
"123 508 OFFCURVE",
"65 391 OFFCURVE",
"65 391 CURVE",
"120 344 LINE",
"120 344 OFFCURVE",
"157 448 OFFCURVE",
"235 448 CURVE SMOOTH",
"309 448 OFFCURVE",
"372 323 OFFCURVE",
"469 323 CURVE SMOOTH",
"581 323 OFFCURVE",
"639 440 OFFCURVE",
"639 440 CURVE"
);
}
);
width = 719;
}
);
rightKerningGroup = d;
unicode = 007E;
},
{
glyphname = asciicircum;
lastChange = "2018-06-10 11:52:29 +0000";
layers = (
{
layerId = "A4E552E4-62BE-43BB-A58F-34F0EE3B77B8";
paths = (
{
closed = 1;
nodes = (
"299 840 LINE",
"207 840 LINE",
"0 605 LINE",
"161 605 LINE",
"253 714 LINE",
"345 605 LINE",
"506 605 LINE"
);
}
);
width = 521;
},
{
layerId = "7B60DD57-6012-4D0F-BD38-A72A4BAC0E9D";
paths = (
{
closed = 1;
nodes = (
"279 840 LINE",
"227 840 LINE",
"30 605 LINE",
"101 605 LINE",
"253 794 LINE",
"405 605 LINE",
"476 605 LINE"
);
}
);
width = 521;
}
);
rightKerningGroup = d;
unicode = 005E;
},
{
glyphname = percent;
lastChange = "2018-06-10 11:52:29 +0000";
layers = (
{
layerId = "A4E552E4-62BE-43BB-A58F-34F0EE3B77B8";
paths = (
{
closed = 1;
nodes = (
"198 0 LINE",
"316 0 LINE",
"796 825 LINE",
"678 825 LINE"
);
},
{
closed = 1;
nodes = (
"28 529 OFFCURVE",
"116 446 OFFCURVE",
"251 446 CURVE SMOOTH",
"379 446 OFFCURVE",
"470 529 OFFCURVE",
"470 643 CURVE SMOOTH",
"470 759 OFFCURVE",
"373 840 OFFCURVE",
"251 840 CURVE SMOOTH",
"125 840 OFFCURVE",
"28 759 OFFCURVE",
"28 643 CURVE SMOOTH"
);
},
{
closed = 1;
nodes = (
"157 697 OFFCURVE",
"198 736 OFFCURVE",
"249 736 CURVE SMOOTH",
"299 736 OFFCURVE",
"339 697 OFFCURVE",
"339 643 CURVE SMOOTH",
"339 589 OFFCURVE",
"300 552 OFFCURVE",
"249 552 CURVE SMOOTH",
"195 552 OFFCURVE",
"157 589 OFFCURVE",
"157 643 CURVE SMOOTH"
);
},
{
closed = 1;
nodes = (
"521 66 OFFCURVE",
"618 -15 OFFCURVE",
"744 -15 CURVE SMOOTH",
"866 -15 OFFCURVE",
"963 66 OFFCURVE",
"963 182 CURVE SMOOTH",
"963 296 OFFCURVE",
"872 379 OFFCURVE",
"744 379 CURVE SMOOTH",
"609 379 OFFCURVE",
"521 296 OFFCURVE",
"521 182 CURVE SMOOTH"
);
},
{
closed = 1;
nodes = (
"650 236 OFFCURVE",
"688 273 OFFCURVE",
"742 273 CURVE SMOOTH",
"793 273 OFFCURVE",
"832 236 OFFCURVE",
"832 182 CURVE SMOOTH",
"832 128 OFFCURVE",
"792 89 OFFCURVE",
"742 89 CURVE SMOOTH",
"691 89 OFFCURVE",
"650 128 OFFCURVE",
"650 182 CURVE SMOOTH"
);
}
);
width = 1006;
},
{
layerId = "7B60DD57-6012-4D0F-BD38-A72A4BAC0E9D";
paths = (
{
closed = 1;
nodes = (
"146 0 LINE",
"204 0 LINE",
"684 825 LINE",
"626 825 LINE"
);
},
{
closed = 1;
nodes = (
"28 556 OFFCURVE",
"95 492 OFFCURVE",
"199 492 CURVE SMOOTH",
"297 492 OFFCURVE",
"366 556 OFFCURVE",
"366 643 CURVE SMOOTH",
"366 732 OFFCURVE",
"292 794 OFFCURVE",
"199 794 CURVE SMOOTH",
"102 794 OFFCURVE",
"28 732 OFFCURVE",
"28 643 CURVE SMOOTH"
);
},
{
closed = 1;
nodes = (
"82 706 OFFCURVE",
"134 749 OFFCURVE",
"198 749 CURVE SMOOTH",
"259 749 OFFCURVE",
"310 706 OFFCURVE",
"310 643 CURVE SMOOTH",
"310 578 OFFCURVE",
"261 538 OFFCURVE",
"198 538 CURVE SMOOTH",
"131 538 OFFCURVE",
"82 578 OFFCURVE",
"82 643 CURVE SMOOTH"
);
},
{
closed = 1;
nodes = (
"461 94 OFFCURVE",
"528 30 OFFCURVE",
"632 30 CURVE SMOOTH",
"730 30 OFFCURVE",
"799 94 OFFCURVE",
"799 181 CURVE SMOOTH",
"799 270 OFFCURVE",
"725 332 OFFCURVE",
"632 332 CURVE SMOOTH",
"535 332 OFFCURVE",
"461 270 OFFCURVE",
"461 181 CURVE SMOOTH"
);
},
{
closed = 1;
nodes = (
"515 244 OFFCURVE",
"567 287 OFFCURVE",
"631 287 CURVE SMOOTH",
"692 287 OFFCURVE",
"743 244 OFFCURVE",
"743 181 CURVE SMOOTH",
"743 116 OFFCURVE",
"694 76 OFFCURVE",
"631 76 CURVE SMOOTH",
"564 76 OFFCURVE",
"515 116 OFFCURVE",
"515 181 CURVE SMOOTH"
);
}
);
width = 842;
}
);
rightKerningGroup = d;
unicode = 0025;
},
{
glyphname = perthousand;
lastChange = "2018-06-10 11:52:29 +0000";
layers = (
{
layerId = "A4E552E4-62BE-43BB-A58F-34F0EE3B77B8";
paths = (
{
closed = 1;
nodes = (
"198 0 LINE",
"316 0 LINE",
"796 825 LINE",
"678 825 LINE"
);
},
{
closed = 1;
nodes = (
"28 529 OFFCURVE",
"116 446 OFFCURVE",
"251 446 CURVE SMOOTH",
"379 446 OFFCURVE",
"470 529 OFFCURVE",
"470 643 CURVE SMOOTH",
"470 759 OFFCURVE",
"373 840 OFFCURVE",
"251 840 CURVE SMOOTH",
"125 840 OFFCURVE",
"28 759 OFFCURVE",
"28 643 CURVE SMOOTH"
);
},
{
closed = 1;
nodes = (
"157 697 OFFCURVE",
"198 736 OFFCURVE",
"249 736 CURVE SMOOTH",
"299 736 OFFCURVE",
"339 697 OFFCURVE",
"339 643 CURVE SMOOTH",
"339 589 OFFCURVE",
"300 552 OFFCURVE",
"249 552 CURVE SMOOTH",
"195 552 OFFCURVE",
"157 589 OFFCURVE",
"157 643 CURVE SMOOTH"
);
},
{
closed = 1;
nodes = (
"521 66 OFFCURVE",
"618 -15 OFFCURVE",
"744 -15 CURVE SMOOTH",
"866 -15 OFFCURVE",
"963 66 OFFCURVE",
"963 182 CURVE SMOOTH",
"963 296 OFFCURVE",
"872 379 OFFCURVE",
"744 379 CURVE SMOOTH",
"609 379 OFFCURVE",
"521 296 OFFCURVE",
"521 182 CURVE SMOOTH"
);
},
{
closed = 1;
nodes = (
"650 236 OFFCURVE",
"688 273 OFFCURVE",
"742 273 CURVE SMOOTH",
"793 273 OFFCURVE",
"832 236 OFFCURVE",
"832 182 CURVE SMOOTH",
"832 128 OFFCURVE",
"792 89 OFFCURVE",
"742 89 CURVE SMOOTH",
"691 89 OFFCURVE",
"650 128 OFFCURVE",
"650 182 CURVE SMOOTH"
);
},
{
closed = 1;
nodes = (
"1009 66 OFFCURVE",
"1106 -15 OFFCURVE",
"1232 -15 CURVE SMOOTH",
"1354 -15 OFFCURVE",
"1451 66 OFFCURVE",
"1451 182 CURVE SMOOTH",
"1451 296 OFFCURVE",
"1360 379 OFFCURVE",
"1232 379 CURVE SMOOTH",
"1097 379 OFFCURVE",
"1009 296 OFFCURVE",
"1009 182 CURVE SMOOTH"
);
},
{
closed = 1;
nodes = (
"1138 236 OFFCURVE",
"1176 273 OFFCURVE",
"1230 273 CURVE SMOOTH",
"1281 273 OFFCURVE",
"1320 236 OFFCURVE",
"1320 182 CURVE SMOOTH",
"1320 128 OFFCURVE",
"1280 89 OFFCURVE",
"1230 89 CURVE SMOOTH",
"1179 89 OFFCURVE",
"1138 128 OFFCURVE",
"1138 182 CURVE SMOOTH"
);
}
);
width = 1494;
},
{
layerId = "7B60DD57-6012-4D0F-BD38-A72A4BAC0E9D";
paths = (
{
closed = 1;
nodes = (
"146 0 LINE",
"204 0 LINE",
"684 825 LINE",
"626 825 LINE"
);
},
{
closed = 1;
nodes = (
"28 556 OFFCURVE",
"95 492 OFFCURVE",
"199 492 CURVE SMOOTH",
"297 492 OFFCURVE",
"366 556 OFFCURVE",
"366 643 CURVE SMOOTH",
"366 732 OFFCURVE",
"292 794 OFFCURVE",
"199 794 CURVE SMOOTH",
"102 794 OFFCURVE",
"28 732 OFFCURVE",
"28 643 CURVE SMOOTH"
);
},
{
closed = 1;
nodes = (
"82 706 OFFCURVE",
"134 749 OFFCURVE",
"198 749 CURVE SMOOTH",
"259 749 OFFCURVE",
"310 706 OFFCURVE",
"310 643 CURVE SMOOTH",
"310 578 OFFCURVE",
"261 538 OFFCURVE",
"198 538 CURVE SMOOTH",
"131 538 OFFCURVE",
"82 578 OFFCURVE",
"82 643 CURVE SMOOTH"
);
},
{
closed = 1;
nodes = (
"461 94 OFFCURVE",
"528 30 OFFCURVE",
"632 30 CURVE SMOOTH",
"730 30 OFFCURVE",
"799 94 OFFCURVE",
"799 181 CURVE SMOOTH",
"799 270 OFFCURVE",
"725 332 OFFCURVE",
"632 332 CURVE SMOOTH",
"535 332 OFFCURVE",
"461 270 OFFCURVE",
"461 181 CURVE SMOOTH"
);
},
{
closed = 1;
nodes = (
"515 244 OFFCURVE",
"567 287 OFFCURVE",
"631 287 CURVE SMOOTH",
"692 287 OFFCURVE",
"743 244 OFFCURVE",
"743 181 CURVE SMOOTH",
"743 116 OFFCURVE",
"694 76 OFFCURVE",
"631 76 CURVE SMOOTH",
"564 76 OFFCURVE",
"515 116 OFFCURVE",
"515 181 CURVE SMOOTH"
);
},
{
closed = 1;
nodes = (
"857 94 OFFCURVE",
"924 30 OFFCURVE",
"1028 30 CURVE SMOOTH",
"1126 30 OFFCURVE",
"1195 94 OFFCURVE",
"1195 181 CURVE SMOOTH",
"1195 270 OFFCURVE",
"1121 332 OFFCURVE",
"1028 332 CURVE SMOOTH",
"931 332 OFFCURVE",
"857 270 OFFCURVE",
"857 181 CURVE SMOOTH"
);
},
{
closed = 1;
nodes = (
"911 244 OFFCURVE",
"963 287 OFFCURVE",
"1027 287 CURVE SMOOTH",
"1088 287 OFFCURVE",
"1139 244 OFFCURVE",
"1139 181 CURVE SMOOTH",
"1139 116 OFFCURVE",
"1090 76 OFFCURVE",
"1027 76 CURVE SMOOTH",
"960 76 OFFCURVE",
"911 116 OFFCURVE",
"911 181 CURVE SMOOTH"
);
}
);
width = 1238;
}
);
rightKerningGroup = d;
unicode = 2030;
},
{
glyphname = at;
lastChange = "2018-06-10 11:52:29 +0000";
layers = (
{
layerId = "A4E552E4-62BE-43BB-A58F-34F0EE3B77B8";
paths = (
{
closed = 1;
nodes = (
"675 344 OFFCURVE",
"672 386 OFFCURVE",
"672 386 CURVE",
"672 595 LINE",
"553 595 LINE",
"553 558 LINE",
"522 588 OFFCURVE",
"479 606 OFFCURVE",
"427 606 CURVE SMOOTH",
"317 606 OFFCURVE",
"238 516 OFFCURVE",
"238 403 CURVE SMOOTH",
"238 291 OFFCURVE",
"317 202 OFFCURVE",
"427 202 CURVE SMOOTH",
"480 202 OFFCURVE",
"525 225 OFFCURVE",
"553 256 CURVE",
"562 269 LINE",
"595 241 OFFCURVE",
"647 223 OFFCURVE",
"701 223 CURVE SMOOTH",
"799 223 OFFCURVE",
"904 286 OFFCURVE",
"904 442 CURVE SMOOTH",
"904 678 OFFCURVE",
"712 840 OFFCURVE",
"478 840 CURVE SMOOTH",
"234 840 OFFCURVE",
"28 667 OFFCURVE",
"28 413 CURVE SMOOTH",
"28 159 OFFCURVE",
"234 -15 OFFCURVE",
"478 -15 CURVE SMOOTH",
"694 -15 OFFCURVE",
"781 118 OFFCURVE",
"781 118 CURVE",
"665 195 LINE",
"665 195 OFFCURVE",
"610 127 OFFCURVE",
"478 127 CURVE SMOOTH",
"311 127 OFFCURVE",
"174 250 OFFCURVE",
"174 413 CURVE SMOOTH",
"174 576 OFFCURVE",
"308 709 OFFCURVE",
"478 709 CURVE SMOOTH",
"652 709 OFFCURVE",
"785 599 OFFCURVE",
"785 442 CURVE SMOOTH",
"785 368 OFFCURVE",
"766 344 OFFCURVE",
"723 344 CURVE SMOOTH"
);
},
{
closed = 1;
nodes = (
"393 452 OFFCURVE",
"429 487 OFFCURVE",
"474 487 CURVE SMOOTH",
"517 487 OFFCURVE",
"553 452 OFFCURVE",
"553 405 CURVE SMOOTH",
"553 359 OFFCURVE",
"519 325 OFFCURVE",
"474 325 CURVE SMOOTH",
"426 325 OFFCURVE",
"393 359 OFFCURVE",
"393 405 CURVE SMOOTH"
);
}
);
width = 946;
},
{
layerId = "7B60DD57-6012-4D0F-BD38-A72A4BAC0E9D";
paths = (
{
closed = 1;
nodes = (
"660 269 OFFCURVE",
"662 336 OFFCURVE",
"662 336 CURVE",
"662 595 LINE",
"603 595 LINE",
"603 538 LINE",
"594 557 OFFCURVE",
"539 606 OFFCURVE",
"447 606 CURVE SMOOTH",
"318 606 OFFCURVE",
"238 516 OFFCURVE",
"238 403 CURVE SMOOTH",
"238 291 OFFCURVE",
"318 202 OFFCURVE",
"447 202 CURVE SMOOTH",
"550 202 OFFCURVE",
"601 271 OFFCURVE",
"607 287 CURVE",
"610 294 LINE",
"622 258 OFFCURVE",
"655 218 OFFCURVE",
"719 218 CURVE SMOOTH",
"807 218 OFFCURVE",
"904 296 OFFCURVE",
"904 442 CURVE SMOOTH",
"904 678 OFFCURVE",
"712 840 OFFCURVE",
"478 840 CURVE SMOOTH",
"234 840 OFFCURVE",
"28 667 OFFCURVE",
"28 413 CURVE SMOOTH",
"28 159 OFFCURVE",
"234 -15 OFFCURVE",
"478 -15 CURVE SMOOTH",
"690 -15 OFFCURVE",
"781 118 OFFCURVE",
"781 118 CURVE",
"727 155 LINE",
"727 155 OFFCURVE",
"656 47 OFFCURVE",
"478 47 CURVE SMOOTH",
"278 47 OFFCURVE",
"94 200 OFFCURVE",
"94 413 CURVE SMOOTH",
"94 626 OFFCURVE",
"274 780 OFFCURVE",
"478 780 CURVE SMOOTH",
"686 780 OFFCURVE",
"838 634 OFFCURVE",
"838 442 CURVE SMOOTH",
"838 318 OFFCURVE",
"766 269 OFFCURVE",
"723 269 CURVE SMOOTH"
);
},
{
closed = 1;
nodes = (
"297 492 OFFCURVE",
"363 557 OFFCURVE",
"452 557 CURVE SMOOTH",
"536 557 OFFCURVE",
"604 496 OFFCURVE",
"604 410 CURVE SMOOTH",
"604 325 OFFCURVE",
"539 253 OFFCURVE",
"452 253 CURVE SMOOTH",
"358 253 OFFCURVE",
"297 321 OFFCURVE",
"297 406 CURVE SMOOTH"
);
}
);
width = 946;
}
);
rightKerningGroup = d;
unicode = 0040;
},
{
glyphname = ampersand;
lastChange = "2018-06-10 11:52:29 +0000";
layers = (
{
layerId = "A4E552E4-62BE-43BB-A58F-34F0EE3B77B8";
paths = (
{
closed = 1;
nodes = (
"34 34 OFFCURVE",
"199 -15 OFFCURVE",
"321 -15 CURVE SMOOTH",
"448 -15 OFFCURVE",
"514 34 OFFCURVE",
"586 85 CURVE",
"668 0 LINE",
"905 0 LINE",
"727 185 LINE",
"788 234 OFFCURVE",
"844 298 OFFCURVE",
"844 298 CURVE",
"728 412 LINE",
"643 324 OFFCURVE",
"607 308 OFFCURVE",
"607 308 CURVE",
"497 422 LINE",
"497 422 OFFCURVE",
"660 501 OFFCURVE",
"660 625 CURVE SMOOTH",
"660 728 OFFCURVE",
"580 840 OFFCURVE",
"415 840 CURVE SMOOTH",
"244 840 OFFCURVE",
"152 753 OFFCURVE",
"152 625 CURVE SMOOTH",
"152 560 OFFCURVE",
"187 502 OFFCURVE",
"235 442 CURVE",
"138 391 OFFCURVE",
"34 320 OFFCURVE",
"34 217 CURVE SMOOTH"
);
},
{
closed = 1;
nodes = (
"464 210 LINE",
"464 210 OFFCURVE",
"408 163 OFFCURVE",
"340 163 CURVE SMOOTH",
"296 163 OFFCURVE",
"247 184 OFFCURVE",
"247 232 CURVE SMOOTH",
"247 308 OFFCURVE",
"333 339 OFFCURVE",
"333 339 CURVE"
);
},
{
closed = 1;
nodes = (
"476 707 OFFCURVE",
"495 669 OFFCURVE",
"495 625 CURVE SMOOTH",
"495 581 OFFCURVE",
"445 547 OFFCURVE",
"403 524 CURVE",
"403 524 OFFCURVE",
"343 577 OFFCURVE",
"343 625 CURVE SMOOTH",
"343 669 OFFCURVE",
"364 707 OFFCURVE",
"415 707 CURVE SMOOTH"
);
}
);
width = 895;
},
{
layerId = "7B60DD57-6012-4D0F-BD38-A72A4BAC0E9D";
paths = (
{
closed = 1;
nodes = (
"34 66 OFFCURVE",
"137 -15 OFFCURVE",
"274 -15 CURVE SMOOTH",
"404 -15 OFFCURVE",
"508 59 OFFCURVE",
"576 126 CURVE",
"697 0 LINE",
"789 0 LINE",
"621 174 LINE",
"675 226 OFFCURVE",
"731 294 OFFCURVE",
"731 294 CURVE",
"688 334 LINE",
"637 267 OFFCURVE",
"582 216 OFFCURVE",
"582 216 CURVE",
"385 433 LINE",
"385 433 OFFCURVE",
"577 505 OFFCURVE",
"577 662 CURVE SMOOTH",
"577 760 OFFCURVE",
"501 840 OFFCURVE",
"378 840 CURVE SMOOTH",
"259 840 OFFCURVE",
"170 766 OFFCURVE",
"170 662 CURVE SMOOTH",
"170 557 OFFCURVE",
"262 474 OFFCURVE",
"280 452 CURVE",
"239 435 OFFCURVE",
"34 353 OFFCURVE",
"34 190 CURVE SMOOTH"
);
},
{
closed = 1;
nodes = (
"538 171 LINE",
"538 171 OFFCURVE",
"426 43 OFFCURVE",
"276 43 CURVE SMOOTH",
"188 43 OFFCURVE",
"102 90 OFFCURVE",
"102 190 CURVE SMOOTH",
"102 341 OFFCURVE",
"321 406 OFFCURVE",
"321 406 CURVE"
);
},
{
closed = 1;
nodes = (
"458 782 OFFCURVE",
"511 730 OFFCURVE",
"511 662 CURVE SMOOTH",
"511 569 OFFCURVE",
"429 509 OFFCURVE",
"347 478 CURVE",
"347 478 OFFCURVE",
"236 576 OFFCURVE",
"236 662 CURVE SMOOTH",
"236 721 OFFCURVE",
"286 782 OFFCURVE",
"375 782 CURVE SMOOTH"
);
}
);
width = 789;
}
);
rightKerningGroup = d;
unicode = 0026;
},
{
glyphname = paragraph;
lastChange = "2018-06-10 11:52:29 +0000";
layers = (
{
layerId = "A4E552E4-62BE-43BB-A58F-34F0EE3B77B8";
paths = (
{
closed = 1;
nodes = (
"653 825 LINE",
"290 825 LINE SMOOTH",
"129 825 OFFCURVE",
"28 712 OFFCURVE",
"28 571 CURVE SMOOTH",
"28 431 OFFCURVE",
"129 306 OFFCURVE",
"290 306 CURVE SMOOTH",
"386 306 LINE",
"386 0 LINE",
"489 0 LINE",
"489 721 LINE",
"550 721 LINE",
"550 0 LINE",
"653 0 LINE"
);
}
);
width = 733;
},
{
layerId = "7B60DD57-6012-4D0F-BD38-A72A4BAC0E9D";
paths = (
{
closed = 1;
nodes = (
"488 825 LINE",
"270 825 LINE SMOOTH",
"99 825 OFFCURVE",
"28 712 OFFCURVE",
"28 611 CURVE SMOOTH",
"28 511 OFFCURVE",
"99 386 OFFCURVE",
"270 386 CURVE SMOOTH",
"316 386 LINE",
"316 0 LINE",
"364 0 LINE",
"364 771 LINE",
"440 771 LINE",
"440 0 LINE",
"488 0 LINE"
);
}
);
width = 568;
}
);
rightKerningGroup = d;
unicode = 00B6;
},
{
glyphname = section;
lastChange = "2018-06-10 11:52:29 +0000";
layers = (
{
layerId = "A4E552E4-62BE-43BB-A58F-34F0EE3B77B8";
paths = (
{
closed = 1;
nodes = (
"503 -275 OFFCURVE",
"572 -152 OFFCURVE",
"572 -66 CURVE SMOOTH",
"572 15 OFFCURVE",
"541 77 OFFCURVE",
"476 115 CURVE",
"559 152 OFFCURVE",
"617 214 OFFCURVE",
"617 289 CURVE SMOOTH",
"617 403 OFFCURVE",
"541 470 OFFCURVE",
"420 527 CURVE SMOOTH",
"333 567 OFFCURVE",
"268 597 OFFCURVE",
"268 637 CURVE SMOOTH",
"268 668 OFFCURVE",
"289 692 OFFCURVE",
"331 692 CURVE SMOOTH",
"407 692 OFFCURVE",
"412 627 OFFCURVE",
"412 627 CURVE",
"572 661 LINE",
"572 661 OFFCURVE",
"544 840 OFFCURVE",
"331 840 CURVE SMOOTH",
"161 840 OFFCURVE",
"73 739 OFFCURVE",
"73 631 CURVE SMOOTH",
"73 549 OFFCURVE",
"119 493 OFFCURVE",
"179 450 CURVE",
"113 432 OFFCURVE",
"28 371 OFFCURVE",
"28 276 CURVE SMOOTH",
"28 162 OFFCURVE",
"104 95 OFFCURVE",
"225 38 CURVE SMOOTH",
"312 -2 OFFCURVE",
"375 -31 OFFCURVE",
"375 -72 CURVE SMOOTH",
"375 -101 OFFCURVE",
"354 -127 OFFCURVE",
"293 -127 CURVE SMOOTH",
"211 -127 OFFCURVE",
"188 -50 OFFCURVE",
"188 -50 CURVE",
"28 -84 LINE",
"28 -84 OFFCURVE",
"60 -275 OFFCURVE",
"293 -275 CURVE SMOOTH"
);
},
{
closed = 1;
nodes = (
"284 387 OFFCURVE",
"321 370 OFFCURVE",
"321 370 CURVE SMOOTH",
"381 342 OFFCURVE",
"453 309 OFFCURVE",
"453 260 CURVE SMOOTH",
"453 211 OFFCURVE",
"407 187 OFFCURVE",
"364 176 CURVE",
"340 188 OFFCURVE",
"327 194 OFFCURVE",
"324 195 CURVE SMOOTH",
"264 223 OFFCURVE",
"192 256 OFFCURVE",
"192 305 CURVE SMOOTH",
"192 353 OFFCURVE",
"238 377 OFFCURVE",
"280 389 CURVE"
);
}
);
width = 665;
},
{
layerId = "7B60DD57-6012-4D0F-BD38-A72A4BAC0E9D";
paths = (
{
closed = 1;
nodes = (
"499 -275 OFFCURVE",
"542 -152 OFFCURVE",
"542 -66 CURVE SMOOTH",
"542 15 OFFCURVE",
"512 62 OFFCURVE",
"447 100 CURVE",
"507 127 OFFCURVE",
"567 186 OFFCURVE",
"567 271 CURVE SMOOTH",
"567 384 OFFCURVE",
"469 419 OFFCURVE",
"348 476 CURVE SMOOTH",
"261 516 OFFCURVE",
"161 557 OFFCURVE",
"161 657 CURVE SMOOTH",
"161 736 OFFCURVE",
"234 792 OFFCURVE",
"334 792 CURVE SMOOTH",
"460 792 OFFCURVE",
"490 679 OFFCURVE",
"490 679 CURVE",
"543 691 LINE",
"543 691 OFFCURVE",
"514 840 OFFCURVE",
"331 840 CURVE SMOOTH",
"173 840 OFFCURVE",
"103 737 OFFCURVE",
"103 651 CURVE SMOOTH",
"103 557 OFFCURVE",
"164 515 OFFCURVE",
"224 472 CURVE",
"174 459 OFFCURVE",
"78 407 OFFCURVE",
"78 304 CURVE SMOOTH",
"78 199 OFFCURVE",
"183 157 OFFCURVE",
"304 100 CURVE SMOOTH",
"391 60 OFFCURVE",
"482 29 OFFCURVE",
"482 -72 CURVE SMOOTH",
"482 -149 OFFCURVE",
"453 -227 OFFCURVE",
"293 -227 CURVE SMOOTH",
"147 -227 OFFCURVE",
"120 -107 OFFCURVE",
"120 -107 CURVE",
"60 -120 LINE",
"60 -120 OFFCURVE",
"91 -275 OFFCURVE",
"293 -275 CURVE SMOOTH"
);
},
{
closed = 1;
nodes = (
"285 447 OFFCURVE",
"329 426 OFFCURVE",
"329 426 CURVE SMOOTH",
"414 387 OFFCURVE",
"506 351 OFFCURVE",
"506 273 CURVE SMOOTH",
"506 194 OFFCURVE",
"432 136 OFFCURVE",
"396 125 CURVE",
"361 139 OFFCURVE",
"328 155 OFFCURVE",
"324 157 CURVE SMOOTH",
"240 199 OFFCURVE",
"139 234 OFFCURVE",
"139 308 CURVE SMOOTH",
"139 393 OFFCURVE",
"221 433 OFFCURVE",
"280 450 CURVE"
);
}
);
width = 665;
}
);
rightKerningGroup = d;
unicode = 00A7;
},
{
glyphname = copyright;
lastChange = "2018-06-10 11:52:29 +0000";
layers = (
{
layerId = "A4E552E4-62BE-43BB-A58F-34F0EE3B77B8";
paths = (
{
closed = 1;
nodes = (
"28 177 OFFCURVE",
"220 -15 OFFCURVE",
"455 -15 CURVE SMOOTH",
"691 -15 OFFCURVE",
"883 177 OFFCURVE",
"883 412 CURVE SMOOTH",
"883 648 OFFCURVE",
"691 840 OFFCURVE",
"455 840 CURVE SMOOTH",
"220 840 OFFCURVE",
"28 648 OFFCURVE",
"28 412 CURVE SMOOTH"
);
},
{
closed = 1;
nodes = (
"142 585 OFFCURVE",
"283 726 OFFCURVE",
"455 726 CURVE SMOOTH",
"628 726 OFFCURVE",
"769 585 OFFCURVE",
"769 412 CURVE SMOOTH",
"769 240 OFFCURVE",
"628 99 OFFCURVE",
"455 99 CURVE SMOOTH",
"283 99 OFFCURVE",
"142 240 OFFCURVE",
"142 412 CURVE SMOOTH"
);
},
{
closed = 1;
nodes = (
"441 516 OFFCURVE",
"397 471 OFFCURVE",
"397 415 CURVE SMOOTH",
"397 357 OFFCURVE",
"441 313 OFFCURVE",
"495 313 CURVE SMOOTH",
"533 313 OFFCURVE",
"556 326 OFFCURVE",
"561 329 CURVE",
"605 239 LINE",
"605 239 OFFCURVE",
"551 206 OFFCURVE",
"474 206 CURVE SMOOTH",
"361 206 OFFCURVE",
"256 298 OFFCURVE",
"256 413 CURVE SMOOTH",
"256 530 OFFCURVE",
"361 624 OFFCURVE",
"474 624 CURVE SMOOTH",
"559 624 OFFCURVE",
"602 592 OFFCURVE",
"605 589 CURVE",
"562 500 LINE",
"562 500 OFFCURVE",
"528 516 OFFCURVE",
"495 516 CURVE SMOOTH"
);
}
);
width = 926;
},
{
layerId = "7B60DD57-6012-4D0F-BD38-A72A4BAC0E9D";
paths = (
{
closed = 1;
nodes = (
"28 177 OFFCURVE",
"220 -15 OFFCURVE",
"455 -15 CURVE SMOOTH",
"691 -15 OFFCURVE",
"883 177 OFFCURVE",
"883 412 CURVE SMOOTH",
"883 648 OFFCURVE",
"691 840 OFFCURVE",
"455 840 CURVE SMOOTH",
"220 840 OFFCURVE",
"28 648 OFFCURVE",
"28 412 CURVE SMOOTH"
);
},
{
closed = 1;
nodes = (
"89 614 OFFCURVE",
"254 779 OFFCURVE",
"455 779 CURVE SMOOTH",
"657 779 OFFCURVE",
"822 614 OFFCURVE",
"822 412 CURVE SMOOTH",
"822 211 OFFCURVE",
"657 46 OFFCURVE",
"455 46 CURVE SMOOTH",
"254 46 OFFCURVE",
"89 211 OFFCURVE",
"89 412 CURVE SMOOTH"
);
},
{
closed = 1;
nodes = (
"395 566 OFFCURVE",
"317 511 OFFCURVE",
"317 415 CURVE SMOOTH",
"317 317 OFFCURVE",
"395 263 OFFCURVE",
"475 263 CURVE SMOOTH",
"543 263 OFFCURVE",
"576 287 OFFCURVE",
"581 290 CURVE",
"605 239 LINE",
"605 239 OFFCURVE",
"551 206 OFFCURVE",
"474 206 CURVE SMOOTH",
"361 206 OFFCURVE",
"256 298 OFFCURVE",
"256 413 CURVE SMOOTH",
"256 530 OFFCURVE",
"361 624 OFFCURVE",
"474 624 CURVE SMOOTH",
"559 624 OFFCURVE",
"602 592 OFFCURVE",
"605 589 CURVE",
"580 537 LINE",
"580 537 OFFCURVE",
"542 566 OFFCURVE",
"475 566 CURVE SMOOTH"
);
}
);
width = 926;
}
);
rightKerningGroup = d;
unicode = 00A9;
},
{
glyphname = registered;
lastChange = "2018-06-10 11:52:29 +0000";
layers = (
{
layerId = "A4E552E4-62BE-43BB-A58F-34F0EE3B77B8";
paths = (
{
closed = 1;
nodes = (
"28 492 OFFCURVE",
"129 392 OFFCURVE",
"251 392 CURVE SMOOTH",
"376 392 OFFCURVE",
"476 492 OFFCURVE",
"476 615 CURVE SMOOTH",
"476 739 OFFCURVE",
"376 840 OFFCURVE",
"251 840 CURVE SMOOTH",
"129 840 OFFCURVE",
"28 739 OFFCURVE",
"28 615 CURVE SMOOTH"
);
},
{
closed = 1;
nodes = (
"88 706 OFFCURVE",
"162 780 OFFCURVE",
"251 780 CURVE SMOOTH",
"343 780 OFFCURVE",
"416 706 OFFCURVE",
"416 615 CURVE SMOOTH",
"416 525 OFFCURVE",
"343 452 OFFCURVE",
"251 452 CURVE SMOOTH",
"162 452 OFFCURVE",
"88 525 OFFCURVE",
"88 615 CURVE SMOOTH"
);
},
{
closed = 1;
nodes = (
"183 513 LINE",
"230 513 LINE",
"230 595 LINE",
"231 595 LINE",
"293 513 LINE",
"355 513 LINE",
"282 599 LINE",
"307 608 OFFCURVE",
"324 627 OFFCURVE",
"324 659 CURVE SMOOTH",
"324 699 OFFCURVE",
"295 720 OFFCURVE",
"256 720 CURVE SMOOTH",
"183 720 LINE"
);
},
{
closed = 1;
nodes = (
"230 683 LINE",
"236 683 LINE SMOOTH",
"253 683 OFFCURVE",
"273 681 OFFCURVE",
"273 655 CURVE SMOOTH",
"273 630 OFFCURVE",
"253 628 OFFCURVE",
"236 628 CURVE SMOOTH",
"230 628 LINE"
);
}
);
width = 519;
},
{
layerId = "7B60DD57-6012-4D0F-BD38-A72A4BAC0E9D";
paths = (
{
closed = 1;
nodes = (
"28 492 OFFCURVE",
"129 392 OFFCURVE",
"251 392 CURVE SMOOTH",
"376 392 OFFCURVE",
"476 492 OFFCURVE",
"476 615 CURVE SMOOTH",
"476 739 OFFCURVE",
"376 840 OFFCURVE",
"251 840 CURVE SMOOTH",
"129 840 OFFCURVE",
"28 739 OFFCURVE",
"28 615 CURVE SMOOTH"
);
},
{
closed = 1;
nodes = (
"60 721 OFFCURVE",
"147 808 OFFCURVE",
"251 808 CURVE SMOOTH",
"359 808 OFFCURVE",
"444 721 OFFCURVE",
"444 615 CURVE SMOOTH",
"444 509 OFFCURVE",
"359 424 OFFCURVE",
"251 424 CURVE SMOOTH",
"147 424 OFFCURVE",
"60 509 OFFCURVE",
"60 615 CURVE SMOOTH"
);
},
{
closed = 1;
nodes = (
"191 513 LINE",
"226 513 LINE",
"226 595 LINE",
"250 595 LINE",
"297 513 LINE",
"340 513 LINE",
"286 599 LINE",
"311 608 OFFCURVE",
"324 627 OFFCURVE",
"324 659 CURVE SMOOTH",
"324 699 OFFCURVE",
"295 720 OFFCURVE",
"256 720 CURVE SMOOTH",
"191 720 LINE"
);
},
{
closed = 1;
nodes = (
"226 691 LINE",
"251 691 LINE SMOOTH",
"278 691 OFFCURVE",
"289 684 OFFCURVE",
"289 658 CURVE SMOOTH",
"289 633 OFFCURVE",
"281 620 OFFCURVE",
"254 620 CURVE SMOOTH",
"226 620 LINE"
);
}
);
width = 519;
}
);
rightKerningGroup = d;
unicode = 00AE;
},
{
glyphname = trademark;
lastChange = "2018-06-10 11:52:29 +0000";
layers = (
{
layerId = "A4E552E4-62BE-43BB-A58F-34F0EE3B77B8";
paths = (
{
closed = 1;
nodes = (
"22 773 LINE",
"83 773 LINE",
"83 567 LINE",
"144 567 LINE",
"144 773 LINE",
"205 773 LINE",
"205 825 LINE",
"22 825 LINE"
);
},
{
closed = 1;
nodes = (
"477 825 LINE",
"414 825 LINE",
"357 677 LINE",
"300 825 LINE",
"237 825 LINE",
"214 567 LINE",
"273 567 LINE",
"286 720 LINE",
"287 720 LINE",
"340 569 LINE",
"375 569 LINE",
"428 720 LINE",
"429 720 LINE",
"441 567 LINE",
"501 567 LINE"
);
}
);
width = 539;
},
{
layerId = "7B60DD57-6012-4D0F-BD38-A72A4BAC0E9D";
paths = (
{
closed = 1;
nodes = (
"22 793 LINE",
"97 793 LINE",
"97 567 LINE",
"130 567 LINE",
"130 793 LINE",
"205 793 LINE",
"205 825 LINE",
"22 825 LINE"
);
},
{
closed = 1;
nodes = (
"410 825 LINE",
"367 825 LINE",
"327 637 LINE",
"286 825 LINE",
"243 825 LINE",
"220 567 LINE",
"253 567 LINE",
"269 770 LINE",
"270 770 LINE",
"307 569 LINE",
"348 569 LINE",
"384 770 LINE",
"385 770 LINE",
"401 567 LINE",
"434 567 LINE"
);
}
);
width = 472;
}
);
rightKerningGroup = d;
unicode = 2122;
},
